<?xml version="1.0" encoding="utf-8"?>
<!-- Generator: Adobe Illustrator 23.0.0, SVG Export Plug-In . SVG Version: 6.00 Build 0)  -->
<svg version="1.1" xmlns="http://www.w3.org/2000/svg" xmlns:xlink="http://www.w3.org/1999/xlink" x="0px" y="0px"
	 viewBox="0 0 1366.256 639.877" style="enable-background:new 0 0 1366.256 639.877;" xml:space="preserve">
<style type="text/css">
	.st0{fill:url(#sky_2_);}
	.st1{fill:#FEFFE6;}
	.st2{opacity:0.5;fill:url(#mountain_2_1_);enable-background:new    ;}
	.st3{fill:url(#mountain_1_1_);}
	.st4{fill:#DDDDD7;}
	.st5{fill:#E8E7DA;}
	.st6{fill:url(#water_3_);}
	.st7{fill:url(#shelf_2_);}
	.st8{fill:url(#SVGID_1_);}
	.st9{fill:#204A66;}
	.st10{fill:url(#SVGID_2_);}
	.st11{clip-path:url(#SVGID_4_);}
	.st12{opacity:0.78;fill:url(#SVGID_5_);enable-background:new    ;}
	.st13{opacity:0.9;fill:url(#SVGID_6_);enable-background:new    ;}
	.st14{opacity:0.9;fill:url(#SVGID_7_);enable-background:new    ;}
	.st15{opacity:0.8;fill:url(#SVGID_8_);enable-background:new    ;}
	.st16{opacity:0.89;fill:url(#SVGID_9_);enable-background:new    ;}
	.st17{fill:url(#SVGID_10_);}
	.st18{fill:url(#SVGID_11_);}
	.st19{opacity:0.9;fill:url(#SVGID_12_);enable-background:new    ;}
	.st20{opacity:0.89;fill:url(#SVGID_13_);enable-background:new    ;}
	.st21{fill:url(#SVGID_14_);}
	.st22{fill:url(#SVGID_15_);}
	.st23{opacity:0.85;fill:url(#SVGID_16_);enable-background:new    ;}
	.st24{fill:url(#SVGID_17_);}
	.st25{fill:url(#SVGID_18_);}
	.st26{fill:url(#SVGID_19_);}
	.st27{opacity:0.9;fill:url(#SVGID_20_);enable-background:new    ;}
	.st28{opacity:0.9;fill:url(#SVGID_21_);enable-background:new    ;}
	.st29{fill:url(#shelf_3_);}
	.st30{fill:url(#top_1_);}
	.st31{fill:url(#middleTop_1_);}
	.st32{fill:url(#middle_1_);}
	.st33{fill:url(#bottom_1_);}
	.st34{fill:url(#shadow2_1_);}
	.st35{fill:url(#shadow1_1_);}
	.st36{opacity:0.5;}
	.st37{fill:#FFFFFF;}
	.st38{fill:#282F35;}
	.st39{fill:#13191E;}
	.st40{fill:#141A1F;}
	.st41{fill:#454B65;}
	.st42{fill:#2B3245;}
	.st43{fill:#353E55;}
	.st44{fill:#D6B181;}
	.st45{fill:url(#SVGID_22_);}
	.st46{fill:url(#SVGID_23_);}
	.st47{fill:url(#SVGID_24_);}
	.st48{fill:#515151;}
	.st49{fill:url(#SVGID_25_);}
	.st50{fill:url(#SVGID_26_);}
	.st51{fill:#9D9FA5;}
	.st52{fill:#2D333A;}
	.st53{fill:#377987;}
	.st54{fill:#FEFCFE;}
	.st55{fill:#FDFEFE;}
	.st56{fill:#D7AF7E;}
	.st57{fill:url(#SVGID_27_);}
	.st58{fill:url(#SVGID_28_);}
	.st59{fill:url(#SVGID_29_);}
	.st60{fill:url(#SVGID_30_);}
	.st61{fill:url(#SVGID_31_);}
	.st62{opacity:0.5;fill:#FFFFFF;stroke:#FFFFFF;stroke-width:5;stroke-miterlimit:10;enable-background:new    ;}
	.st63{fill:none;}
	.st64{font-family:'Futura-Medium';}
	.st65{font-size:40px;}
	.st66{fill:none;stroke:#FFFFFF;stroke-width:5;stroke-miterlimit:10;}
	.st67{fill:#D1A570;}
	.st68{fill:#DBB788;}
	.st69{fill:#E3B683;}
	.st70{fill:#CED2DC;}
	.st71{fill:url(#SVGID_32_);}
	.st72{fill:#E8E6E0;}
	.st73{fill:#727377;}
	.st74{fill:#2A3136;}
	.st75{fill:#2E3339;}
	.st76{fill:#FDFFFF;}
	.st77{fill:url(#SVGID_33_);}
	.st78{fill:url(#SVGID_34_);}
	.st79{fill:url(#SVGID_35_);}
	.st80{fill:#C79A6A;}
	.st81{fill:url(#SVGID_36_);}
	.st82{fill:url(#SVGID_37_);}
	.st83{fill:url(#SVGID_38_);}
	.st84{fill:#333C53;}
	.st85{fill:#212529;}
	.st86{fill:url(#neck_1_);}
	.st87{fill:url(#SVGID_39_);}
	.st88{fill:#2C2F33;}
	.st89{fill:#242527;}
	.st90{fill:#F1BA40;}
	.st91{fill:url(#SVGID_40_);}
	.st92{fill:#CD9C67;}
	.st93{fill:#B2B0AF;}
	.st94{fill:#34384D;}
	.st95{fill:#F6CE46;}
	.st96{fill:#7E7F83;}
	.st97{fill:#B1B2B4;}
	.st98{fill:#2D3338;}
	.st99{fill:#5A595A;}
	.st100{fill:#6E6C74;}
	.st101{fill:#929397;}
	.st102{fill:#2C3336;}
	.st103{fill:#2B3538;}
	.st104{fill:#2A363B;}
	.st105{fill:#2B3135;}
	.st106{fill:url(#SVGID_41_);}
	.st107{fill:#31373E;}
	.st108{fill:#606362;}
	.st109{fill:#171D24;}
	.st110{fill:#F9F9F8;}
	.st111{fill:#151A1F;}
	.st112{fill:#12181D;}
	.st113{fill:#7F8287;}
	.st114{fill:#707072;}
	.st115{fill:#58585A;}
	.st116{fill:#414143;}
	.st117{fill:#6D6E72;}
	.st118{fill:#5A595E;}
	.st119{fill:#58A16F;}
	.st120{fill:url(#SVGID_42_);}
	.st121{fill:#D2D6D3;}
	.st122{fill:url(#SVGID_43_);}
	.st123{fill:url(#SVGID_44_);}
	.st124{fill:#E5E8E9;}
	.st125{fill:#BBBCBE;}
	.st126{fill:#E7E5E7;}
	.st127{fill:#919296;}
	.st128{fill:#B0B0B3;}
	.st129{fill:#575859;}
	.st130{fill:#2D323A;}
	.st131{fill:#FDFDFD;}
	.st132{fill:url(#SVGID_45_);}
	.st133{fill:url(#SVGID_46_);}
	.st134{fill:url(#SVGID_47_);}
	.st135{fill:url(#SVGID_48_);}
	.st136{fill:url(#SVGID_49_);}
	.st137{fill:url(#SVGID_50_);}
	.st138{fill:url(#SVGID_51_);}
	.st139{fill:#292F34;}
	.st140{fill:#969699;}
	.st141{fill:#35313A;}
	.st142{fill:#636268;}
	.st143{fill:#4F5254;}
	.st144{fill:#A9A7A8;}
	.st145{fill:#413E42;}
	.st146{fill:#555659;}
	.st147{fill:#E2BF10;}
	.st148{fill:url(#SVGID_52_);}
	.st149{fill:#818284;}
	.st150{fill:#28292E;}
	.st151{fill:#484949;}
	.st152{fill:url(#SVGID_53_);}
	.st153{opacity:0.5;fill:none;stroke:#FFFFFF;stroke-width:5;stroke-miterlimit:10;enable-background:new    ;}
	.st154{fill:url(#SVGID_54_);}
	.st155{fill:url(#SVGID_55_);}
	.st156{fill:url(#SVGID_56_);}
	.st157{fill:url(#SVGID_57_);}
	.st158{fill:url(#SVGID_58_);}
	.st159{fill:url(#SVGID_59_);}
	.st160{fill:url(#SVGID_60_);}
	.st161{fill:url(#SVGID_61_);}
	.st162{fill:url(#SVGID_62_);}
	.st163{fill:url(#SVGID_63_);}
	.st164{fill:url(#SVGID_64_);}
	.st165{fill:url(#SVGID_65_);}
	.st166{fill:url(#SVGID_66_);}
	.st167{fill:url(#SVGID_67_);}
	.st168{fill:url(#SVGID_68_);}
	.st169{fill:url(#SVGID_69_);}
	.st170{fill:url(#SVGID_70_);}
	.st171{fill:url(#SVGID_71_);}
	.st172{fill:url(#SVGID_72_);}
	.st173{fill:url(#SVGID_73_);}
	.st174{fill:url(#SVGID_74_);}
	.st175{fill:url(#SVGID_75_);}
	.st176{fill:url(#SVGID_76_);}
	.st177{fill:url(#SVGID_77_);}
	.st178{fill:url(#SVGID_78_);}
	.st179{fill:url(#SVGID_79_);}
	.st180{fill:url(#SVGID_80_);}
	.st181{fill:url(#SVGID_81_);}
	.st182{fill:url(#SVGID_82_);}
	.st183{fill:url(#SVGID_83_);}
	.st184{fill:url(#SVGID_84_);}
	.st185{fill:url(#SVGID_85_);}
	.st186{fill:url(#SVGID_86_);}
	.st187{fill:url(#SVGID_87_);}
	.st188{fill:url(#SVGID_88_);}
	.st189{fill:url(#SVGID_89_);}
	.st190{fill:url(#SVGID_90_);}
</style>
<g id="sky_1_">
</g>
<g id="water_2_">
	<g id="water_rays">
		<g>
			<defs>
				<polygon id="SVGID_3_" points="-105.5,5819.026 -1471.5,5819.026 -1471.5,813.5 -1190.5,971.126 -105.5,813.5 				"/>
			</defs>
			<clipPath id="SVGID_1_">
				<use xlink:href="#SVGID_3_"  style="overflow:visible;"/>
			</clipPath>
			<g id="rays" style="clip-path:url(#SVGID_1_);">
				
					<linearGradient id="SVGID_2_" gradientUnits="userSpaceOnUse" x1="-945.816" y1="6525.5996" x2="-1679.8411" y2="4124.7119" gradientTransform="matrix(0.9529 0.3033 0.3033 -0.9529 -571.419 7275.4888)">
					<stop  offset="0" style="stop-color:#78A0B0"/>
					<stop  offset="0" style="stop-color:#89ACBA"/>
					<stop  offset="0" style="stop-color:#A8C2CC"/>
					<stop  offset="0" style="stop-color:#C4D5DC"/>
					<stop  offset="0" style="stop-color:#DAE5E9"/>
					<stop  offset="0" style="stop-color:#EBF1F3"/>
					<stop  offset="0" style="stop-color:#F6F9FA"/>
					<stop  offset="0" style="stop-color:#FDFEFE"/>
					<stop  offset="0" style="stop-color:#FFFFFF"/>
					<stop  offset="1" style="stop-color:#000000;stop-opacity:0"/>
				</linearGradient>
				<polygon class="st10" points="-718.65,3689.134 -874.92,3624.25 -119.68,529.771 36.6,594.642 				"/>
				
					<linearGradient id="SVGID_4_" gradientUnits="userSpaceOnUse" x1="-817.7962" y1="6506.1509" x2="-1547.9153" y2="4118.0391" gradientTransform="matrix(0.9529 0.3033 0.3033 -0.9529 -571.419 7275.4888)">
					<stop  offset="0" style="stop-color:#78A0B0"/>
					<stop  offset="0" style="stop-color:#89ACBA"/>
					<stop  offset="0" style="stop-color:#A8C2CC"/>
					<stop  offset="0" style="stop-color:#C4D5DC"/>
					<stop  offset="0" style="stop-color:#DAE5E9"/>
					<stop  offset="0" style="stop-color:#EBF1F3"/>
					<stop  offset="0" style="stop-color:#F6F9FA"/>
					<stop  offset="0" style="stop-color:#FDFEFE"/>
					<stop  offset="0" style="stop-color:#FFFFFF"/>
					<stop  offset="1" style="stop-color:#000000;stop-opacity:0"/>
				</linearGradient>
				<polygon style="opacity:0.85;fill:url(#SVGID_4_);enable-background:new    ;" points="-632.89,3724.726 -718.65,3689.134 
					36.6,594.642 122.36,630.247 				"/>
				
					<linearGradient id="SVGID_5_" gradientUnits="userSpaceOnUse" x1="-541.1985" y1="6906.2271" x2="-1275.2238" y2="4505.3389" gradientTransform="matrix(0.9529 0.3033 0.3033 -0.9529 -571.419 7275.4888)">
					<stop  offset="0" style="stop-color:#78A0B0"/>
					<stop  offset="0" style="stop-color:#89ACBA"/>
					<stop  offset="0" style="stop-color:#A8C2CC"/>
					<stop  offset="0" style="stop-color:#C4D5DC"/>
					<stop  offset="0" style="stop-color:#DAE5E9"/>
					<stop  offset="0" style="stop-color:#EBF1F3"/>
					<stop  offset="0" style="stop-color:#F6F9FA"/>
					<stop  offset="0" style="stop-color:#FDFEFE"/>
					<stop  offset="0" style="stop-color:#FFFFFF"/>
					<stop  offset="1" style="stop-color:#000000;stop-opacity:0"/>
				</linearGradient>
				<polygon style="fill:url(#SVGID_5_);" points="-217.65,3449.161 -373.92,3384.277 381.32,289.798 537.6,354.669 				"/>
			</g>
		</g>
	</g>
</g>
<g id="MountEverest_1_">
</g>
<g id="Seaweed">
</g>
<g id="ScubaDiver1">
	<g id="fins_2_">
		<path id="right_fin_3_" class="st38" d="M646.589,565.069c16.38-6.74,32.46-12.53,47.81-15.94c10.65-1.96,20.77-5.56,30.17-11.38
			c8.52-5.61,15.12-6.01,19.35,0c0.52,0.85,0.76,1.78,0.57,2.85c-1.18,4.72-2.17,8.69-2.85,11.38c-4.63-0.76-8.8,0.01-12.52,2.28
			c-11.95,10.67-25.09,18.41-39.84,22.2c-11.18,4.57-20.41,8.35-25.04,10.25c-1.65,0.55-3.46,0.36-5.69-1.71l-11.38-13.66
			C643.849,568.939,643.999,566.889,646.589,565.069z"/>
		<g id="stripes_2_">
			<path class="st39" d="M651.709,576.459l2.28,2.85c5.36-3.66,18.06-7.77,31.87-11.95c8.79-2.35,16.78-5.74,23.91-10.25l15.37-8.54
				c-6.96,1.46-13.49,3.32-18.21,6.83c-6.72,4.17-14.85,7.27-23.91,9.68C669.259,568.839,658.729,572.629,651.709,576.459z"/>
			<path class="st40" d="M655.129,580.439l1.71,2.28c7.22-3.05,16.59-6.32,26.75-9.68c8.23-2.97,15.65-6.11,21.06-9.68
				c5.71-2.96,10.88-5.65,15.37-7.97c-10.33,3.59-19.53,7.31-26.18,11.38c-7.46,3.71-16.17,6.41-25.61,8.54
				C662.999,576.559,658.289,578.089,655.129,580.439z"/>
		</g>
		<path id="fin_4_" class="st38" d="M685.299,595.239c22.65-15.33,43.51-29.97,58.06-42.12c1.32-0.66,2.64-0.81,3.98,0l28.46,5.12
			c-3.59,1.04-6.26,2.54-7.97,4.55c-10.01-0.44-17.24,0.23-21.06,2.28l-29.03,17.08l-22.2,13.66
			C691.609,595.999,688.099,595.879,685.299,595.239z"/>
	</g>
	<g id="right_leg_3_">
		<path class="st41" d="M744.489,540.519c26.18-1.71,25.04-2.85,40.41,2.85l9.68-9.68c2.56-1.9,4.37-5.09,5.69-9.11
			c4.32-8.92,9.27-16.84,16.51-21.06c3.6-3.05,8.22-4.26,13.66-3.98l18.78,21.06c-12.4,5.93-23.87,14.36-34.72,24.47l-15.37,11.95
			c-1.48,1.39-4.93,1.5-9.11,1.14h-14.23c-13.72-2.6-31.08-5.99-34.15-6.26L744.489,540.519z"/>
	</g>
	<g id="left_leg_3_">
		<path class="st42" d="M767.829,562.719c1.57-1.89,4.17-3.43,7.97-4.55h14.23c3.83,0.42,6.72,0.19,8.61-0.77l15.87-12.32
			c5.56-5.12,11.16-9.85,16.84-13.85l7.44-4.93c2.71-1.76,6.21-3.67,10.43-5.69l4.55,5.12c-6.26,2.85-12.52,6.83-15.94,13.09
			l-9.68,12.52l-6.83,7.97c-13.66,13.66-15.37,15.37-29.6,10.25L767.829,562.719z"/>
		<g id="stripe_2_">
			<path class="st43" d="M743.349,545.179l1.14-4.59l39.27,4.55c3.3,0.92,6.27-1.68,9.11-5.69c5.9-5.9,11.78-13.75,17.64-22.2
				c1.27-3.93,6.15-7.92,13.09-11.95l5.69-2.85l6.83,9.68l-41.55,36.43c-1.77,2.71-5.61,3-10.81,1.71L743.349,545.179z"/>
		</g>
	</g>
	<g id="head_4_">
		<path class="st44" d="M887.259,458.519c7.39,5.03,12.61,5.98,16.03,3.53c4.52-7.58,8.58-15.34,4.55-26.18
			c-3.45-7.13-10.61-8.1-20.49-4.55c-5.56,2.74-8.86,5.93-9.06,9.71C876.599,451.049,880.789,455.809,887.259,458.519z"/>
		<g id="Layer_14_2_">
			
				<linearGradient id="SVGID_6_" gradientUnits="userSpaceOnUse" x1="511.6512" y1="-10140.9229" x2="514.3179" y2="-10145.542" gradientTransform="matrix(1 0 0 1 377 10606)">
				<stop  offset="0.0687" style="stop-color:#D6B181"/>
				<stop  offset="0.2841" style="stop-color:#D3AC7D"/>
				<stop  offset="0.5362" style="stop-color:#C99E70"/>
				<stop  offset="0.7398" style="stop-color:#BE8D60"/>
			</linearGradient>
			<path style="fill:url(#SVGID_6_);" d="M891.439,466.489c0.54-1.52,1.66-2.84,3.64-3.86c-2.33-0.76-4.94-2.18-7.72-4
				c0.4,1.39,0.59,2.72,0.57,3.98C888.989,464.879,890.149,466.339,891.439,466.489z"/>
		</g>
	</g>
	<g id="hair_1_">
		
			<linearGradient id="SVGID_7_" gradientUnits="userSpaceOnUse" x1="516.4092" y1="-10161.2363" x2="503.7194" y2="-10183.2158" gradientTransform="matrix(1 0 0 1 377 10606)">
			<stop  offset="0.0976" style="stop-color:#754C24"/>
			<stop  offset="0.7116" style="stop-color:#BE8D60"/>
			<stop  offset="0.835" style="stop-color:#C09264"/>
			<stop  offset="0.9478" style="stop-color:#C69C6D"/>
		</linearGradient>
		<path style="fill:url(#SVGID_7_);" d="M878.139,447.919c1.74,0.34,3.27,0.84,4.66,1.46c-1.55-1.18-1.72-3.63-1.71-6.26
			c1.22-3.87,3.28-6.03,6.26-6.26c4.07-0.11,7.79-1.76,11.38-3.98c4.01,1.85,8.62,4.17,9.31,3.42c2.65-2.15,3.81-4.95,3.21-8.54
			c-3.5-3.94-6.98-7.81-9.11-7.97c-1.9,0.07-3.8,0.45-5.69,1.14c-1.56,0.46-2.9,0.13-3.98-1.14c0.01,0.77,0.57,1.53,1.71,2.28
			c2.34-0.26,4.86-0.15,7.4,0c1.66,0.02,2.54,0.49,1.14,2.28c-0.4,1.54,1.5,2.48,3.42,3.42l-2.85,1.14c-1.21-0.54-1.18-1.3,0-2.28
			c-0.83-0.78-1.59-0.55-2.28,1.14c-0.02-2.07-0.43-3.74-1.71-4.55c-1,0.46-2,0.91-2.28,0c-0.38,0.67-0.28,1.28,1.71,1.71
			c1.28-0.1,0.92,1.38,0.57,2.85c-1.1-1.34-2.32-2.48-3.98-2.85c-1.55-0.16-2.48-0.93-2.85-2.28c0,0-0.91-3.31-1.71-3.42
			c-0.99-0.13-1.45-2.52-1.14-2.85c-0.93-0.36-1.24,0.76-1.14,2.85c0.5,1.46,1.04,2.74,1.71,3.42c0.79,0.66,1.64,1.3,1.14,2.28
			c-0.27,0.85,0.18,1.39,1.14,1.71l-1.71-0.57c-1.14-0.43-2.21-0.92-2.85-1.71c-0.43-0.52-0.59-1.31-0.57-2.28l-0.57,1.71
			c-0.25,0.74-0.22,1.5,0,2.28c0.2,0.48,0.88,0.84,1.71,1.14c0.42,0.17,0.54,0.61,0.57,1.14l-1.71,0.57
			c-1.47,0.54-2.5,0.46-2.85-0.57c-0.32-1.22-0.79-2.29-1.71-2.85l-2.85-1.14c-0.67,0.19-1.29,0.27-1.71,0
			c-0.63-0.52-1.73-0.83-2.85-1.14c0.32,0.93,0.65,1.86,1.14,2.28c0.84,0.55,2.07,0.88,3.42,1.14c1.18,0.39,1.78,1.02,2.28,1.71
			c0.38,0.55,0.34,1.33,0,2.28c0.54,0.6,1.76,0.73,3.42,0.57l-2.85,1.14c-1.66,0.51-3.12,0.6-3.98-0.57
			c-0.68-0.55-1.61-0.93-2.85-1.14h-2.85c-0.83,0.07-1.35,0.28-1.71,0.57c2.05-0.17,3.37,0.22,3.98,1.14l1.14,1.71
			c0.5,0.55,1.95,0.56,3.42,0.57c0,0-1.1-0.23-1.14,0.57c-0.05,1.04-2.38,0.98-2.85,0.57c-0.64-0.1-1.42,0.14-2.28,0.57
			c-3.12,1.67-2.23,1.83-0.57,1.71c1.79-0.81,3.15-1.04,3.98-0.57c0.88,0.43,1.86,0.23,2.85,0l-2.85,2.28l-2.85,1.71
			c-0.65,0.73-1.65,1.34-3.42,1.71c-8.4,1.45-5.24,2.25,0.57,1.14c0.75,0.18,1.54-0.14,2.28-0.57c0.96-1.31,1.69-1.38,2.29-0.78
			c-3.15,2.17-2.46,2.28,1.23,0.8c0.67,0.6,0.46,1.17-1.24,1.68c-0.94-0.09-2.04,0.05-3.42,0.57c-4.44,1.25-3.23,1.15,0,0.57
			C875.769,445.549,877.119,446.569,878.139,447.919z"/>
	</g>
	<g id="BCD_Vest_2_">
		<g id="Layer_8_2_">
			
				<linearGradient id="SVGID_8_" gradientUnits="userSpaceOnUse" x1="441.3222" y1="-10081.2002" x2="441.3222" y2="-10164.8408" gradientTransform="matrix(1 0 0 1 377 10606)">
				<stop  offset="0.1164" style="stop-color:#333333"/>
				<stop  offset="0.2683" style="stop-color:#686868"/>
				<stop  offset="0.4127" style="stop-color:#939393"/>
				<stop  offset="0.542" style="stop-color:#B2B2B2"/>
				<stop  offset="0.6514" style="stop-color:#C5C5C5"/>
				<stop  offset="0.7278" style="stop-color:#CCCCCC"/>
				<stop  offset="0.8174" style="stop-color:#D0D0D0"/>
				<stop  offset="0.9021" style="stop-color:#DBDBDB"/>
				<stop  offset="0.9846" style="stop-color:#EEEEEE"/>
				<stop  offset="0.9979" style="stop-color:#F2F2F2"/>
			</linearGradient>
			<path style="fill:url(#SVGID_8_);" d="M774.089,505.449c6.76,9.84,13.19,17.39,18.78,19.35l64.89-64.89
				c1.82-2.21,2.99-5.16,2.28-10.25c1.96-1.41,3.02-3.32,2.28-6.26h-2.28c-0.57-2.61-1.75-2.87-3.42-1.14l-3.98,2.28
				c-7.84-4.54-12.75-1.86-17.08,2.28L774.089,505.449z"/>
			<path class="st48" d="M852.629,444.539l7.4,5.12c1.96-1.41,3.02-3.32,2.28-6.26h-2.28c-0.51-1.84-1.25-2.98-2.76-1.74
				L852.629,444.539"/>
		</g>
		
			<linearGradient id="SVGID_9_" gradientUnits="userSpaceOnUse" x1="455.4321" y1="-10159.4072" x2="496.4711" y2="-10110.499" gradientTransform="matrix(1 0 0 1 377 10606)">
			<stop  offset="0.2952" style="stop-color:#2D323D"/>
			<stop  offset="0.5386" style="stop-color:#000000"/>
			<stop  offset="0.6422" style="stop-color:#121318"/>
			<stop  offset="0.7638" style="stop-color:#21242C"/>
			<stop  offset="0.884" style="stop-color:#2A2F39"/>
			<stop  offset="1" style="stop-color:#2D323D"/>
		</linearGradient>
		<path style="fill:url(#SVGID_9_);" d="M830.439,499.759c-0.95-1.9,0-3.8,2.85-5.69l-1.14-1.14c-0.62-0.19-1.2-0.08-1.71,0.57
			l-11.95,10.25l-9.11-14.23c-1.89-3.15-1.9-6.06,1.14-8.54l17.64-13.66l-5.12-5.69h-2.85l-0.57-2.85l-1.14-1.14l5.12-5.12
			l2.28,1.71l1.71-0.57l0.57,2.85l6.26,6.26c1.06,0.85,2.04,1.12,2.85,0c5.13-3.96,11.99-6.59,20.49-7.97
			c2.47,0.64,4.55,0.05,6.26-1.71l1.14-1.14l-16.51-12.52c-1.01-3.31-0.52-5.82,1.71-7.4c2.23-0.94,4.75-1.5,7.97-1.14
			c4.89,1.06,9.18,3.07,13.09,5.69l13.66,9.11l7.97,5.12c2.45,1.72,4.52,2.25,6.26,1.71l-1.14,2.85c-1.53,0.45-3.65-0.18-6.26-1.71
			c-13.37-9.02-26.22-17.55-31.87-19.35c-3.11-0.87-5.96-0.67-8.54,0.57c-0.46,1.72-0.4,3.2,1.14,3.98l3.98,3.42l10.81,8.54
			c4.52-3.56,9.71-3.61,15.37-1.14c2.89,3.94,4.83,8.21,5.12,13.09c-4.01-5.72-9.08-5.75-14.8-2.28
			c-7.46,4.55-12.94,9.45-15.94,14.8c-1.23,6.63-0.43,11.67,2.85,14.8l14.23,21.06c3.29,4.92,2.32,7.97-1.71,9.68l-10.25,9.11
			c-2.01,1.55-4.1,1.26-6.26-0.57l-2.36-3.51L830.439,499.759z"/>
	</g>
	<g id="right_arm_3_">
		
			<linearGradient id="SVGID_10_" gradientUnits="userSpaceOnUse" x1="510.8676" y1="-10090.8975" x2="554.5083" y2="-10166.4854" gradientTransform="matrix(1 0 0 1 377 10606)">
			<stop  offset="0.0687" style="stop-color:#2D323D"/>
			<stop  offset="0.1418" style="stop-color:#343A49"/>
			<stop  offset="0.2761" style="stop-color:#3E4359"/>
			<stop  offset="0.4296" style="stop-color:#434962"/>
			<stop  offset="0.6429" style="stop-color:#454B65"/>
			<stop  offset="0.6743" style="stop-color:#4B506A"/>
			<stop  offset="0.792" style="stop-color:#5F607B"/>
			<stop  offset="0.8727" style="stop-color:#666681"/>
		</linearGradient>
		<path class="st17" d="M870.109,504.849l-12.33-18.17c-0.81-3.55-1.61-7.09-0.72-10.73c1.92-4.28,5.57-8.34,10.95-12.19l4.21-2.85
			c6.35-4.21,11.69-4.08,15.71,1.71c1.04,2.46,2.45,4.05,4.55,3.98c3.51,2.27,20.49,1.71,34.15,4.55c2.31-0.53,4.8-1.11,7.4-1.71
			l29.6-11.38l5.12,9.68l-34.72,18.78c-4.35,3.03-8.71,3.97-13.09,3.42l-34.72-2.85c-2.54,0.68-4.37,2.08-5.12,4.55
			C877.949,498.439,874.009,501.569,870.109,504.849z"/>
	</g>
	<g id="left_arm_3_">
		<path class="st42" d="M881.889,489.939c1.63-1.92,3.27-2.85,4.91-2.79l35.24,2.79c1.59,0.15,3.49,0.03,5.81-0.46l-14.31,10.14
			c-4.42,1.31-8.44,1.43-11.95,0L881.889,489.939z"/>
	</g>
	<g id="regulator_3_">
		<path class="st51" d="M898.329,454.799l1.54,0.98c-0.89,0.08-1.34,0.83-1.71,1.71c3.85,0.92,6.7,0.48,7.4-2.85l-2.28-1.71
			c-1.26-0.64-1.96-0.36-2.28,0.57l-1.92-0.61L898.329,454.799z"/>
		<path class="st52" d="M904.429,451.239c2.62-0.1,4.55,0.61,5.69,2.28c0.57,3.69-0.03,5.35-1.71,5.12
			c2.05,1.91,1.66,3.81-0.57,5.69c-3.98,3.98-6.96,5.46-10.81,1.14c-3.28-3.86-3.73-6.79,1.14-7.97c3.74,1.01,6.49,0.51,7.4-2.85
			l-1.74-1.3L904.429,451.239z"/>
	</g>
	<g id="mask_6_">
		<path id="mask_7_" class="st53" d="M891.339,443.839c1.71,0,2.85-3.98,0.57-5.12l3.98-2.28c0.52-0.5,0.98-0.36,1.43,0l9.38,2.85
			l6.59,3.4l-4.34,9.64c-1.29-0.85-2.81-1.18-4.52-1.08l-0.57,2.28c-1.14-1.43-2.98-2.24-5.69-2.28c-1.25-0.43-1.45-1.57-0.57-3.42
			C895.549,448.489,893.459,447.099,891.339,443.839z"/>
		<path id="right_lense_ceal_2_" d="M897.449,446.589c-1.88-0.14-3.69-1.06-3.81-3.17c-0.85-2.15,0.67-4.47,3.17-6.98l7.61,2.54
			c0.68,0.72,0.85,1.53,0,2.54C902.049,444.109,899.719,445.749,897.449,446.589z"/>
		<path id="right_lense_2_" class="st54" d="M897.599,446.109c-1.69-0.13-3.32-0.96-3.42-2.85c-0.76-1.92,0.6-4.01,2.85-6.26
			l6.83,2.28c0.61,0.64,0.77,1.37,0,2.28C901.729,443.889,899.639,445.369,897.599,446.109z"/>
		<path id="left_lense_ceal_2_" d="M906.709,439.849v9.71c0.05,1.58,0.98,2.11,2.24,2.24c2.38,0.03,3.93-0.91,4.48-2.99
			c0.81-1.99,0.81-3.98,0-5.98L906.709,439.849z"/>
		<path id="left_lense_2_" class="st55" d="M907.209,440.629v8.62c0.05,1.4,0.87,1.87,1.99,1.99c2.11,0.02,3.48-0.81,3.98-2.65
			c0.72-1.76,0.72-3.53,0-5.3L907.209,440.629z"/>
		<path class="st52" d="M889.059,439.849l2.85-1.14c2.28,1.14,1.4,3.91-0.46,5.29l-2.39-0.74
			C887.879,443.099,887.489,442.279,889.059,439.849z"/>
	</g>
	<g id="hand_2_">
		<path class="st56" d="M963.989,458.749c0.52-2.43,1.66-5.09,3.62-8.09c0-2.82,0.67-5.26,2.85-6.83c3.34-3.37,4.55-3.11,3.42,1.14
			c-1.64,1.48-2.17,3-1.71,4.55c0.64,0.83,1.41,0.81,2.28,0c3.52-2.79,8.03-5.43,13.09-7.97c2.48-0.76,3.98,0,1.71,2.28l-10.81,6.83
			c-0.26,1.16,0.34,1.52,1.71,1.14c4.91-2.64,9.56-4.74,13.66-5.69c3.81-0.28,3.82,0.8,1.14,2.85c-4.14,1.56-8.32,3.28-12.52,5.12
			c0.09,1.19,0.66,1.57,1.71,1.14l9.11-3.42c4.55-2.28,5.12,1.14,1.14,2.28l-9.68,4.55c-0.18,1.01,0.22,1.37,1.14,1.14l6.83-1.14
			c2.59,0.04,2.47,0.89,0.57,2.28c-8.81,1.22-17.08,3.28-24.84,6.14L963.989,458.749z"/>
	</g>
	<polygon id="arrow1_1_" class="st62" points="1297.045,203.333 1297.045,264.183 1256.5,233.758 	"/>
	<rect x="962.016" y="203.333" class="st63" width="268.822" height="142.725"/>
	<text id="ScubaDiver1Depth1_1_" transform="matrix(1 0 0 1 1033.9951 236.3208)"><tspan x="0" y="0" class="st37 st64 st65">100 M</tspan><tspan x="-15.234" y="48" class="st37 st64 st65">(328 FT) </tspan></text>
	<rect x="2.5" y="2.5" class="st66" width="1361.256" height="634.877"/>
	<rect x="168.585" y="203.333" class="st63" width="537.644" height="395.31"/>
	<text transform="matrix(1 0 0 1 220.874 236.3208)"><tspan x="0" y="0" class="st37 st64 st65">Official maximum depth </tspan><tspan x="-2.598" y="48" class="st37 st64 st65">recommended for scuba </tspan><tspan x="-35.303" y="96" class="st37 st64 st65">divers. this limit is set due to </tspan><tspan x="-16.689" y="144" class="st37 st64 st65">the risk of oxygen toxicity </tspan><tspan x="-46.475" y="192" class="st37 st64 st65">that occurs at high pressures. </tspan><tspan x="25.645" y="240" class="st37 st64 st65">This is the length of 2 </tspan><tspan x="79.014" y="288" class="st37 st64 st65">Olympic pools.</tspan></text>
</g>
<g id="ScubaDiver2">
</g>
<g id="FreeDiver">
</g>
<g id="ScubaDiver3">
</g>
<g id="submarine_1_">
</g>
<g id="whales_1_">
</g>
<g id="DepthLine">
</g>
<g id="bubbles">
</g>
<g id="Title">
</g>
<g id="Subtitle_Paragraph">
</g>
<g id="paragraph1">
</g>
<g id="paragraph2">
</g>
<g id="paragraph3">
</g>
<g id="paragraph4">
</g>
<g id="paragraph5">
</g>
<g id="paragraph6">
</g>
</svg>
