<?xml version="1.0" encoding="utf-8"?>
<!-- Generator: Adobe Illustrator 23.0.0, SVG Export Plug-In . SVG Version: 6.00 Build 0)  -->
<svg version="1.1" id="Layer_1" xmlns="http://www.w3.org/2000/svg" xmlns:xlink="http://www.w3.org/1999/xlink" x="0px" y="0px"
	 viewBox="0 0 1366 768" style="enable-background:new 0 0 1366 768;" xml:space="preserve">
<style type="text/css">
	.st0{display:none;}
	.st1{fill:url(#SVGID_1_);}
	.st2{fill:#818284;}
	.st3{fill:#6D6E72;}
	.st4{fill:#28292E;}
	.st5{fill:#484949;}
</style>
<g class="st0">
</g>
<g id="body">
	
		<linearGradient id="SVGID_1_" gradientUnits="userSpaceOnUse" x1="168.4138" y1="609.9828" x2="1288.6283" y2="-36.7735" gradientTransform="matrix(1 0 0 -1 0 770)">
		<stop  offset="0" style="stop-color:#666666"/>
		<stop  offset="0.8443" style="stop-color:#B9B9B9"/>
		<stop  offset="0.8869" style="stop-color:#D0D0D0"/>
		<stop  offset="0.9602" style="stop-color:#F2F2F2"/>
		<stop  offset="1" style="stop-color:#FFFFFF"/>
	</linearGradient>
	<path class="st1" d="M0,478.07c12.63-8.03,24.44-15.55,34.91-22.22c25.1-35.23,41.96-70.2,44.43-104.73
		c2.25-7.3,0.29-12.66-6.35-15.87c-16.88-10.95,33.01-7.93,76.17-6.35c96.99-69.28,204.03-128.37,330.06-168.2
		c18.38-7.36,33.99-17.23,44.43-31.74c0.35-11.04-2.82-19.52-9.52-25.39c-1.68-5.97,1.11-9.33,9.52-9.52l92.04,41.26
		c34.34,10.98,83.78,15.68,136.47,19.04c162.49,25.33,314.19,88.86,441.13,199.94c107.21,95.65,153.25,175.63,155.51,244.37
		l12.69,60.3c-15.99-0.63-28.66-10.22-38.08-28.56c-4.41-21.39-15.65-33.16-31.74-38.08c14.54,14.76,24.25,29.55,25.39,44.43
		c17.58,25.23,31.1,29.1,44.43,31.74c7.08,1.78,4.86,5.4,0,9.52c-11.74,2.09-21.42,0.32-28.56-6.35
		c-19.52-13.27-36.12-19.93-50.78-22.22c-71.82-12.66-132.5-28.4-180.9-47.6l-98.38-34.91l-149.16-53.95L549.04,401.9l-47.6-19.04
		c-20.41-8.85-49.92-11.36-85.69-9.52c-88.77,5.87-174.52,3.87-257.06-6.35c-20.69,9.46-47.13,39.61-76.17,79.34
		C55.95,473.84,28.44,483.9,0,478.07z"/>
</g>
<g id="fin">
	<path class="st2" d="M1037.78,525.67l38.08,25.39c-76.33,15.71-149.19,28.25-180.9,3.17c-5.93-1.97-9.68-8.19-12.69-15.87
		c7.87-14.57,27.93-21.61,63.47-19.04l34.91,6.35C996.87,527.57,1016.45,527.19,1037.78,525.67z"/>
</g>
<g id="eye">
	<path class="st3" d="M1260.76,522.24c19.3,21.23,15.84,32.4-3.4,36.66c9.43,5.46,18.69,7.05,27.2-8.95
		C1282.56,533.57,1272.72,527.57,1260.76,522.24z"/>
	<circle class="st4" cx="1252" cy="552.65" r="14.28"/>
	<path class="st3" d="M1253.58,468.54c-60.36,18.34-66.42,43.35-34.91,72.99c-23.96-0.32-43.19-7.78-41.26-47.6
		C1199.63,465.37,1224.93,465.15,1253.58,468.54z"/>
</g>
<g id="spot">
	<circle class="st5" cx="1064.75" cy="359.05" r="14.28"/>
	<circle class="st5" cx="952.09" cy="363.81" r="9.52"/>
	<circle class="st5" cx="861.64" cy="314.62" r="11.11"/>
	<circle class="st5" cx="709.31" cy="235.28" r="14.28"/>
	<circle class="st5" cx="861.64" cy="241.63" r="14.28"/>
	<circle class="st5" cx="944.15" cy="241.63" r="14.28"/>
	<circle class="st5" cx="985.41" cy="305.1" r="14.28"/>
	<circle class="st5" cx="1159.96" cy="403.48" r="17.45"/>
	<circle class="st5" cx="1028.26" cy="427.29" r="12.69"/>
	<circle class="st5" cx="1102.84" cy="495.52" r="7.93"/>
	<circle class="st5" cx="896.55" cy="384.44" r="11.11"/>
	<circle class="st5" cx="788.65" cy="213.07" r="17.45"/>
	<circle class="st5" cx="652.18" cy="187.68" r="14.28"/>
	<circle class="st5" cx="780.71" cy="293.99" r="9.52"/>
	<circle class="st5" cx="582.36" cy="199.13" r="12.09"/>
	<circle class="st5" cx="483.98" cy="197.2" r="14.28"/>
	<circle class="st5" cx="384.01" cy="227.35" r="9.52"/>
	<circle class="st5" cx="631.55" cy="255.91" r="12.69"/>
	<circle class="st5" cx="550.62" cy="257.5" r="14.28"/>
	<circle class="st5" cx="471.28" cy="251.15" r="7.93"/>
	<circle class="st5" cx="709.31" cy="311.45" r="7.93"/>
</g>
</svg>
