<?xml version="1.0" encoding="utf-8"?>
<!-- Generator: Adobe Illustrator 23.0.0, SVG Export Plug-In . SVG Version: 6.00 Build 0)  -->
<svg version="1.1" id="Layer_1" xmlns="http://www.w3.org/2000/svg" xmlns:xlink="http://www.w3.org/1999/xlink" x="0px" y="0px"
	 viewBox="0 0 324.67 249.77" style="enable-background:new 0 0 324.67 249.77;" xml:space="preserve">
<style type="text/css">
	.st0{fill:#7E7F83;}
	.st1{fill:#B1B2B4;}
	.st2{fill:#2D3338;}
	.st3{fill:#5A595A;}
	.st4{fill:#6E6C74;}
	.st5{fill:#929397;}
	.st6{fill:#2C3336;}
	.st7{fill:#2B3538;}
	.st8{fill:#2A363B;}
	.st9{fill:#2B3135;}
	.st10{fill:url(#SVGID_1_);}
	.st11{fill:#31373E;}
	.st12{fill:#606362;}
	.st13{fill:#DBB788;}
	.st14{fill:#171D24;}
	.st15{fill:#F9F9F8;}
	.st16{fill:#151A1F;}
	.st17{fill:#12181D;}
	.st18{fill:#7F8287;}
	.st19{fill:#707072;}
	.st20{fill:#58585A;}
	.st21{fill:#414143;}
	.st22{fill:#6D6E72;}
	.st23{fill:#5A595E;}
</style>
<title>deepScubaDiver</title>
<g id="deep_scuba_diver">
	<g>
		<g id="scuba_tank_bottom_left">
			<path class="st0" d="M117.62,91.69C122,63.44,89.09,40.57,72.18,65.32L28.31,140.4C16.5,155.84,13,176.27,30.43,188.3
				c17.54,8.3,32.42,6.57,42.37-13.71L117.62,91.69z"/>
			<circle class="st1" cx="46.55" cy="165.94" r="27.1"/>
			<circle class="st2" cx="38.51" cy="174.9" r="13.3"/>
			<circle class="st3" cx="38.82" cy="176.43" r="10.84"/>
			<circle class="st4" cx="33.84" cy="184.75" r="9.85"/>
		</g>
		<g id="scuba_tank_top_left">
			<path class="st5" d="M58,117.52c-1,28.58,34.49,47.3,48.29,20.7l34.48-79.82c9.85-16.75,10.84-37.45-7.88-47.3
				C114.48,5,99.92,8.49,92.48,29.82L58,117.52z"/>
			<g id="Layer_3">
				<circle class="st1" cx="119.58" cy="35.24" r="27.1"/>
			</g>
			<g id="Layer_4">
				<circle class="st2" cx="126.48" cy="25.38" r="13.3"/>
			</g>
			<g id="Layer_5">
				<circle class="st3" cx="125.99" cy="23.9" r="10.84"/>
			</g>
			<g id="Layer_6">
				<circle class="st4" cx="129.93" cy="15.03" r="9.85"/>
			</g>
		</g>
		<g id="scuba_tank_bottom_right">
			<path class="st0" d="M249,70c-22.85-17.2-58.53,1.14-44.64,27.7l45.63,74c8.08,17.68,24.47,30.35,43.27,20.66
				c15.57-11.58,21.05-25.52,7.82-43.84L249,70z"/>
			<circle class="st1" cx="281.11" cy="167.65" r="27.1"/>
			<circle class="st2" cx="285.23" cy="178.95" r="13.3"/>
			<circle class="st3" cx="286.72" cy="179.39" r="10.84"/>
			<circle class="st4" cx="291.73" cy="187.71" r="9.85"/>
		</g>
		<g id="scuba_tank_top_right">
			<path class="st5" d="M216.32,137.7c19.52,20.89,57.85,9,48.76-19.54L233,37.35c-4.93-18.81-18.88-34.13-39.09-27.85
				c-17.34,8.7-25.15,21.48-15.3,41.82L216.32,137.7z"/>
			<circle class="st1" cx="201.6" cy="35.97" r="27.1"/>
			<circle class="st2" cx="199.5" cy="24.12" r="13.3"/>
			<circle class="st3" cx="198.11" cy="23.42" r="10.84"/>
			<circle class="st4" cx="194.63" cy="14.36" r="9.85"/>
		</g>
		<g id="oxygen_lines">
			<path class="st6" d="M43.28,179.61v-5.91c13.25,4.11,26.75,7.4,40.41,9.85l-3,4.93C67.91,187.03,55.35,184.05,43.28,179.61z"/>
			<path class="st7" d="M242.27,187.49l-2-5.91c5.8,1.63,11.94,1.63,17.74,0c7.97-4.05,16.69-6.4,25.62-6.9l1,4.93
				c-7.28,0.93-14.31,3.27-20.7,6.9C256,188.54,248.73,189,242.27,187.49z"/>
			<path class="st8" d="M60.94,61.35l3.94-1c-0.24-22.94,7.89-36.07,28.58-34.49l27.59-1L122,19c-25.65-1.65-42.52,0-50.26,4.93
				C58.46,34.11,57.51,47.22,60.94,61.35z"/>
			<path class="st9" d="M202.82,24.89V21c20.34-2.53,38.22-3.17,47.3,3c13.71,8.3,17.92,20.81,12.81,37.45l-5.91-1
				c4.27-21.19-4.93-33.51-23.65-34.49L202.82,24.89z"/>
		</g>
		<g id="body">
			
				<linearGradient id="SVGID_1_" gradientUnits="userSpaceOnUse" x1="-214.6838" y1="16755.7168" x2="-214.6838" y2="16959.623" gradientTransform="matrix(1 0 0 -1 377 17005.5)">
				<stop  offset="0" style="stop-color:#2C3339"/>
				<stop  offset="0.31" style="stop-color:#292F35"/>
				<stop  offset="0.61" style="stop-color:#1F2429"/>
				<stop  offset="0.67" style="stop-color:#1D2126"/>
			</linearGradient>
			<path class="st10" d="M64.89,215.42c16.74-24.64,28.48-49.57,33.51-74.9l2-21.68c-2.07-3.91-5.57-5.92-9.85-6.9
				c-5.99-0.68-12.05,0-17.74,2L30.4,126.72c-7.81,0.94-14.65-0.88-19.71-7.88C6,111.6,2.25,104.59,0.84,98.14
				c-1.94-9.42-0.76-16.57,5.91-19.71c23.44-9.38,45.88-16.8,66-19.71l37.45-8.87c7-3,14.61-4,22.67-3.94H192
				c7.29-0.29,16.18,1.38,26.61,4.93l55.19,11.83c18.11,5.08,34.2,10.54,46.32,16.75c5.83,6.51,6.21,15.23,0,26.61
				c-8.54,19-19.74,24.78-33.51,17.74l-37.45-10.84c-6.77-1.58-13.07-2.29-17.74,0l-7.88,5.91c4.43,34.25,11.6,60.1,22.67,73.91
				l11.83,20.7C263,244,238.36,256.81,217.66,246l-42.38-55.19c-10.84-10.84-15.77-9.85-28.58,0L109.23,244
				C83.61,256.81,63.9,245,64.89,215.42z"/>
		</g>
		<g id="vest">
			<path class="st11" d="M99.16,116.93c6.13-26,11-50.51,12-71.06c6.8-3.24,14.61-3.6,21.68-1c2.78,41.87-7.55,65.39-23.65,80.81
				h-9.5l0.63-6.9L99.16,116.93z"/>
			<path class="st11" d="M225,116.93c-6.13-26-11-50.51-12-71.06c-6.8-3.24-14.61-3.6-21.68-1c-2.78,41.87,7.55,65.39,23.65,80.81
				h9.5l-0.63-6.9L225,116.93z"/>
			<path id="belt" class="st12" d="M98.49,140.14l1.17-12.88c42.14,4.78,83.82,5,124.87-0.87l2.22,13.75
				C185.91,143.91,143,143.57,98.49,140.14z"/>
		</g>
		<g id="head">
			<path class="st13" d="M135.84,21c8.87-26.63,42.38-29.2,52.23,0c3.57,26.09-0.28,46.61-14.78,59.13
				c-7.57,7.63-15.13,8.31-22.67,0C138.9,70.51,133.61,51.32,135.84,21z"/>
			<g id="mask">
				<path class="st14" d="M189,29.24c0.65,9.68-0.08,19.4-2.16,28.87c-2.44-1.09-5.26-0.98-7.61,0.29c-3.93,2.93-7.87,2.26-11.83,0
					c-3.72,4.16-7.68,3.73-11.83,0c-3.38,3-7,2.67-10.84,0c-1.96-1.56-4.63-1.88-6.9-0.83c-2-8.11-2.68-17.7-2.4-28.32
					c1.55,1.35,4.5,0.22,8.32-2.38c13.18-10.87,25.59-9.78,37.45,0C184,29.2,186.63,30.06,189,29.24z"/>
				<path class="st15" d="M162.45,38.08c1.65,5.84,5.09,11.01,9.85,14.78c2.56,2,4.81,1.64,6.9,0c4.11-7.76,3.89-14.27,0-19.71
					h-33.51c-4.95,5.69-5.22,12.2,0,19.71c2,2,2.63,1.85,5.91,0C155.29,51,158.89,45.83,162.45,38.08z"/>
			</g>
		</g>
		<g id="regulator">
			<g id="Layer_18">
				<rect x="158.15" y="87.4" class="st16" width="4.79" height="73.39"/>
			</g>
			<g id="Layer_19">
				<path class="st17" d="M145.7,159.9c-20.2-2-38.91-5.84-55.19-12.81c-3-2,0-6.9,3-4.93c43.36,15.77,88.88,18.58,135,1
					c5.91-2,5.91,3.94,2,4.93c-17.21,7-36.2,11-57.16,11.83C162.27,160.63,152.34,160.92,145.7,159.9z"/>
			</g>
			<g id="Layer_20">
				<circle class="st18" cx="160.48" cy="155.97" r="12.81"/>
			</g>
			<g id="Layer_21">
				<circle class="st19" cx="160.48" cy="155.96" r="5.91"/>
			</g>
			<g id="Layer_17">
				<rect x="123.05" y="71.45" class="st20" width="22.34" height="7.98"/>
			</g>
			<g id="Layer_16">
				<rect x="145.38" y="73.04" class="st21" width="6.38" height="4.79"/>
			</g>
			<circle class="st22" cx="161.98" cy="76.64" r="11.33"/>
			<g id="Layer_15">
				
					<ellipse transform="matrix(0.9985 -0.0553 0.0553 0.9985 -4.0719 9.0481)" class="st23" cx="161.46" cy="78.1" rx="5.91" ry="5.91"/>
			</g>
		</g>
		<g id="hands">
			<path id="right_hand" class="st13" d="M286.89,87.87c-6.06-5.12-10.18-10-11.78-14.73c-0.94-4.85-1.28-9.8-1-14.73
				c1.35-2.19,2.22-1.5,2.95,0c0.68,1,1.33,2,2,3l2,2V47.43c0-27.35,8.21-22.79,6.38,0v8.48l2-8.06c3-35.33,9.07-31.51,7.05,0
				c-0.76,3.21-0.12,4.91,1,6c1.9-1.41,3.01-3.64,3-6c2.33-29.42,8.73-19.9,6,0v7.61c2.05,0,3.43-1.78,3.93-5.89
				c2.87-18.68,4.56-12.94,5.89,0c2.15,12.05,1.81,24.41-1,36.33C311.07,95,300.73,94.26,286.89,87.87z"/>
			<path id="left_hand" class="st13" d="M35.79,87.87c6.06-5.12,10.18-10,11.78-14.73c0.94-4.85,1.28-9.8,1-14.73
				c-1.35-2.19-2.22-1.5-2.95,0c-0.68,1-1.33,2-2,3l-2,2V47.43c0-27.35-8.21-22.79-6.38,0v8.48l-2-8.06c-3-35.33-9.07-31.51-7,0
				c0.76,3.21,0.12,4.91-1,6c-1.9-1.41-3.01-3.64-3-6c-2.33-29.42-8.73-19.9-6.05,0v7.61c-2,0-3.43-1.78-3.93-5.89
				c-2.87-18.68-4.56-12.94-5.89,0c-2.15,12.05-1.81,24.41,1,36.33C11.61,95,22,94.26,35.79,87.87z"/>
		</g>
	</g>
</g>
</svg>
