<?xml version="1.0" encoding="utf-8"?>
<!-- Generator: Adobe Illustrator 23.0.0, SVG Export Plug-In . SVG Version: 6.00 Build 0)  -->
<svg version="1.1" xmlns="http://www.w3.org/2000/svg" xmlns:xlink="http://www.w3.org/1999/xlink" x="0px" y="0px"
	 viewBox="0 0 1366 768" style="enable-background:new 0 0 1366 768;" xml:space="preserve">
<style type="text/css">
	.Drop_x0020_Shadow{fill:none;}
	.Outer_x0020_Glow_x0020_5_x0020_pt{fill:none;}
	.Blue_x0020_Neon{fill:none;stroke:#8AACDA;stroke-width:7;stroke-linecap:round;stroke-linejoin:round;}
	.Chrome_x0020_Highlight{fill:url(#SVGID_1_);stroke:#FFFFFF;stroke-width:0.3629;stroke-miterlimit:1;}
	.Jive_GS{fill:#FFDD00;}
	.Alyssa_GS{fill:#A6D0E4;}
	.st0{display:none;}
	.st1{fill:#7E7F83;}
	.st2{fill:#B1B2B4;}
	.st3{fill:#2D3338;}
	.st4{fill:#5A595A;}
	.st5{fill:#6E6C74;}
	.st6{fill:#929397;}
	.st7{fill:#2C3336;}
	.st8{fill:#2B3538;}
	.st9{fill:#2A363B;}
	.st10{fill:#2B3135;}
	.st11{fill:url(#SVGID_2_);}
	.st12{fill:#31373E;}
	.st13{fill:#606362;}
	.st14{fill:#DBB788;}
	.st15{fill:#171D24;}
	.st16{fill:#F9F9F8;}
	.st17{fill:#151A1F;}
	.st18{fill:#12181D;}
	.st19{fill:#7F8287;}
	.st20{fill:#707072;}
	.st21{fill:#58585A;}
	.st22{fill:#414143;}
	.st23{fill:#6D6E72;}
	.st24{fill:#5A595E;}
</style>
<linearGradient id="SVGID_1_" gradientUnits="userSpaceOnUse" x1="0" y1="0" x2="6.123234e-17" y2="-1">
	<stop  offset="0" style="stop-color:#656565"/>
	<stop  offset="0.618" style="stop-color:#1B1B1B"/>
	<stop  offset="0.6292" style="stop-color:#545454"/>
	<stop  offset="0.9831" style="stop-color:#3E3E3E"/>
</linearGradient>
<g id="Layer_1" class="st0">
	
		<image style="display:inline;overflow:visible;" width="740" height="766" xlink:href="Screen Shot 2018-10-28 at 11.19.39 AM.png"  transform="matrix(0.7794 0 0 0.7794 247 75)">
	</image>
</g>
<g id="scuba_tank_bottom_left">
	<path class="st1" d="M481.51,268.78c4.49-28.67-28.95-51.87-46.11-26.76l-44.52,76.19c-11.98,15.67-15.5,36.4,2.15,48.61
		c17.8,8.42,32.9,6.67,42.99-13.91L481.51,268.78z"/>
	<circle class="st2" cx="409.39" cy="344.13" r="27.5"/>
	<circle class="st3" cx="401.24" cy="353.22" r="13.5"/>
	<circle class="st4" cx="401.55" cy="354.77" r="11"/>
	<circle class="st5" cx="396.5" cy="363.22" r="10"/>
</g>
<g id="scuba_tank_top_left">
	<g id="Layer_2">
		<path class="st6" d="M421,295c-1,29,35,48,49,21l35-81c10-17,11-38-8-48c-18.68-6.21-33.46-2.65-41,19L421,295z"/>
	</g>
	<g id="Layer_3">
		<circle class="st2" cx="483.5" cy="211.5" r="27.5"/>
	</g>
	<g id="Layer_4">
		<circle class="st3" cx="490.5" cy="201.5" r="13.5"/>
	</g>
	<g id="Layer_5">
		<circle class="st4" cx="490" cy="200" r="11"/>
	</g>
	<g id="Layer_6">
		<circle class="st5" cx="494" cy="191" r="10"/>
	</g>
</g>
<g id="scuba_tank_bottom_right">
	<path class="st1" d="M614.83,246.78c-23.19-17.45-59.39,1.16-45.3,28.11l46.3,75.12c8.2,17.94,24.83,30.8,43.91,20.96
		c15.8-11.75,21.36-25.9,7.94-44.49L614.83,246.78z"/>
	<circle class="st2" cx="647.41" cy="345.86" r="27.5"/>
	<circle class="st3" cx="651.59" cy="357.33" r="13.5"/>
	<circle class="st4" cx="653.1" cy="357.78" r="11"/>
	<circle class="st5" cx="658.18" cy="366.22" r="10"/>
</g>
<g id="scuba_tank_top_right">
	<path class="st6" d="M581.66,315.47c19.81,21.2,58.7,9.15,49.48-19.83l-32.59-82c-4.96-19.09-19.12-34.63-39.62-28.26
		c-17.6,8.83-25.52,21.8-15.53,42.44L581.66,315.47z"/>
	<circle class="st2" cx="566.73" cy="212.24" r="27.5"/>
	<circle class="st3" cx="564.6" cy="200.22" r="13.5"/>
	<circle class="st4" cx="563.19" cy="199.51" r="11"/>
	<circle class="st5" cx="559.65" cy="190.32" r="10"/>
</g>
<g id="oxygen_lines">
	<path class="st7" d="M406,358c0-2.06,0-4.07,0-6c13.67,4.22,27.33,7.56,41,10l-3,5C430.65,365.41,417.96,362.46,406,358z"/>
	<path class="st8" d="M608,366l-2-6c6,1.65,12,1.65,18,0c8.07-4.24,16.82-6.32,26-7l1,5c-8.41,1.12-15.13,3.7-21,7
		C621.94,367.06,614.55,367.53,608,366z"/>
	<path class="st9" d="M424,238l4-1c-0.24-23.28,8.01-36.6,29-35l28-1l1-6c-26.03-1.67-43.15-0.04-51,5
		C421.48,210.36,420.51,223.66,424,238z"/>
	<path class="st10" d="M568,201v-4c20.64-2.57,38.78-3.22,48,3c13.91,8.42,18.18,21.12,13,38l-6-1c4.33-21.5-5-34-24-35L568,201z"/>
</g>
<g id="body">
	<linearGradient id="SVGID_2_" gradientUnits="userSpaceOnUse" x1="526.8635" y1="429.8568" x2="526.8635" y2="222.9674">
		<stop  offset="0" style="stop-color:#2C3339"/>
		<stop  offset="0.3069" style="stop-color:#292F35"/>
		<stop  offset="0.6136" style="stop-color:#1F2429"/>
		<stop  offset="0.6688" style="stop-color:#1D2126"/>
	</linearGradient>
	<path class="st11" d="M428,395c16.99-25,28.9-50.3,34-76l2-22c-2.1-3.97-5.65-6.01-10-7c-6.45-0.67-12.44,0.02-18,2l-43,13
		c-7.92,0.95-14.87-0.89-20-8c-4.79-7.35-8.56-14.46-10-21c-1.97-9.56-0.77-16.81,6-20c23.79-9.52,46.56-17.05,67-20l38-9
		c7.06-3.05,14.83-4.08,23-4h60c7.4-0.29,16.42,1.4,27,5l56,12c18.38,5.16,34.7,10.7,47,17c5.92,6.61,6.3,15.45,0,27
		c-8.67,19.25-20.03,25.14-34,18l-38-11c-6.87-1.6-13.26-2.32-18,0l-8,6c4.5,34.75,11.77,60.99,23,75l12,21c5,31-20,44-41,33l-43-56
		c-11-11-16-10-29,0l-38,54C447,437,427,425,428,395z"/>
</g>
<g id="vest">
	<path class="st12" d="M462.78,295.11c6.22-26.34,11.11-51.25,12.22-72.11c7.33-3.31,14.67-3.64,22-1c2.82,42.49-7.66,66.35-24,82
		h-9.64l0.64-7L462.78,295.11z"/>
	<path class="st12" d="M590.46,295.11c-6.22-26.34-11.11-51.25-12.22-72.11c-7.33-3.31-14.67-3.64-22-1
		c-2.82,42.49,7.66,66.35,24,82h9.64l-0.64-7L590.46,295.11z"/>
	<path id="belt" class="st13" d="M462.1,317.95l1.19-13.07C506.05,309.73,548.34,310,590,304l2.25,13.95
		C550.81,321.77,507.26,321.43,462.1,317.95z"/>
</g>
<g id="head">
	<path class="st14" d="M500,197c9-27.02,43-29.63,53,0c3.62,26.47-0.28,47.3-15,60c-7.68,7.74-15.35,8.43-23,0
		C503.1,247.29,497.74,227.82,500,197z"/>
	<g id="mask">
		<path class="st15" d="M553.91,205.42c0.73,9.47-0.09,19.25-2.19,29.3c-2.38-0.98-4.91-1.14-7.72,0.29c-3.99,2.97-7.99,2.29-12,0
			c-3.77,4.22-7.79,3.78-12,0c-3.43,3.06-7.13,2.71-11,0c-2.36-1.74-4.69-1.81-7-0.84c-2.04-8.23-2.72-17.96-2.44-28.74
			c1.57,1.37,4.57,0.22,8.44-2.42c13.37-11.03,25.97-9.92,38,0C548.89,205.37,551.54,206.25,553.91,205.42z"/>
		<path class="st16" d="M527,214c1.62,5.86,4.96,10.86,10,15c2.6,2.08,4.88,1.66,7,0c4.17-7.87,3.95-14.48,0-20h-34
			c-5.02,5.77-5.3,12.38,0,20c2,2,2.67,1.88,6,0C519.73,227.09,523.39,221.86,527,214z"/>
	</g>
</g>
<g id="regulator">
	<g id="Layer_18">
		<rect x="523" y="264" class="st17" width="5" height="74"/>
	</g>
	<g id="Layer_19">
		<path class="st18" d="M510,338c-20.5-2-39.48-5.93-56-13c-3-2,0-7,3-5c44,16,90.19,18.85,137,1c6-2,6,4,2,5
			c-17.46,7.09-36.73,11.18-58,12C526.82,338.74,516.74,339.03,510,338z"/>
	</g>
	<g id="Layer_20">
		<circle class="st19" cx="525" cy="334" r="13"/>
	</g>
	<g id="Layer_21">
		<circle class="st20" cx="525" cy="334" r="6"/>
	</g>
	<g id="Layer_17">
		<rect x="488" y="249" class="st21" width="22" height="8"/>
	</g>
	<g id="Layer_16">
		<rect x="510" y="250" class="st22" width="6" height="5"/>
	</g>
	<circle class="st23" cx="526.5" cy="253.5" r="11.5"/>
	<g id="Layer_15">
		<circle class="st24" cx="526" cy="255" r="6"/>
	</g>
</g>
<g id="hands">
	<path id="right_hand" class="st14" d="M653,265c-6.17-5.21-10.37-10.23-12-15c-0.94-5.21-1.33-10.23-1-15c1.38-2.23,2.26-1.53,3,0
		c0.69,1.04,1.35,2.03,2,3l2,2v-15c0-30,9-25,7,0v7l2-8c3-35.06,9-31.27,7,0c-0.75,3.19-0.12,4.87,1,6c1.68-1.24,2.85-3.05,3-6
		c2.31-29.2,8.66-19.75,6,0v8c2.09,0.02,3.49-1.81,4-6c2.92-19.03,4.64-13.18,6,0c2.24,12.45,1.8,24.78-1,37
		C677.63,272.25,667.1,271.51,653,265z"/>
	<path id="left_hand" class="st14" d="M399,265c6.17-5.21,10.37-10.23,12-15c0.94-5.21,1.33-10.23,1-15c-1.38-2.23-2.26-1.53-3,0
		c-0.69,1.04-1.35,2.03-2,3l-2,2v-15c0-30-9-25-7,0v7l-2-8c-3-35.06-9-31.27-7,0c0.75,3.19,0.12,4.87-1,6c-1.68-1.24-2.85-3.05-3-6
		c-2.31-29.2-8.66-19.75-6,0v8c-2.09,0.02-3.49-1.81-4-6c-2.92-19.03-4.64-13.18-6,0c-2.24,12.45-1.8,24.78,1,37
		C374.37,272.25,384.9,271.51,399,265z"/>
</g>
</svg>
