<?xml version="1.0" encoding="utf-8"?>
<!-- Generator: Adobe Illustrator 23.0.0, SVG Export Plug-In . SVG Version: 6.00 Build 0)  -->
<svg version="1.1" id="Layer_1" xmlns="http://www.w3.org/2000/svg" xmlns:xlink="http://www.w3.org/1999/xlink" x="0px" y="0px"
	 viewBox="0 0 105.33 751.39" style="enable-background:new 0 0 105.33 751.39;" xml:space="preserve">
<style type="text/css">
	.st0{fill:url(#SVGID_1_);}
	.st1{fill:url(#SVGID_2_);}
	.st2{fill:#333C53;}
	.st3{fill:#212529;}
	.st4{fill:url(#neck-2_1_);}
	.st5{fill:url(#SVGID_3_);}
	.st6{fill:#2C2F33;}
	.st7{fill:#242527;}
	.st8{fill:none;}
	.st9{fill:#F1BA40;}
	.st10{fill:url(#SVGID_4_);}
	.st11{fill:#CD9C67;}
	.st12{fill:#B2B0AF;}
	.st13{fill:#FFFFFF;}
	.st14{fill:#34384D;}
	.st15{fill:#F6CE46;}
</style>
<title>freediver</title>
<g id="free_diver">
	<g>
		<g id="Layer_4">
			
				<linearGradient id="SVGID_1_" gradientUnits="userSpaceOnUse" x1="-324.335" y1="10969.6396" x2="-324.335" y2="11105.0195" gradientTransform="matrix(1 0 0 -1 377 11360)">
				<stop  offset="0" style="stop-color:#333C53"/>
				<stop  offset="0.05" style="stop-color:#2F384F"/>
				<stop  offset="0.28" style="stop-color:#21283C"/>
				<stop  offset="0.45" style="stop-color:#1C2236"/>
				<stop  offset="0.65" style="stop-color:#20273B"/>
				<stop  offset="0.79" style="stop-color:#2B3348"/>
				<stop  offset="0.93" style="stop-color:#323B51"/>
			</linearGradient>
			<path class="st0" d="M24.49,367l2.35-31.73L28,309.36c-1.83-3.3-2.76-10.13-3.53-17.63l-5.88-30.56
				c7.24-3.85,15.31-5.87,23.51-5.88h27c6.83-0.79,12.76-0.09,17.63,2.35l-2.35,27l1.18,18.8c-5.88,10.58-1.18,35.26,1.18,63.47
				c-4.1,5.65-12.2,12.67-21.16,20c-7.19,4.49-14.62,4.71-22.33,0C36.35,380.92,30.06,374.25,24.49,367z"/>
		</g>
		<g id="left_arm">
			<g id="right_arm">
				
					<linearGradient id="SVGID_2_" gradientUnits="userSpaceOnUse" x1="-375.2331" y1="11034.8203" x2="-308.63" y2="11034.8203" gradientTransform="matrix(1 0 0 -1 377 11360)">
					<stop  offset="0" style="stop-color:#333C53"/>
					<stop  offset="1" style="stop-color:#1C2236"/>
				</linearGradient>
				<path class="st1" d="M2.42,314.46c-2.22,11.55,1.22,19.04,10.32,22.48c15.46-1.32,34.87-4.38,55.63-8.06l-20.31-6.76
					c-4.24-1.31-8.59-2.25-13-2.82L4.5,313.42L2.42,314.46z"/>
			</g>
			<path class="st2" d="M8,278.18c-0.19-6.84,2.76-12.53,10.58-16.45c5.11-2.77,10.69-4.57,16.45-5.32L24,289.84
				c1.42,5.58,2.2,10.54,1.65,14.21c-9,0-16.3,1.76-22.33,4.7C4.73,296.44,6.2,285,8,278.18z"/>
			<g id="right_hand">
				<path class="st3" d="M36.21,304.52C21.12,302.76,10,305.17,1,309.91c-2.35,2.35-0.28,5,3.53,4.7c-4.7,3.53-4.94,6.43,1.18,5.88
					c-4.7,2.35-4.6,5.22,0,4.7c-2.84,4.5-1.07,5.28,2.35,4.7c8.76-4.12,17.78-7.65,27-10.58L36.21,304.52z"/>
			</g>
		</g>
		<g id="right_arm-2">
			<path class="st2" d="M35.07,319.31c10.25,1,30.32,8.29,51.71,16.45c9.24,3.11,15.49,0.68,17.63-9.4
				c1.56-11.74,1.16-23.65-1.18-35.26c-1.72-3.2-2.2-9.43-2.35-16.45c-1.28-11.47-9.11-18.3-25.86-18.8l9.4,29.38
				c0.82,10,1.47,17.18,2.35,20C73,304,55.64,303.75,36.23,304L35.07,319.31z"/>
		</g>
		<g id="neck">
			
				<radialGradient id="neck-2_1_" cx="-321.945" cy="11102.6104" r="12.4031" gradientTransform="matrix(1 0 0 -1 377 11360)" gradientUnits="userSpaceOnUse">
				<stop  offset="0" style="stop-color:#20273B"/>
				<stop  offset="0.41" style="stop-color:#232A3F"/>
				<stop  offset="0.8" style="stop-color:#2C344A"/>
				<stop  offset="1" style="stop-color:#333C53"/>
			</radialGradient>
			<path id="neck-2" class="st4" d="M39.77,255.85c3.13-1.18,4.07-3.67,3.53-7c6.72,7.43,14.56,7.43,23.51,0
				c-0.52,2.71,0.69,5,3.53,7C60.92,268.78,48,270,39.77,255.85z"/>
		</g>
		<g id="legs">
			
				<linearGradient id="SVGID_3_" gradientUnits="userSpaceOnUse" x1="-322.29" y1="10829.3799" x2="-322.29" y2="11026.3701" gradientTransform="matrix(1 0 0 -1 377 11360)">
				<stop  offset="0" style="stop-color:#333C53"/>
				<stop  offset="0.06" style="stop-color:#2F384F"/>
				<stop  offset="0.35" style="stop-color:#21283C"/>
				<stop  offset="0.57" style="stop-color:#1C2236"/>
				<stop  offset="0.76" style="stop-color:#323B51"/>
				<stop  offset="0.86" style="stop-color:#20273B"/>
			</linearGradient>
			<path class="st5" d="M23.74,366.35c-5.49,29.35-5.19,63.92,0,102.91l5.9,61.36h16.5L45,475.16l1.18-11.8l4.72-47.2
				c2.6,1.31,5.66,1.31,8.26,0l4.72,62.54v51.92h15.3l5.9-50.74L86.26,461c1.18-24.78,7.08-51.92,0-94.4L23.74,366.35z"/>
		</g>
		<g id="post">
			<path class="st6" d="M52.12,530.62H58V419c-2-2-3.9-2-5.86,0L52.12,530.62z"/>
		</g>
		<g id="bottom_bell">
			<path class="st7" d="M38.59,391L21,369.85c-0.39-2.59,1-3.13,3.53-2.35c26.88,31.76,32.77,31.76,62.29,0c4.8,0,6.26,1.6,4.7,4.7
				L68,391C72.67,421.56,42.12,436.84,38.59,391z"/>
			<path class="st8" d="M68,391c-6.1,12.34-17.88,5.71-29.38,0"/>
			<path class="st9" d="M24.79,545v-10c-0.33-5.58,3.62-8,10.54-8.23h39.83c5.38-0.19,8.94,1.1,8.2,5.88v11.7h3.91v48.82h-5.19
				l-8.23,149.26c-0.08,6.7-3.23,9.28-8.23,8.85H44.46c-5.56,0.72-8.38-2-8.23-7.67L28,594.35c-5.16,0.94-7.62-0.91-7.13-5.88
				v-38.78C20.46,547.09,24.79,545,24.79,545z"/>
		</g>
		<g id="head">
			
				<linearGradient id="SVGID_4_" gradientUnits="userSpaceOnUse" x1="-342.45" y1="11138.9971" x2="-300.6811" y2="11138.9971" gradientTransform="matrix(1 0 0 -1 377 11360)">
				<stop  offset="0" style="stop-color:#333C53"/>
				<stop  offset="0.05" style="stop-color:#2F384F"/>
				<stop  offset="0.28" style="stop-color:#21283C"/>
				<stop  offset="0.45" style="stop-color:#1C2236"/>
				<stop  offset="0.65" style="stop-color:#20273B"/>
				<stop  offset="0.79" style="stop-color:#2B3348"/>
				<stop  offset="0.93" style="stop-color:#323B51"/>
			</linearGradient>
			<path class="st10" d="M44,249.16c-5.19-3.83-8.94-9.19-9.45-18v-25.85c7.05-24.68,35.26-22.33,41.14,0c1,8,0.66,17.35,0,27
				c-1.63,7.4-4.41,13-8.29,16.82c-8.43,6.55-16.3,7.32-23.4,0"/>
		</g>
		<g id="face">
			<path class="st11" d="M54.46,248.21c7.51-3.13,13.22-7.12,15.28-12.93c2.43-5.51,2.12-12.68,0.59-20.57
				c-1.72-5-4.65-9-10.58-10.58c-4.28-0.68-8.65-0.68-12.93,0c-5.42,0.6-8.74,4.43-10.58,10.58c-0.38,7-0.25,13.56,1.18,18.8
				C38.66,240.51,44.2,245.47,54.46,248.21z"/>
		</g>
		<g id="goggles">
			<g id="goggle">
				<path class="st12" d="M32.6,227.72c13.93,2.6,28.11,2.35,43-4.77v-8.35c-15.11,11.89-29.57,10.32-43,7.16V228"/>
			</g>
			<g id="lens">
				<circle class="st13" cx="45.64" cy="226.47" r="3.53"/>
				<circle class="st13" cx="60.92" cy="225.29" r="3.53"/>
			</g>
		</g>
		<g id="nose_plug">
			<path class="st14" d="M48,232.34c-2.35,16,15.28,13.7,11.75,0c0-2.35-3.53-3.53-3.72,0v5.88c0.19,2.35-4.51,3.53-3.91,0v-5.88
				C51.52,230,48,230,48,232.34z"/>
		</g>
		<g id="top_bell">
			<path class="st15" d="M104.85,272.87H75.56L75,211.19c-0.62-30-42.93-32.34-41.76,0.88l1.18,60.8H7.22V49.56
				c5.88-62.29,84.69-69.34,97.63-1.18V272.87z"/>
		</g>
	</g>
</g>
</svg>
