<?xml version="1.0" encoding="utf-8"?>
<!-- Generator: Adobe Illustrator 23.0.0, SVG Export Plug-In . SVG Version: 6.00 Build 0)  -->
<svg version="1.1" id="Layer_1" xmlns="http://www.w3.org/2000/svg" xmlns:xlink="http://www.w3.org/1999/xlink" x="0px" y="0px"
	 viewBox="0 0 1366 768" style="enable-background:new 0 0 1366 768;" xml:space="preserve">
<style type="text/css">
	.st0{display:none;}
	.st1{fill:#282F35;}
	.st2{fill:#13191E;}
	.st3{fill:#141A1F;}
	.st4{fill:#454B65;}
	.st5{fill:#2B3245;}
	.st6{fill:#353E55;}
	.st7{fill:#D6B181;}
	.st8{fill:url(#SVGID_1_);}
	.st9{fill:url(#SVGID_2_);}
	.st10{fill:url(#SVGID_3_);}
	.st11{fill:#515151;}
	.st12{fill:url(#SVGID_4_);}
	.st13{fill:url(#SVGID_5_);}
	.st14{fill:#9D9FA5;}
	.st15{fill:#2D333A;}
	.st16{fill:#377987;}
	.st17{fill:#FEFCFE;}
	.st18{fill:#FDFEFE;}
	.st19{fill:#D7AF7E;}
</style>
<g class="st0">
	
		<image style="display:inline;overflow:visible;enable-background:new    ;" width="1176" height="726" xlink:href="Screen Shot 2018-10-23 at 2.51.29 PM.png"  transform="matrix(0.8221 0 0 0.8221 186 82)">
	</image>
</g>
<g id="fins">
	<path id="right_fin" class="st1" d="M294,542c28.8-11.8,57-22,84-28c18.7-3.4,36.5-9.8,53-20c15-9.9,26.6-10.6,34,0
		c0.9,1.5,1.3,3.1,1,5c-2.1,8.3-3.8,15.3-5,20c-8.1-1.3-15.5,0-22,4c-21,18.7-44.1,32.3-70,39c-19.6,8-35.9,14.7-44,18
		c-2.9,1-6.1,0.6-10-3l-20-24C289.2,548.8,289.5,545.2,294,542z"/>
	<g id="stripes">
		<path class="st2" d="M303,562l4,5c9.4-6.4,31.7-13.7,56-21c15.4-4.1,29.5-10.1,42-18l27-15c-12.2,2.6-23.7,5.8-32,12
			c-11.8,7.3-26.1,12.8-42,17C333.8,548.6,315.3,555.3,303,562z"/>
		<path class="st3" d="M309,569l3,4c12.7-5.3,29.1-11.1,47-17c14.5-5.2,27.5-10.7,37-17c10-5.2,19.1-9.9,27-14
			c-18.1,6.3-34.3,12.8-46,20c-13.1,6.5-28.4,11.3-45,15C322.8,562.2,314.5,564.9,309,569z"/>
	</g>
	<path id="fin" class="st1" d="M362,595c39.8-26.9,76.5-52.7,102-74c2.3-1.2,4.6-1.4,7,0l50,9c-6.3,1.8-11,4.5-14,8
		c-17.6-0.8-30.3,0.4-37,4l-51,30l-39,24C373.1,596.3,366.9,596.1,362,595z"/>
</g>
<g id="right_leg">
	<path class="st4" d="M466,499c46-3,44-5,71,5l17-17c4.5-3.3,7.7-9,10-16c7.6-15.7,16.3-29.6,29-37c6.3-5.4,14.5-7.5,24-7l33,37
		c-21.8,10.4-41.9,25.2-61,43l-27,21c-2.6,2.4-8.7,2.6-16,2h-25c-24.1-4.6-54.6-10.5-60-11L466,499z"/>
</g>
<g id="left_leg">
	<path class="st5" d="M507,538c2.8-3.3,7.3-6,14-8h25c6.7,0.7,11.8,0.3,15.1-1.3L589,507c9.8-9,19.6-17.3,29.6-24.3l13.1-8.7
		c4.8-3.1,10.9-6.5,18.3-10l8,9c-11,5-22,12-28,23l-17,22l-12,14c-24,24-27,27-52,18L507,538z"/>
	<g id="stripe">
		<path class="st6" d="M464,507.1l2-8.1l69,8c5.8,1.6,11-3,16-10c10.4-10.4,20.7-24.2,31-39c2.2-6.9,10.8-13.9,23-21l10-5l12,17
			l-73,64c-3.1,4.8-9.9,5.3-19,3L464,507.1z"/>
	</g>
</g>
<g id="Layer_13">
	<path class="st7" d="M716.8,354.8c13,8.8,22.2,10.5,28.2,6.2c8-13.3,15.1-27,8-46c-6.1-12.5-18.6-14.2-36-8
		c-9.8,4.8-15.6,10.4-15.9,17.1C698.1,341.7,705.5,350,716.8,354.8z"/>
	<g id="Layer_14">
		
			<linearGradient id="SVGID_1_" gradientUnits="userSpaceOnUse" x1="719.2791" y1="401.6854" x2="723.9614" y2="409.7955" gradientTransform="matrix(1 0 0 -1 0 768)">
			<stop  offset="6.870000e-02" style="stop-color:#D6B181"/>
			<stop  offset="0.2841" style="stop-color:#D3AC7D"/>
			<stop  offset="0.5362" style="stop-color:#C99E70"/>
			<stop  offset="0.7398" style="stop-color:#BE8D60"/>
		</linearGradient>
		<path class="st8" d="M724.2,368.8c1-2.7,2.9-5,6.4-6.8c-4.1-1.3-8.7-3.8-13.6-7c0.7,2.5,1,4.8,1,7
			C719.9,366,721.9,368.5,724.2,368.8z"/>
	</g>
</g>
<g id="Layer_15">
	
		<linearGradient id="SVGID_2_" gradientUnits="userSpaceOnUse" x1="727.6971" y1="437.1522" x2="705.4022" y2="475.7682" gradientTransform="matrix(1 0 0 -1 0 768)">
		<stop  offset="9.760001e-02" style="stop-color:#754C24"/>
		<stop  offset="0.7116" style="stop-color:#BE8D60"/>
		<stop  offset="0.835" style="stop-color:#C09264"/>
		<stop  offset="0.9478" style="stop-color:#C69C6D"/>
	</linearGradient>
	<path class="st9" d="M700.8,336.4c3,0.6,5.7,1.5,8.2,2.6c-2.7-2.1-3-6.4-3-11c2.2-6.8,5.8-10.6,11-11c7.2-0.2,13.7-3.1,20-7
		c7,3.2,15.2,7.3,16.4,6c4.7-3.8,6.7-8.7,5.6-15c-6.2-6.9-12.3-13.7-16-14c-3.3,0.1-6.7,0.8-10,2c-2.7,0.8-5.1,0.2-7-2
		c0,1.4,1,2.7,3,4c4.1-0.5,8.5-0.3,13,0c2.9,0,4.5,0.9,2,4c-0.7,2.7,2.6,4.4,6,6l-5,2c-2.1-0.9-2.1-2.3,0-4c-1.5-1.4-2.8-1-4,2
		c0-3.6-0.8-6.6-3-8c-1.8,0.8-3.5,1.6-4,0c-0.7,1.2-0.5,2.2,3,3c2.2-0.2,1.6,2.4,1,5c-1.9-2.4-4.1-4.4-7-5c-2.7-0.3-4.3-1.6-5-4
		c0,0-1.6-5.8-3-6c-1.7-0.2-2.5-4.4-2-5c-1.6-0.6-2.2,1.3-2,5c0.9,2.6,1.8,4.8,3,6c1.4,1.2,2.9,2.3,2,4c-0.5,1.5,0.3,2.5,2,3l-3-1
		c-2-0.8-3.9-1.6-5-3c-0.8-0.9-1-2.3-1-4l-1,3c-0.4,1.3-0.4,2.6,0,4c0.4,0.9,1.5,1.5,3,2c0.7,0.3,1,1.1,1,2l-3,1
		c-2.6,0.9-4.4,0.8-5-1c-0.6-2.1-1.4-4-3-5l-5-2c-1.2,0.3-2.3,0.5-3,0c-1.1-0.9-3-1.5-5-2c0.6,1.6,1.2,3.3,2,4c1.5,1,3.6,1.5,6,2
		c2.1,0.7,3.1,1.8,4,3c0.7,1,0.6,2.3,0,4c1,1,3.1,1.3,6,1l-5,2c-2.9,0.9-5.5,1-7-1c-1.2-1-2.8-1.6-5-2h-5c-1.5,0.1-2.4,0.5-3,1
		c3.6-0.3,5.9,0.4,7,2l2,3c0.9,1,3.4,1,6,1c0,0-1.9-0.4-2,1c-0.1,1.8-4.2,1.7-5,1c-1.1-0.2-2.5,0.2-4,1c-5.5,2.9-3.9,3.2-1,3
		c3.2-1.4,5.5-1.8,7-1c1.5,0.8,3.3,0.4,5,0l-5,4l-5,3c-1.2,1.3-2.9,2.4-6,3c-14.8,2.5-9.2,4,1,2c1.3,0.3,2.7-0.2,4-1
		c1.7-2.3,3-2.4,4-1.4c-5.5,3.8-4.3,4,2.2,1.4c1.2,1.1,0.8,2.1-2.2,3c-1.7-0.2-3.6,0.1-6,1c-7.8,2.2-5.7,2,0,1
		C696.7,332.3,699,334,700.8,336.4z"/>
</g>
<g id="BCD_Vest">
	<g id="Layer_8">
		
			<linearGradient id="SVGID_3_" gradientUnits="userSpaceOnUse" x1="595.708" y1="297" x2="595.708" y2="443.9396" gradientTransform="matrix(1 0 0 -1 0 768)">
			<stop  offset="0.1164" style="stop-color:#333333"/>
			<stop  offset="0.2683" style="stop-color:#686868"/>
			<stop  offset="0.4127" style="stop-color:#939393"/>
			<stop  offset="0.542" style="stop-color:#B2B2B2"/>
			<stop  offset="0.6514" style="stop-color:#C5C5C5"/>
			<stop  offset="0.7278" style="stop-color:#CCCCCC"/>
			<stop  offset="0.8174" style="stop-color:#D0D0D0"/>
			<stop  offset="0.9021" style="stop-color:#DBDBDB"/>
			<stop  offset="0.9846" style="stop-color:#EEEEEE"/>
			<stop  offset="0.9979" style="stop-color:#F2F2F2"/>
		</linearGradient>
		<path class="st10" d="M518,437c11.9,17.3,23.2,30.6,33,34l114-114c3.2-3.9,5.3-9.1,4-18c3.4-2.5,5.3-5.8,4-11h-4c-1-4.6-3.1-5-6-2
			l-7,4c-13.8-8-22.4-3.3-30,4L518,437z"/>
		<path class="st11" d="M656,330l13,9c3.4-2.5,5.3-5.8,4-11h-4c-0.9-3.2-2.2-5.2-4.8-3L656,330"/>
	</g>
	
		<linearGradient id="SVGID_4_" gradientUnits="userSpaceOnUse" x1="620.5026" y1="434.4135" x2="692.6046" y2="348.4857" gradientTransform="matrix(1 0 0 -1 0 768)">
		<stop  offset="0.2952" style="stop-color:#2D323D"/>
		<stop  offset="0.5386" style="stop-color:#000000"/>
		<stop  offset="0.6422" style="stop-color:#121318"/>
		<stop  offset="0.7638" style="stop-color:#21242C"/>
		<stop  offset="0.884" style="stop-color:#2A2F39"/>
		<stop  offset="1" style="stop-color:#2D323D"/>
	</linearGradient>
	<path class="st12" d="M617,427c-1.7-3.3,0-6.7,5-10l-2-2c-1.1-0.3-2.1-0.1-3,1l-21,18l-16-25c-3.3-5.5-3.3-10.6,2-15l31-24l-9-10
		h-5l-1-5l-2-2l9-9l4,3l3-1l1,5l11,11c1.9,1.5,3.6,2,5,0c9-7,21.1-11.6,36-14c4.3,1.1,8,0.1,11-3l2-2l-29-22c-1.8-5.8-0.9-10.2,3-13
		c3.9-1.7,8.3-2.6,14-2c8.6,1.9,16.1,5.4,23,10l24,16l14,9c4.3,3,8,4,11,3l-2,5c-2.7,0.8-6.4-0.3-11-3c-23.5-15.9-46.1-30.8-56-34
		c-5.5-1.5-10.5-1.2-15,1c-0.8,3-0.7,5.6,2,7l7,6l19,15c8-6.2,17.1-6.3,27-2c5.1,6.9,8.5,14.4,9,23c-7-10-16-10.1-26-4
		c-13.1,8-22.7,16.6-28,26c-2.2,11.6-0.8,20.5,5,26l25,37c5.8,8.6,4.1,14-3,17l-18,16c-3.5,2.7-7.2,2.2-11-1l-4.2-6.2L617,427z"/>
</g>
<g id="right_arm">
	
		<linearGradient id="SVGID_5_" gradientUnits="userSpaceOnUse" x1="717.8987" y1="313.7874" x2="794.5587" y2="446.5664" gradientTransform="matrix(1 0 0 -1 0 768)">
		<stop  offset="6.870000e-02" style="stop-color:#2D323D"/>
		<stop  offset="0.1418" style="stop-color:#343A49"/>
		<stop  offset="0.2761" style="stop-color:#3E4359"/>
		<stop  offset="0.4296" style="stop-color:#434962"/>
		<stop  offset="0.6429" style="stop-color:#454B65"/>
		<stop  offset="0.6743" style="stop-color:#4B506A"/>
		<stop  offset="0.792" style="stop-color:#5F607B"/>
		<stop  offset="0.8727" style="stop-color:#666681"/>
	</linearGradient>
	<path class="st13" d="M686.7,436.2L665,404.3c-1.4-6.2-2.8-12.5-1.3-18.9c3.4-7.5,9.8-14.7,19.2-21.4l7.4-5
		c11.2-7.4,20.5-7.2,27.6,3c1.8,4.3,4.3,7.1,8,7c6.2,4,36,3,60,8c4-0.9,8.4-2,13-3l52-20l9,17l-61,33c-7.6,5.3-15.3,7-23,6l-61-5
		c-4.5,1.2-7.7,3.6-9,8C700.5,424.9,693.6,430.4,686.7,436.2z"/>
</g>
<g id="left_arm">
	<path class="st5" d="M707.4,410c2.9-3.4,5.8-5,8.6-4.9l61.9,4.9c2.8,0.3,6.1,0,10.2-0.8L763,427c-7.8,2.3-14.8,2.5-21,0L707.4,410z
		"/>
</g>
<g id="regulator">
	<path class="st14" d="M736.3,348.3l2.7,1.7c-1.6,0.1-2.3,1.5-3,3c6.8,1.6,11.8,0.9,13-5l-4-3c-2.2-1.1-3.5-0.6-4,1l-3.4-1.1
		L736.3,348.3z"/>
	<path class="st15" d="M747,342c4.6-0.2,8,1.1,10,4c1,6.5-0.1,9.4-3,9c3.6,3.4,2.9,6.7-1,10c-7,7-12.2,9.6-19,2
		c-5.8-6.8-6.5-11.9,2-14c6.6,1.8,11.4,0.9,13-5l-3-2.3L747,342z"/>
</g>
<g id="mask_1_">
	<path id="mask" class="st16" d="M724,329c3,0,5-7,1-9l7-4c0.9-0.9,1.7-0.6,2.5,0l16.5,5l11.6,6l-7.6,16.9c-2.3-1.5-4.9-2.1-8-1.9
		l-1,4c-2-2.5-5.2-3.9-10-4c-2.2-0.8-2.5-2.8-1-6C731.4,337.2,727.7,334.7,724,329z"/>
	<path id="right_lense_ceal" d="M734.7,333.8c-3.3-0.2-6.5-1.9-6.7-5.6c-1.5-3.8,1.2-7.9,5.6-12.3l13.4,4.5c1.2,1.3,1.5,2.7,0,4.5
		C742.8,329.5,738.7,332.4,734.7,333.8z"/>
	<path id="right_lense" class="st17" d="M735,333c-3-0.2-5.8-1.7-6-5c-1.3-3.4,1-7,5-11l12,4c1.1,1.1,1.3,2.4,0,4
		C742.2,329.1,738.6,331.7,735,333z"/>
	<path id="left_lense_ceal" d="M751.4,322v17.1c0.1,2.8,1.7,3.7,3.9,3.9c4.2,0,6.9-1.6,7.9-5.2c1.4-3.5,1.4-7,0-10.5L751.4,322z"/>
	<path id="left_lense" class="st18" d="M752,323.4v15.1c0.1,2.5,1.5,3.3,3.5,3.5c3.7,0,6.1-1.4,7-4.7c1.3-3.1,1.3-6.2,0-9.3
		L752,323.4z"/>
	<path class="st15" d="M720,322l5-2c4,2,2.5,6.9-0.8,9.3L720,328C717.9,327.7,717.2,326.3,720,322z"/>
</g>
<g id="hand">
	<path class="st19" d="M851.6,355.2c0.9-4.3,2.9-9,6.4-14.2c0-5,1.2-9.2,5-12c5.9-5.9,8-5.5,6,2c-2.9,2.6-3.8,5.3-3,8
		c1.1,1.5,2.5,1.4,4,0c6.2-4.9,14.1-9.5,23-14c4.4-1.3,7,0,3,4l-19,12c-0.5,2,0.6,2.7,3,2c8.6-4.6,16.8-8.3,24-10
		c6.7-0.5,6.7,1.4,2,5c-7.3,2.7-14.6,5.8-22,9c0.2,2.1,1.2,2.8,3,2l16-6c8-4,9,2,2,4l-17,8c-0.3,1.8,0.4,2.4,2,2l12-2
		c4.5,0.1,4.3,1.6,1,4c-15.5,2.1-30,5.8-43.6,10.8L851.6,355.2z"/>
</g>
</svg>
