<?xml version="1.0" encoding="utf-8"?>
<!-- Generator: Adobe Illustrator 23.0.0, SVG Export Plug-In . SVG Version: 6.00 Build 0)  -->
<svg version="1.1" id="Layer_1" xmlns="http://www.w3.org/2000/svg" xmlns:xlink="http://www.w3.org/1999/xlink" x="0px" y="0px"
	 viewBox="0 0 352.39 179.58" style="enable-background:new 0 0 352.39 179.58;" xml:space="preserve">
<style type="text/css">
	.st0{fill:#282F35;}
	.st1{fill:#13191E;}
	.st2{fill:#141A1F;}
	.st3{fill:#454B65;}
	.st4{fill:#2B3245;}
	.st5{fill:#353E55;}
	.st6{fill:#D6B181;}
	.st7{fill:url(#SVGID_1_);}
	.st8{fill:url(#SVGID_2_);}
	.st9{fill:url(#SVGID_3_);}
	.st10{fill:#515151;}
	.st11{fill:url(#SVGID_4_);}
	.st12{fill:url(#SVGID_5_);}
	.st13{fill:#9D9FA5;}
	.st14{fill:#2D333A;}
	.st15{fill:#377987;}
	.st16{fill:#FEFCFE;}
	.st17{fill:#FDFEFE;}
	.st18{fill:#D7AF7E;}
</style>
<title>scubadiver</title>
<g id="scuba_diver_1">
	<g id="scuba_diver">
		<g id="fins">
			<path id="right_fin" class="st0" d="M1.93,148.76c16.38-6.74,32.46-12.53,47.81-15.94c10.68-1.86,20.92-5.72,30.17-11.38
				c8.52-5.61,15.12-6,19.35,0c0.54,0.84,0.74,1.86,0.57,2.85C98.65,129,97.66,133,97,135.67c-4.32-0.8-8.79,0.03-12.54,2.33
				c-11.95,10.67-25.09,18.41-39.84,22.2l-25,10.25c-1.65,0.55-3.46,0.36-5.69-1.71L2.51,155C-0.81,152.63-0.66,150.58,1.93,148.76z
				"/>
			<g id="stripes">
				<path class="st1" d="M7.05,160.15L9.33,163c5.36-3.66,18.06-7.77,31.87-11.95c8.44-2.18,16.51-5.64,23.91-10.25l15.37-8.54
					c-7,1.46-13.49,3.32-18.21,6.83c-6.72,4.17-14.85,7.27-23.91,9.68C24.6,152.53,14.07,156.32,7.05,160.15z"/>
				<path class="st2" d="M10.47,164.13l1.71,2.28c7.22-3,16.59-6.32,26.75-9.68c8.23-3,15.65-6.11,21.06-9.68l15.37-8
					c-10.33,3.59-19.53,7.31-26.18,11.38c-7.46,3.74-16.18,6.44-25.61,8.57C18.34,160.25,13.63,161.78,10.47,164.13z"/>
			</g>
			<path id="fin" class="st0" d="M40.64,178.93c22.65-15.33,43.51-30,58.06-42.12c1.23-0.74,2.77-0.74,4,0l28.46,5.12
				c-3.59,1-6.26,2.54-8,4.55c-10-0.44-17.24,0.23-21.06,2.28l-29,17.08L50.88,179.5C47.46,179.76,44.01,179.57,40.64,178.93z"/>
		</g>
		<g id="right_leg">
			<path class="st3" d="M99.83,124.21c26.18-1.71,25-2.85,40.41,2.85l9.68-9.68c2.56-1.9,4.37-5.09,5.69-9.11
				c4.32-8.92,9.27-16.84,16.51-21.06c3.6-3,8.22-4.26,13.66-4l18.78,21.06c-12.4,5.93-23.87,14.36-34.72,24.47l-15.37,12
				c-1.48,1.39-4.93,1.5-9.11,1.14h-14.23c-13.72-2.6-31.08-6-34.15-6.26L99.83,124.21z"/>
		</g>
		<g id="left_leg">
			<path class="st4" d="M123.17,146.41c1.57-1.89,4.17-3.43,8-4.55h14.23c3.83,0.42,6.72,0.19,8.61-0.77l15.87-12.32
				c5.31-4.98,10.93-9.6,16.84-13.85l7.44-4.93c3.35-2.11,6.84-4.01,10.43-5.69l4.55,5.12c-6.26,2.85-12.52,6.83-15.94,13.09
				L183.49,135l-6.83,8c-13.66,13.66-15.37,15.37-29.6,10.25L123.17,146.41z"/>
			<g id="stripe">
				<path class="st5" d="M98.69,128.87l1.14-4.59l39.27,4.55c3.3,0.92,6.27-1.68,9.11-5.69c5.9-5.9,11.78-13.75,17.64-22.2
					C167.12,97,172,93,178.94,89l5.69-2.85l6.83,9.68l-41.55,36.43c-1.77,2.71-5.61,3-10.81,1.71L98.69,128.87z"/>
			</g>
		</g>
		<g id="Layer_13">
			<path class="st6" d="M242.6,42.21c7.39,5,12.61,6,16,3.53c4.52-7.58,8.58-15.34,4.55-26.18c-3.45-7.13-10.61-8.1-20.49-4.55
				c-5.56,2.74-8.86,5.93-9.06,9.71C231.94,34.74,236.13,39.5,242.6,42.21z"/>
			<g id="Layer_14">
				
					<linearGradient id="SVGID_1_" gradientUnits="userSpaceOnUse" x1="-133.0113" y1="10739.2412" x2="-130.3416" y2="10743.8496" gradientTransform="matrix(1 0 0 -1 377 10788)">
					<stop  offset="0.07" style="stop-color:#D6B181"/>
					<stop  offset="0.28" style="stop-color:#D3AC7D"/>
					<stop  offset="0.54" style="stop-color:#C99E70"/>
					<stop  offset="0.74" style="stop-color:#BE8D60"/>
				</linearGradient>
				<path class="st7" d="M246.78,50.18c0.66-1.71,1.97-3.1,3.64-3.86c-2.73-1-5.33-2.34-7.72-4c0.39,1.3,0.58,2.65,0.57,4
					C244.33,48.57,245.49,50,246.78,50.18z"/>
			</g>
		</g>
		<g id="Layer_15">
			
				<linearGradient id="SVGID_2_" gradientUnits="userSpaceOnUse" x1="-128.2425" y1="10759.5703" x2="-140.9325" y2="10781.5508" gradientTransform="matrix(1 0 0 -1 377 10788)">
				<stop  offset="0.1" style="stop-color:#754C24"/>
				<stop  offset="0.71" style="stop-color:#BE8D60"/>
				<stop  offset="0.83" style="stop-color:#C09264"/>
				<stop  offset="0.95" style="stop-color:#C69C6D"/>
			</linearGradient>
			<path class="st8" d="M233.48,31.61c1.6,0.31,3.17,0.8,4.66,1.46c-1.55-1.18-1.72-3.63-1.71-6.26c1.22-3.87,3.28-6,6.26-6.26
				c4.07-0.11,7.79-1.76,11.38-4c4,1.85,8.62,4.17,9.31,3.42c2.64-1.98,3.89-5.31,3.21-8.54c-3.5-3.94-7-7.81-9.11-8
				c-1.94,0.08-3.87,0.46-5.69,1.14c-1.44,0.53-3.06,0.07-4-1.14c0,0.77,0.57,1.53,1.71,2.28c2.46-0.21,4.94-0.21,7.4,0
				c1.66,0,2.54,0.49,1.14,2.28c-0.4,1.54,1.5,2.48,3.42,3.42l-2.85,1.14c-1.21-0.54-1.18-1.3,0-2.28
				c-0.83-0.78-1.59-0.55-2.28,1.14c0-2.07-0.43-3.74-1.71-4.55c-1,0.46-2,0.91-2.28,0c-0.38,0.67-0.28,1.28,1.71,1.71
				c1.28-0.1,0.92,1.38,0.57,2.85c-0.97-1.38-2.38-2.39-4-2.85c-1.36-0.03-2.52-0.96-2.85-2.28c0,0-0.87-3.29-1.67-3.37
				c-1-0.13-1.45-2.52-1.14-2.85c-0.93-0.36-1.24,0.76-1.14,2.85c0.34,1.24,0.92,2.41,1.71,3.42c0.79,0.66,1.64,1.3,1.14,2.28
				c-0.27,0.85,0.18,1.39,1.14,1.71l-1.71-0.57c-1.08-0.32-2.06-0.91-2.85-1.71c-0.45-0.67-0.65-1.48-0.57-2.28l-0.57,1.71
				c-0.24,0.74-0.24,1.54,0,2.28c0.41,0.58,1.02,0.99,1.71,1.14c0.42,0.17,0.54,0.61,0.57,1.14l-1.71,0.57
				c-1.47,0.54-2.5,0.46-2.85-0.57c-0.18-1.13-0.79-2.16-1.71-2.85l-2.85-1.14c-0.55,0.23-1.16,0.23-1.71,0
				c-0.87-0.55-1.84-0.94-2.85-1.14c0.2,0.84,0.59,1.62,1.14,2.28c1.06,0.59,2.22,0.97,3.42,1.14c0.93,0.28,1.73,0.87,2.28,1.67
				c0.37,0.72,0.37,1.56,0,2.28c0.54,0.6,1.76,0.73,3.42,0.57L238.12,16c-1.66,0.51-3.12,0.6-4-0.57c-0.84-0.62-1.82-1.01-2.85-1.14
				h-2.85c-0.61,0.01-1.21,0.21-1.71,0.57c2.05-0.17,3.37,0.22,4,1.14l1.14,1.71c0.5,0.55,2,0.56,3.42,0.57c0,0-1.1-0.23-1.14,0.57
				c0,1-2.38,1-2.85,0.57c-0.8-0.04-1.6,0.16-2.28,0.58c-3.12,1.67-2.23,1.83-0.57,1.71c1.79-0.81,3.15-1,4-0.57
				c0.92,0.33,1.93,0.33,2.85,0l-2.85,2.28l-2.85,1.71c-0.92,0.93-2.12,1.53-3.42,1.71c-8.4,1.45-5.24,2.25,0.57,1.14
				c0.8,0.11,1.62-0.1,2.28-0.57c1-1.31,1.69-1.38,2.29-0.78c-3.15,2.17-2.46,2.28,1.23,0.8c0.67,0.6,0.46,1.17-1.24,1.68
				c-1.17-0.08-2.34,0.12-3.42,0.57c-4.44,1.25-3.23,1.15,0,0.57C231.11,29.24,232.46,30.26,233.48,31.61z"/>
		</g>
		<g id="BCD_Vest">
			<g id="Layer_8">
				
					<linearGradient id="SVGID_3_" gradientUnits="userSpaceOnUse" x1="-203.3215" y1="10679.5098" x2="-203.3215" y2="10763.1504" gradientTransform="matrix(1 0 0 -1 377 10788)">
					<stop  offset="0.12" style="stop-color:#333333"/>
					<stop  offset="0.27" style="stop-color:#686868"/>
					<stop  offset="0.41" style="stop-color:#939393"/>
					<stop  offset="0.54" style="stop-color:#B2B2B2"/>
					<stop  offset="0.65" style="stop-color:#C5C5C5"/>
					<stop  offset="0.73" style="stop-color:#CCCCCC"/>
					<stop  offset="0.82" style="stop-color:#D0D0D0"/>
					<stop  offset="0.9" style="stop-color:#DBDBDB"/>
					<stop  offset="0.98" style="stop-color:#EEEEEE"/>
					<stop  offset="1" style="stop-color:#F2F2F2"/>
				</linearGradient>
				<path class="st9" d="M129.43,89.14c6.76,9.84,13.19,17.39,18.78,19.35L213.1,43.6c1.82-2.21,3-5.16,2.28-10.25
					c2.11-1.31,3.05-3.9,2.28-6.26h-2.28c-0.57-2.61-1.75-2.87-3.42-1.14l-4,2.28c-7.84-4.54-12.75-1.86-17.08,2.28L129.43,89.14z"
					/>
				<path class="st10" d="M208,28.23l7.4,5.12c2.11-1.31,3.05-3.9,2.28-6.26h-2.28c-0.51-1.84-1.25-3-2.76-1.74L208,28.23"/>
			</g>
			
				<linearGradient id="SVGID_4_" gradientUnits="userSpaceOnUse" x1="-189.2088" y1="10757.7373" x2="-148.1688" y2="10708.8271" gradientTransform="matrix(1 0 0 -1 377 10788)">
				<stop  offset="0.3" style="stop-color:#2D323D"/>
				<stop  offset="0.54" style="stop-color:#000000"/>
				<stop  offset="0.64" style="stop-color:#121318"/>
				<stop  offset="0.76" style="stop-color:#21242C"/>
				<stop  offset="0.88" style="stop-color:#2A2F39"/>
				<stop  offset="1" style="stop-color:#2D323D"/>
			</linearGradient>
			<path class="st11" d="M185.78,83.45c-0.95-1.9,0-3.8,2.85-5.69l-1.14-1.14c-0.63-0.23-1.34,0.01-1.71,0.57l-11.95,10.25
				l-9.11-14.23c-1.89-3.15-1.9-6.06,1.14-8.54L183.5,51l-5.12-5.69h-2.85L175,42.47l-1.14-1.14l5.12-5.12l2.28,1.71l1.71-0.57
				l0.57,2.85l6.26,6.26c1.06,0.85,2,1.12,2.85,0c5.13-4,12-6.59,20.49-8c2.24,0.69,4.68,0.03,6.26-1.71l1.14-1.14L204,23.12
				c-1-3.31-0.52-5.82,1.71-7.4c2.52-1.09,5.28-1.48,8-1.14c4.69,1.04,9.13,2.98,13.09,5.69l13.66,9.11l8,5.12
				c2.45,1.72,4.52,2.25,6.26,1.71l-1.14,2.85c-1.53,0.45-3.65-0.18-6.26-1.71C233.88,28.33,221,19.8,215.38,18
				c-2.82-0.89-5.86-0.68-8.54,0.57c-0.46,1.72-0.4,3.2,1.14,4L212,26l10.81,8.54c4.52-3.56,9.71-3.61,15.37-1.14
				c2.96,3.77,4.74,8.32,5.12,13.09c-4-5.72-9.08-5.75-14.8-2.28c-7.5,4.52-12.98,9.42-15.98,14.79c-1.23,6.63-0.43,11.67,2.85,14.8
				l14.23,21.04c3.29,4.92,2.32,8-1.71,9.68l-10.25,9.11c-2,1.55-4.1,1.26-6.26-0.57l-2.38-3.51L185.78,83.45z"/>
		</g>
		<g id="right_arm">
			
				<linearGradient id="SVGID_5_" gradientUnits="userSpaceOnUse" x1="-133.7791" y1="10689.2002" x2="-90.1329" y2="10764.8008" gradientTransform="matrix(1 0 0 -1 377 10788)">
				<stop  offset="0.07" style="stop-color:#2D323D"/>
				<stop  offset="0.14" style="stop-color:#343A49"/>
				<stop  offset="0.28" style="stop-color:#3E4359"/>
				<stop  offset="0.43" style="stop-color:#434962"/>
				<stop  offset="0.64" style="stop-color:#454B65"/>
				<stop  offset="0.67" style="stop-color:#4B506A"/>
				<stop  offset="0.79" style="stop-color:#5F607B"/>
				<stop  offset="0.87" style="stop-color:#666681"/>
			</linearGradient>
			<path class="st12" d="M225.45,88.54l-12.33-18.17c-0.81-3.55-1.61-7.09-0.72-10.73c1.92-4.28,5.57-8.34,10.95-12.19l4.21-2.85
				c6.35-4.21,11.69-4.08,15.71,1.71c1,2.46,2.45,4,4.55,4c3.51,2.27,20.49,1.71,34.15,4.55l7.4-1.71L319,41.75l5.12,9.68
				l-34.75,18.78c-3.76,2.78-8.45,4.01-13.09,3.42l-34.72-2.85c-2.42,0.46-4.38,2.2-5.12,4.55
				C233.29,82.13,229.35,85.26,225.45,88.54z"/>
		</g>
		<g id="left_arm">
			<path class="st4" d="M237.23,73.63c1.63-1.92,3.27-2.85,4.91-2.79l35.24,2.79c1.95,0.14,3.91-0.02,5.81-0.46l-14.31,10.14
				c-4.42,1.31-8.44,1.43-11.95,0L237.23,73.63z"/>
		</g>
		<g id="regulator">
			<path class="st13" d="M253.67,38.49l1.54,1c-0.89,0.08-1.34,0.83-1.71,1.71c3.85,0.92,6.7,0.48,7.4-2.85l-2.28-1.71
				c-1.26-0.64-2-0.36-2.28,0.57l-1.92-0.61L253.67,38.49z"/>
			<path class="st14" d="M259.77,34.93c2.62-0.1,4.55,0.61,5.69,2.28c0.57,3.69,0,5.35-1.71,5.12c2.05,1.91,1.66,3.81-0.57,5.69
				c-4,4-7,5.46-10.81,1.14c-3.28-3.86-3.73-6.79,1.14-8c3.74,1,6.49,0.51,7.4-2.85L259.17,37L259.77,34.93z"/>
		</g>
		<g id="mask">
			<path id="mask-2" class="st15" d="M246.68,27.53c1.71,0,2.85-4,0.57-5.12l4-2.28c0.39-0.39,1.02-0.4,1.41-0.02
				c0.01,0.01,0.01,0.01,0.02,0.02L262,23l6.59,3.4l-4.3,9.6c-1.35-0.85-2.94-1.23-4.52-1.08l-0.57,2.28
				c-1.14-1.43-3-2.24-5.69-2.28c-1.25-0.43-1.45-1.57-0.57-3.42C250.89,32.18,248.8,30.79,246.68,27.53z"/>
			<path id="right_lense_ceal" d="M252.79,30.28c-1.88-0.14-3.69-1.06-3.81-3.17c-0.85-2.15,0.67-4.47,3.17-7l7.61,2.54
				c0.7,0.62,0.77,1.68,0.15,2.38c-0.05,0.05-0.1,0.11-0.15,0.16C257.87,27.42,255.49,29.16,252.79,30.28z"/>
			<path id="right_lense" class="st16" d="M252.94,29.8c-1.69-0.13-3.32-1-3.42-2.85c-0.76-1.92,0.6-4,2.85-6.26L259.2,23
				c0.63,0.55,0.7,1.5,0.15,2.13c-0.05,0.05-0.1,0.1-0.15,0.15C257.51,27.27,255.36,28.82,252.94,29.8z"/>
			<path id="left_lense_ceal" d="M262.05,23.54v9.71c0.05,1.58,1,2.11,2.24,2.24c2.38,0,3.93-0.91,4.48-3c0.82-1.92,0.82-4.08,0-6
				L262.05,23.54z"/>
			<path id="left_lense" class="st17" d="M262.55,24.32v8.62c0.05,1.4,0.87,1.87,2,2c2.11,0,3.48-0.81,4-2.65
				c0.72-1.69,0.72-3.61,0-5.3L262.55,24.32z"/>
			<path class="st14" d="M244.4,23.54l2.85-1.14c2.28,1.14,1.4,3.91-0.46,5.29L244.4,27C243.22,26.79,242.83,26,244.4,23.54z"/>
		</g>
		<g id="hand">
			<path class="st18" d="M319.33,42.44c0.71-2.9,1.96-5.64,3.67-8.09c0-2.82,0.67-5.26,2.85-6.83c3.34-3.37,4.55-3.11,3.42,1.14
				c-1.64,1.48-2.17,3-1.71,4.55c0.64,0.83,1.41,0.81,2.28,0c4.09-3.1,8.47-5.78,13.09-8c2.48-0.76,4,0,1.71,2.28l-10.81,6.83
				c-0.26,1.16,0.34,1.52,1.71,1.14c4.29-2.47,8.88-4.38,13.66-5.69c3.81-0.28,3.82,0.8,1.14,2.85c-4.14,1.56-8.32,3.28-12.52,5.12
				c0.09,1.19,0.66,1.57,1.71,1.14l9.11-3.42c4.55-2.28,5.12,1.14,1.14,2.28l-9.68,4.55c-0.18,1,0.22,1.37,1.14,1.14l6.76-1.11
				c2.59,0,2.47,0.89,0.57,2.28c-8.48,1.15-16.81,3.2-24.84,6.14L319.33,42.44z"/>
		</g>
	</g>
</g>
</svg>
