<?xml version="1.0" encoding="utf-8"?>
<!-- Generator: Adobe Illustrator 23.0.0, SVG Export Plug-In . SVG Version: 6.00 Build 0)  -->
<svg version="1.1" id="Layer_1" xmlns="http://www.w3.org/2000/svg" xmlns:xlink="http://www.w3.org/1999/xlink" x="0px" y="0px"
	 viewBox="0 0 364.19 111.77" style="enable-background:new 0 0 364.19 111.77;" xml:space="preserve">
<style type="text/css">
	.st0{fill:#D1A570;}
	.st1{fill:#DBB788;}
	.st2{fill:#E3B683;}
	.st3{fill:#CED2DC;}
	.st4{fill:url(#SVGID_1_);}
	.st5{fill:#E8E6E0;}
	.st6{fill:#727377;}
	.st7{fill:#2A3136;}
	.st8{fill:#2E3339;}
	.st9{fill:#FDFFFF;}
	.st10{fill:url(#SVGID_2_);}
	.st11{fill:url(#SVGID_3_);}
	.st12{fill:url(#SVGID_4_);}
	.st13{fill:#C79A6A;}
	.st14{fill:url(#SVGID_5_);}
</style>
<title>scubadiver2</title>
<g id="scuba_diver_2">
	<g>
		<g id="head">
			<path class="st0" d="M76.47,49.36c-3.25-2.19-5-8.71-5.86-18.23c-0.47-6,2-10.68,7.07-14.15c8.24-4.29,15.67-5.07,21.93-0.71
				c2.67,3.12,2.83,7.07,2.83,14.86c-0.18,4.6-0.77,9.17-1.75,13.67C91.14,46.31,82.35,47.83,76.47,49.36z"/>
		</g>
		<g id="left_arm">
			<path id="left_arm-2" class="st1" d="M56.46,53.17c-9.61-3.09-19.62-4.78-29.71-5c-1.55-4.79-4.83-8.83-9.2-11.32
				c-1.39,0.6-1.64,1.53-0.71,2.83l2.83,2.83c-0.13,1-0.51,1.43-1.41,0.71L6.94,39.73C4.82,39,2.7,41.14,4.82,41.85l7.78,2.83
				c0.76,1.13-0.06,1.56-2.12,1.42L2,44c-2.12,0-2.83,2.12-0.71,2.83c3.16,0.22,6.26,0.93,9.2,2.12c0.64,0.71,0,0.86-1.41,0.71
				L2,48.93c-2.12-0.71-2.12,2.12-1.41,2.12l9.2,1.41c2.15,1.3,1.71,2-0.71,2.12H3.42C2,54.52,1.51,55.12,1.3,56
				c0,0.8,0.86,0.94,2.12,0.71c7.06-0.62,14.16-0.62,21.22,0c14.07,4.58,26.76,9.64,36.79,15.56c11.35,0.34,22.72-0.13,34-1.42
				c4.46-4.15,7.87-4.54,9.9,0c7.53,8.83,16.35,16.46,26.17,22.64c6.44-8.47,11.24-18.07,14.15-28.3
				c-13.36-8.57-28.88-18.9-31.83-19.1C110.24,44,100.34,44,90.43,45.37c-7.07,0.71-11.86,2.23-14.15,4.24l-12,3.54
				C61.91,54.75,59.27,54.48,56.46,53.17z"/>
			<path id="left_arm-3" class="st1" d="M145.6,65.08c-9.61-6-18.7-12.55-28.3-17.69c-1.24-0.66-3-0.79-4.24-1.41"/>
		</g>
		<g id="right_arm">
			<path class="st2" d="M70.55,38l2.89-13.92c-10.06-4.14-19.77-9.11-29-14.86c-2.38-1.32-4.34-3.28-5.66-5.66
				C38.12,2,37,2,35.24,3.54l-2.12,3.54L31,9.2c0.18,0.57,0.67,0.79,1.41,0.71C33.7,9.73,34.93,9.25,36,8.5
				c0.7-0.38,1.19-0.41,1.41,0c0.22,0.69,0.22,1.43,0,2.12l-5,2.83c-0.91,1.07-0.95,1.79,0,2.12c3.3-0.71,6.17-1,7.78,0
				C46.53,18.94,58.8,28.74,70.55,38z"/>
			<path class="st3" d="M28.16,13.44c-2.37,2.67-1.51,3.11,1.41,2.12l19.1-11.32L44.43,0L28.16,13.44z"/>
		</g>
		<g id="torso">
			<path id="belly" class="st1" d="M133.65,102.58c7.45-7.35,13.95-18.86,19.81-33.25l10.61,7.07v35.37
				C151.44,109.81,140.89,106.93,133.65,102.58z"/>
			<path id="chest" class="st1" d="M127.2,96.92c-2,4.12-5,2.91-8.49,0C106.49,88.82,99.27,80,95.36,70.75L97,69.34
				C106.14,81.61,115.88,90.55,127.2,96.92z"/>
		</g>
		<g id="bandana">
			
				<linearGradient id="SVGID_1_" gradientUnits="userSpaceOnUse" x1="-293.6378" y1="10710.0303" x2="-262.3012" y2="10678.7031" gradientTransform="matrix(1 0 0 -1 377 10720)">
				<stop  offset="0" style="stop-color:#A67C52"/>
				<stop  offset="0.17" style="stop-color:#A0774E"/>
				<stop  offset="0.39" style="stop-color:#906843"/>
				<stop  offset="0.64" style="stop-color:#765030"/>
				<stop  offset="0.9" style="stop-color:#512F16"/>
				<stop  offset="1" style="stop-color:#42210B"/>
			</linearGradient>
			<path class="st4" d="M71.47,32.53c-2.99-1.25-3.27-4.39-0.86-9.44c5.66-7.09,11.32-9.9,17.69-10.61c7.07,0,12,2.83,13.44,6.37
				s1.51,6,0.71,7.78c1.66,3,2.2,5.39,1.55,6.18l2.93,2.31h2.6c2-5.83,4.51-10.46,8.49-12c-2.71,2.11-3,3.59,0,4.24
				c5-4,9.73-5.85,14.15-3.54c-7.92-0.79-15.06,6.55-21.51,14.74c-3.6-0.64-7.79,0.26-12.39,2.23c-2.82-0.4-4.75-4-6.41-8.47
				c-1.24,0.38-2.56,0.38-3.8,0C79.93,31.73,72.51,31.35,71.47,32.53z"/>
		</g>
		<g id="scuba_tank">
			<circle class="st5" cx="118.71" cy="32.54" r="4.24"/>
			<path class="st6" d="M151.26,39.62L171.53,52l30.66,18.71c-2.86,11.3-7.58,17.21-13.44,19.81L117.3,43.16
				c-2.31-10.53,2.92-15,15.56-13.44L151.26,39.62z"/>
		</g>
		<g id="BCD_vest">
			<path class="st7" d="M103.15,67.91c-4.24-2.12-6.37,0.71-4.53,3.51c7.69,10.36,17.41,19.04,28.58,25.5
				c-0.45,1.21-1.42,2.16-2.64,2.57l9,3.08c8.65-9.73,15.37-21.01,19.81-33.25L164,76.39c1.09,0.21,1.69-0.45,2.12-1.41l14.15-19.1
				c-1.27-5.2-4.2-6.37-8.49-4.24l-9.2,14.86l-21.23-14.15l9.9-12.73c1.41-4.24-4.24-7.07-7.07-4.24l-9.9,14.15L117.3,41
				c-8.23-4.32-15.56-2.83-26.88,4.24c15-2.26,23.56-1.19,31.13,4.95l24,14.86c-3.06,9.96-7.85,19.3-14.15,27.59
				C120.79,85.87,111.26,77.54,103.15,67.91z"/>
		</g>
		<g id="mask">
			<path id="mask-2" class="st8" d="M71.32,33.25c-1.41,8.49-2.83,14.86,4.5,16.41c1.86-1.29,3.96-2.19,6.18-2.66
				c9.95-6.41,20.92-11.06,32.45-13.75l1.41-3.54c-12.14,2.79-23.8,7.32-34.64,13.45c-0.86-1-1.17-3-0.71-6.37l7.07-1.41
				c-0.39-1-0.1-2.13,0.71-2.83C79.81,32.54,71.23,31.06,71.32,33.25z"/>
			<path id="strap" class="st8" d="M91.83,32.54c0.29,2.42,0.89,3.75,2.12,2.83c3.28-1.51,6.37-3.41,9.2-5.66
				c1.08-1.57,0.66-2.53-1.41-2.83C98.65,29.11,95.33,31.01,91.83,32.54z"/>
			<path id="lense" class="st9" d="M72.73,43.71c-0.74-3.24-0.98-6.58-0.71-9.9h7.07c0.45,6.13-0.23,9-1.41,10.61
				C75.18,44.63,73,44.65,72.73,43.71z"/>
		</g>
		<g id="right_fin">
			
				<linearGradient id="SVGID_2_" gradientUnits="userSpaceOnUse" x1="-54.9586" y1="10630.6016" x2="-87.5856" y2="10687.1074" gradientTransform="matrix(1 0 0 -1 377 10720)">
				<stop  offset="0" style="stop-color:#13131B"/>
				<stop  offset="0.34" style="stop-color:#171920"/>
				<stop  offset="0.79" style="stop-color:#24292F"/>
				<stop  offset="1" style="stop-color:#2C3339"/>
			</linearGradient>
			<path class="st10" d="M278.59,40.32l5.66-4.24c3.31-2.65,6.61-3.34,9.9-1.41l29,27.59c-0.88,8.26,0.59,16.59,4.24,24.05
				l-4.24-1.42c-3.78-6.73-20.93-20.9-36.08-34c-1-1.32-2.39-1.58-4.24-0.71C280.62,47.3,279.17,43.91,278.59,40.32z"/>
		</g>
		<g id="left_leg">
			
				<linearGradient id="SVGID_3_" gradientUnits="userSpaceOnUse" x1="-212.93" y1="10630.8604" x2="-93.36" y2="10630.8604" gradientTransform="matrix(1 0 0 -1 377 10720)">
				<stop  offset="0" style="stop-color:#13131B"/>
				<stop  offset="0.34" style="stop-color:#171920"/>
				<stop  offset="0.79" style="stop-color:#24292F"/>
				<stop  offset="1" style="stop-color:#2C3339"/>
			</linearGradient>
			<path class="st11" d="M164.07,111.77V76.4c14.4-9.68,26.83-8.77,38.2-2.12c9.12,2.74,26.58,4.61,45.28,6.37L262.41,75
				c2.58-4,7.71-7.1,17.69-8.49c0.2,6.05,1.4,12.03,3.54,17.69l-35.37,16.27c-11.76,4-24.93,6.08-38.91,7.07L164.07,111.77z"/>
		</g>
		<g id="right_leg">
			
				<linearGradient id="SVGID_4_" gradientUnits="userSpaceOnUse" x1="-127.515" y1="10639.3496" x2="-127.515" y2="10664.1104" gradientTransform="matrix(1 0 0 -1 377 10720)">
				<stop  offset="0" style="stop-color:#13131B"/>
				<stop  offset="0.34" style="stop-color:#171920"/>
				<stop  offset="0.79" style="stop-color:#24292F"/>
				<stop  offset="1" style="stop-color:#2C3339"/>
			</linearGradient>
			<path class="st12" d="M254.54,55.89l12.73,9.9c-4.72,3.75-9.14,7.88-13.2,12.34l-6.61,2.52l-15.76-1.57
				C238.09,70,245.23,61.78,254.54,55.89z"/>
			<path class="st13" d="M254.54,55.89c5.54-4.53,13.84-9.79,24-15.56c0.57,3.6,2.02,7.01,4.24,9.9
				c-5.78,4.55-11.01,9.78-15.56,15.56L254.54,55.89z"/>
			<path class="st13" d="M280,66.5c0.78,7.41,1.73,14.14,3.54,17.69l31.13-15.56c-2.91-2.6-4.89-6.08-5.66-9.9
				C299.64,62.33,289.92,64.94,280,66.5z"/>
		</g>
		<g id="left_fin">
			
				<linearGradient id="SVGID_5_" gradientUnits="userSpaceOnUse" x1="-61.5695" y1="10649.4521" x2="-20.2177" y2="10678.4033" gradientTransform="matrix(1 0 0 -1 377 10720)">
				<stop  offset="0" style="stop-color:#2C3339"/>
				<stop  offset="0.11" style="stop-color:#24292F;stop-opacity:0.98"/>
				<stop  offset="0.35" style="stop-color:#171920;stop-opacity:0.93"/>
				<stop  offset="0.53" style="stop-color:#13131B;stop-opacity:0.9"/>
				<stop  offset="0.7" style="stop-color:#171820;stop-opacity:0.94"/>
				<stop  offset="0.91" style="stop-color:#24272F;stop-opacity:0.98"/>
				<stop  offset="0.98" style="stop-color:#2A2E36"/>
			</linearGradient>
			<path class="st14" d="M309,58.72c0.77,3.82,2.75,7.3,5.66,9.9c11.49,1.51,23.12,1.75,34.66,0.71c6.39-3.6,11.56-9.02,14.86-15.56
				c0.11-2.2-1.42-4.06-4.24-5.66c-3.48-2.71-7.63-4.43-12-5c-5.73-0.37-9.39,1.15-11.32,4.24c-1.9,2.78-4.29,5.17-7.07,7.07
				c-3.38,0.81-6.42-1.09-9.2-4.95c-0.71-4.24-6.37-2.12-6.37,0.71C313.58,53.43,311.74,56.2,309,58.72z"/>
		</g>
	</g>
</g>
</svg>
