<?xml version="1.0" encoding="utf-8"?>
<!-- Generator: Adobe Illustrator 23.0.0, SVG Export Plug-In . SVG Version: 6.00 Build 0)  -->
<svg version="1.1" xmlns="http://www.w3.org/2000/svg" xmlns:xlink="http://www.w3.org/1999/xlink" x="0px" y="0px"
	 viewBox="0 0 1366 768" style="enable-background:new 0 0 1366 768;" xml:space="preserve">
<style type="text/css">
	.Drop_x0020_Shadow{fill:none;}
	.Outer_x0020_Glow_x0020_5_x0020_pt{fill:none;}
	.Blue_x0020_Neon{fill:none;stroke:#8AACDA;stroke-width:7;stroke-linecap:round;stroke-linejoin:round;}
	.Chrome_x0020_Highlight{fill:url(#SVGID_1_);stroke:#FFFFFF;stroke-width:0.3629;stroke-miterlimit:1;}
	.Jive_GS{fill:#FFDD00;}
	.Alyssa_GS{fill:#A6D0E4;}
	.st0{display:none;}
	.st1{fill:#D1A570;}
	.st2{fill:#DBB788;}
	.st3{fill:#E3B683;}
	.st4{fill:#CED2DC;}
	.st5{fill:url(#SVGID_2_);}
	.st6{fill:#E8E6E0;}
	.st7{fill:#727377;}
	.st8{fill:#2A3136;}
	.st9{fill:#2E3339;}
	.st10{fill:#FDFFFF;}
	.st11{fill:url(#SVGID_3_);}
	.st12{fill:url(#SVGID_4_);}
	.st13{fill:url(#SVGID_5_);}
	.st14{fill:#C79A6A;}
	.st15{fill:url(#SVGID_6_);}
</style>
<linearGradient id="SVGID_1_" gradientUnits="userSpaceOnUse" x1="0" y1="0" x2="6.123234e-17" y2="-1">
	<stop  offset="0" style="stop-color:#656565"/>
	<stop  offset="0.618" style="stop-color:#1B1B1B"/>
	<stop  offset="0.6292" style="stop-color:#545454"/>
	<stop  offset="0.9831" style="stop-color:#3E3E3E"/>
</linearGradient>
<g id="Layer_1" class="st0">
	
		<image style="display:inline;overflow:visible;" width="374" height="204" xlink:href="Screen Shot 2018-10-24 at 4.38.35 PM.png"  transform="matrix(2.0392 0 0 2.0392 231.8333 108)">
	</image>
</g>
<g id="head">
	<path class="st1" d="M454.28,253.77c-4.59-3.1-7.14-12.31-8.28-25.77c-0.67-8.48,2.78-15.09,10-20c11.65-6.07,22.15-7.17,31-1
		c3.78,4.41,4,10,4,21c-0.32,7.57-1.26,13.74-2.47,19.32C475.02,249.46,462.59,251.61,454.28,253.77z"/>
</g>
<g id="left_arm_1_">
	<path id="left_arm" class="st2" d="M426,259c-13.78-4.44-27.79-6.66-42-7c-2.65-7.34-6.99-12.67-13-16c-1.96,0.85-2.32,2.17-1,4
		l4,4c-0.19,1.38-0.72,2.02-2,1l-16-5c-3-1-6,2-3,3l11,4c1.08,1.6-0.08,2.2-3,2l-12-3c-3,0-4,3-1,4c4.79,0.44,9.2,1.34,13,3
		c0.9,1.01-0.05,1.22-2,1l-10-1c-3-1-3,3-2,3c4.67,0.72,9.3,1.43,13,2c3.04,1.84,2.42,2.77-1,3h-8c-2.08-0.09-2.7,0.77-3,2
		c0.05,1.13,1.21,1.33,3,1c10.24-0.9,20.22-0.84,30,0c19.89,6.48,37.83,13.62,52,22c15.7,0.65,31.77-0.32,48-2
		c6.3-5.86,11.13-6.42,14,0c10.56,12.4,22.88,23.07,37,32c8.38-10.81,15.2-23.92,20-40c-18.88-12.12-40.83-26.72-45-27
		c-5-3-19-3-33-1c-10,1-16.77,3.15-20,6l-17,5C433.7,261.23,429.97,260.85,426,259z"/>
	<path id="left_arm_2_" class="st2" d="M552,276c-13.59-8.44-26.43-17.74-40-25c-1.75-0.94-4.25-1.11-6-2"/>
</g>
<g id="right_arm">
	<path class="st3" d="M445.92,237.68L450,218c-14.49-5.93-28.11-13-41-21c-3.29-1.69-5.88-4.47-8-8c-0.93-2.22-2.59-2.25-5,0l-3,5
		l-3,3c0.26,0.8,0.94,1.12,2,1c1.63-0.28,3.28-0.77,5-2c0.99-0.54,1.68-0.58,2,0c0.3,1.08,0.31,2.09,0,3l-7,4
		c-1.28,1.51-1.34,2.53,0,3c4.67-1,8.72-1.38,11,0C411.96,210.77,429.31,224.63,445.92,237.68z"/>
	<path class="st4" d="M386,203c-3.35,3.77-2.14,4.4,2,3l27-16l-6-6L386,203z"/>
</g>
<g id="torso">
	<path id="belly" class="st2" d="M535,329c10.53-10.39,19.72-26.66,28-47l15,10v50C560.15,339.23,545.23,335.15,535,329z"/>
	<path id="chest" class="st2" d="M526,321c-2.79,5.82-7.14,4.12-12,0c-17.28-11.45-27.48-23.89-33-37l2.37-2
		C496.22,299.36,510,312,526,321z"/>
</g>
<g id="bandana">
	<linearGradient id="SVGID_2_" gradientUnits="userSpaceOnUse" x1="464.0362" y1="198.4541" x2="508.291" y2="242.709">
		<stop  offset="0" style="stop-color:#A67C52"/>
		<stop  offset="0.1711" style="stop-color:#A0774E"/>
		<stop  offset="0.3914" style="stop-color:#906843"/>
		<stop  offset="0.6388" style="stop-color:#765030"/>
		<stop  offset="0.904" style="stop-color:#512F16"/>
		<stop  offset="1" style="stop-color:#42210B"/>
	</linearGradient>
	<path class="st5" d="M447.21,230.35c-4.23-1.77-4.63-6.22-1.21-13.35c8-10,16-14,25-15c10,0,17,4,19,9c1.96,4.86,2.14,8.53,1,11
		c2.34,4.21,3.11,7.62,2.19,8.73l4.14,3.26L501,234c2.78-8.24,6.37-14.79,12-17c-3.83,2.98-4.17,5.07,0,6c7.01-5.67,13.76-8.27,20-5
		c-11.19-1.12-21.29,9.26-30.41,20.83c-5.09-0.91-11.01,0.37-17.52,3.15c-3.99-0.57-6.71-5.64-9.06-11.98
		c-1.88,0.48-3.69,0.6-5.37,0C459.18,229.22,448.69,228.68,447.21,230.35z"/>
</g>
<g id="scuba_tank">
	<circle class="st6" cx="514" cy="230" r="6"/>
	<path class="st7" d="M560,240l28.66,17.55L632,284c-4.04,15.98-10.72,24.33-19,28l-101-67c-3.26-14.88,4.13-21.16,22-19L560,240z"
		/>
</g>
<g id="BCD_vest">
	<path class="st8" d="M492,280c-6-3-9,1-6.4,4.96c11.22,14.93,24.65,26.99,40.4,36.04c-0.79,1.84-2.01,3.08-3.73,3.64L535,329
		c11.7-13.11,21.19-28.6,28-47l15,10c1.54,0.3,2.39-0.63,3-2l20-27c-1.8-7.35-5.94-9.01-12-6l-13,21l-30-20l14-18c2-6-6-10-10-6
		l-14,20l-24-12c-11.63-6.1-22-4-38,6c21.26-3.19,33.3-1.68,44,7l34,21c-4.81,15.2-11.59,28.06-20,39
		C516.71,305.06,503.21,293.53,492,280z"/>
</g>
<g id="mask_1_">
	<path id="mask" class="st9" d="M447,231c-2,12-4,21,6.36,23.19c2.27-1.59,5.04-2.92,8.77-3.74c14.16-9.32,29.6-15.43,45.87-19.44
		l2-5c-16.64,3.9-33.02,9.91-49,19c-1.22-1.44-1.66-4.24-1-9l10-2c-0.45-1.43-0.29-2.79,1-4C459,230,446.88,227.9,447,231z"/>
	<path id="strap" class="st9" d="M476,230c0.41,3.42,1.26,5.3,3,4c4.9-2.29,9.22-4.97,13-8c1.53-2.22,0.93-3.58-2-4
		C486.28,224.79,481.57,227.46,476,230z"/>
	<path id="lense" class="st10" d="M449,246c-1.07-4.43-1.33-9.12-1-14h10c0.64,8.66-0.33,12.79-2,15
		C452.46,247.3,449.44,247.33,449,246z"/>
</g>
<g id="right_fin">
	<linearGradient id="SVGID_3_" gradientUnits="userSpaceOnUse" x1="801.4214" y1="310.3755" x2="755.3034" y2="230.4967">
		<stop  offset="0" style="stop-color:#13131B"/>
		<stop  offset="0.3441" style="stop-color:#171920"/>
		<stop  offset="0.7865" style="stop-color:#24292F"/>
		<stop  offset="1" style="stop-color:#2C3339"/>
	</linearGradient>
	<path class="st11" d="M740,241l8-6c4.68-3.74,9.35-4.72,14-2l41,39c-1.27,12.74,1.15,23.89,6,34l-6-2c-5.34-9.51-29.58-29.54-51-48
		c-1.39-1.87-3.38-2.23-6-1C742.86,250.78,740.77,246.15,740,241z"/>
</g>
<g id="left_leg">
	<linearGradient id="SVGID_4_" gradientUnits="userSpaceOnUse" x1="578" y1="310" x2="747" y2="310">
		<stop  offset="0" style="stop-color:#13131B"/>
		<stop  offset="0.3441" style="stop-color:#171920"/>
		<stop  offset="0.7865" style="stop-color:#24292F"/>
		<stop  offset="1" style="stop-color:#2C3339"/>
	</linearGradient>
	<path class="st12" d="M578,342v-50c20.35-13.68,37.92-12.39,54-3c12.89,3.87,37.57,6.52,64,9l21-8c3.64-5.65,10.9-10.03,25-12
		c0.44,9.35,2.12,17.68,5,25l-50,23c-16.62,5.65-35.24,8.6-55,10L578,342z"/>
</g>
<g id="right_leg">
	<linearGradient id="SVGID_5_" gradientUnits="userSpaceOnUse" x1="698.8596" y1="298" x2="698.8596" y2="263">
		<stop  offset="0" style="stop-color:#13131B"/>
		<stop  offset="0.3441" style="stop-color:#171920"/>
		<stop  offset="0.7865" style="stop-color:#24292F"/>
		<stop  offset="1" style="stop-color:#2C3339"/>
	</linearGradient>
	<path class="st13" d="M706,263l18,14c-6.13,4.69-12.37,10.73-18.66,17.44L696,298l-22.28-2.22C682.74,282.97,692.84,271.33,706,263
		z"/>
	<path class="st14" d="M706,263c7.83-6.4,19.57-13.84,34-22c0.64,4.94,2.81,9.57,6,14c-8.03,6.22-15.31,13.64-22,22L706,263z"/>
	<path class="st14" d="M742,278c1.1,10.47,2.45,19.99,5,25l44-22c-4.02-3.68-6.81-8.26-8-14C768.48,272.36,754.7,276.24,742,278z"/>
</g>
<g id="left_fin">
	<linearGradient id="SVGID_6_" gradientUnits="userSpaceOnUse" x1="792.1028" y1="283.7427" x2="850.5556" y2="242.8136">
		<stop  offset="0" style="stop-color:#2C3339"/>
		<stop  offset="0.1141" style="stop-color:#24292F;stop-opacity:0.9786"/>
		<stop  offset="0.3505" style="stop-color:#171920;stop-opacity:0.9344"/>
		<stop  offset="0.5344" style="stop-color:#13131B;stop-opacity:0.9"/>
		<stop  offset="0.7046" style="stop-color:#171820;stop-opacity:0.9378"/>
		<stop  offset="0.9091" style="stop-color:#24272F;stop-opacity:0.9833"/>
		<stop  offset="0.9843" style="stop-color:#2A2E36"/>
	</linearGradient>
	<path class="st15" d="M783,267c1.14,5.31,3.63,10.05,8,14c16.52,2.09,32.87,2.52,49,1c8.94-5.03,15.98-12.32,21-22
		c0.15-3.11-2.01-5.74-6-8c-6.08-4.42-11.68-6.4-17-7c-8.1-0.52-13.27,1.63-16,6c-3.01,4.28-6.36,7.57-10,10
		c-4.78,1.14-9.07-1.54-13-7c-1-6-9-3-9,1C789.45,259.52,786.85,263.44,783,267z"/>
</g>
</svg>
