<?xml version="1.0" encoding="utf-8"?>
<!-- Generator: Adobe Illustrator 23.0.0, SVG Export Plug-In . SVG Version: 6.00 Build 0)  -->
<svg version="1.1" xmlns="http://www.w3.org/2000/svg" xmlns:xlink="http://www.w3.org/1999/xlink" x="0px" y="0px"
	 viewBox="0 0 1366 4708" style="enable-background:new 0 0 1366 4708;" xml:space="preserve">
<style type="text/css">
	.Drop_x0020_Shadow{fill:none;}
	.Outer_x0020_Glow_x0020_5_x0020_pt{fill:none;}
	.Blue_x0020_Neon{fill:none;stroke:#8AACDA;stroke-width:7;stroke-linecap:round;stroke-linejoin:round;}
	.Chrome_x0020_Highlight{fill:url(#SVGID_1_);stroke:#FFFFFF;stroke-width:0.3629;stroke-miterlimit:1;}
	.Jive_GS{fill:#FFDD00;}
	.Alyssa_GS{fill:#A6D0E4;}
	.st0{fill:#234F72;}
	.st1{fill:#204A66;}
	.st2{fill:#51608A;}
	.st3{fill:#364871;}
	.st4{fill:#F19CA2;}
	.st5{fill:#F8D7D0;}
	.st6{fill:#FFE9CE;}
	.st7{fill:url(#SVGID_2_);}
	.st8{fill:#FEFFE6;}
	.st9{opacity:0.5;fill:url(#mountain_2_1_);}
	.st10{fill:url(#mountain_1_1_);}
	.st11{fill:#DDDDD7;}
	.st12{fill:#E8E7DA;}
	.st13{fill:url(#water_3_);}
	.st14{fill:url(#shelf_2_);}
	.st15{fill:url(#SVGID_3_);}
	.st16{fill:url(#SVGID_4_);}
	.st17{opacity:0.5;}
	.st18{fill:#FFFFFF;}
	.st19{clip-path:url(#water_4_);}
	.st20{opacity:0.78;fill:url(#SVGID_5_);}
	.st21{opacity:0.9;fill:url(#SVGID_6_);}
	.st22{opacity:0.9;fill:url(#SVGID_7_);}
	.st23{opacity:0.8;fill:url(#SVGID_8_);}
	.st24{opacity:0.89;fill:url(#SVGID_9_);}
	.st25{fill:url(#SVGID_10_);}
	.st26{fill:url(#SVGID_11_);}
	.st27{opacity:0.9;fill:url(#SVGID_12_);}
	.st28{opacity:0.89;fill:url(#SVGID_13_);}
	.st29{fill:url(#SVGID_14_);}
	.st30{fill:url(#SVGID_15_);}
	.st31{opacity:0.85;fill:url(#SVGID_16_);}
	.st32{fill:url(#SVGID_17_);}
	.st33{fill:url(#SVGID_18_);}
	.st34{fill:url(#SVGID_19_);}
	.st35{opacity:0.9;fill:url(#SVGID_20_);}
	.st36{opacity:0.9;fill:url(#SVGID_21_);}
	.st37{opacity:0.5;fill:#FFFFFF;stroke:#FFFFFF;stroke-width:5;stroke-miterlimit:10;}
	.st38{fill:url(#shelf_3_);}
	.st39{fill:#282F35;}
	.st40{fill:#13191E;}
	.st41{fill:#141A1F;}
	.st42{fill:#454B65;}
	.st43{fill:#2B3245;}
	.st44{fill:#353E55;}
	.st45{fill:#D6B181;}
	.st46{fill:url(#SVGID_22_);}
	.st47{fill:url(#SVGID_23_);}
	.st48{fill:url(#SVGID_24_);}
	.st49{fill:#515151;}
	.st50{fill:url(#SVGID_25_);}
	.st51{fill:url(#SVGID_26_);}
	.st52{fill:#9D9FA5;}
	.st53{fill:#2D333A;}
	.st54{fill:#377987;}
	.st55{fill:#FEFCFE;}
	.st56{fill:#FDFEFE;}
	.st57{fill:#D7AF7E;}
	.st58{fill:#D1A570;}
	.st59{fill:#DBB788;}
	.st60{fill:#E3B683;}
	.st61{fill:#CED2DC;}
	.st62{fill:url(#SVGID_27_);}
	.st63{fill:#E8E6E0;}
	.st64{fill:#727377;}
	.st65{fill:#2A3136;}
	.st66{fill:#2E3339;}
	.st67{fill:#FDFFFF;}
	.st68{fill:url(#SVGID_28_);}
	.st69{fill:url(#SVGID_29_);}
	.st70{fill:url(#SVGID_30_);}
	.st71{fill:#C79A6A;}
	.st72{fill:url(#SVGID_31_);}
	.st73{display:none;}
	.st74{display:inline;}
	.st75{fill:url(#SVGID_32_);}
	.st76{fill:url(#SVGID_33_);}
	.st77{fill:#333C53;}
	.st78{fill:#212529;}
	.st79{fill:url(#neck_1_);}
	.st80{fill:url(#SVGID_34_);}
	.st81{fill:#2C2F33;}
	.st82{fill:#242527;}
	.st83{fill:none;}
	.st84{fill:#F1BA40;}
	.st85{fill:url(#SVGID_35_);}
	.st86{fill:#CD9C67;}
	.st87{fill:#B2B0AF;}
	.st88{fill:#34384D;}
	.st89{fill:#F6CE46;}
</style>
<linearGradient id="SVGID_1_" gradientUnits="userSpaceOnUse" x1="0" y1="0" x2="6.123234e-17" y2="-1">
	<stop  offset="0" style="stop-color:#656565"/>
	<stop  offset="0.618" style="stop-color:#1B1B1B"/>
	<stop  offset="0.6292" style="stop-color:#545454"/>
	<stop  offset="0.9831" style="stop-color:#3E3E3E"/>
</linearGradient>
<g id="sky">
	<g>
		
			<rect x="1426.79" y="486" transform="matrix(1 -3.254410e-03 3.254410e-03 1 -1.8373 4.91)" class="st0" width="162" height="162"/>
	</g>
	<g>
		
			<rect x="1426.26" y="324" transform="matrix(1 -3.254410e-03 3.254410e-03 1 -1.3101 4.9074)" class="st1" width="162" height="162"/>
	</g>
	<g>
		
			<rect x="1425.74" y="162" transform="matrix(1 -3.254410e-03 3.254410e-03 1 -0.7828 4.9048)" class="st2" width="162" height="162"/>
	</g>
	<g>
		
			<rect x="1425.21" y="0" transform="matrix(1 -3.254410e-03 3.254410e-03 1 -0.2556 4.9023)" class="st3" width="162" height="162"/>
	</g>
	<g>
		
			<rect x="1428.8" y="1028" transform="matrix(1 -4.954495e-03 4.954495e-03 1 -5.476 7.4939)" class="st4" width="162" height="162"/>
	</g>
	<g>
		<rect x="1428" y="866" transform="matrix(1 -4.954495e-03 4.954495e-03 1 -4.6734 7.488)" class="st5" width="162" height="162"/>
	</g>
	<g>
		
			<rect x="1427.2" y="704" transform="matrix(1 -4.954495e-03 4.954495e-03 1 -3.8708 7.482)" class="st6" width="162" height="162"/>
	</g>
	<linearGradient id="SVGID_2_" gradientUnits="userSpaceOnUse" x1="680.485" y1="4.1783" x2="685.5012" y2="962.1869">
		<stop  offset="0" style="stop-color:#F19CA2"/>
		<stop  offset="0.67" style="stop-color:#F8D7D0"/>
		<stop  offset="1" style="stop-color:#FFE9CE"/>
	</linearGradient>
	<rect class="st7" width="1366" height="969"/>
	<circle class="st8" cx="1114.5" cy="870.5" r="139.5"/>
</g>
<g id="water">
	<linearGradient id="mountain_2_1_" gradientUnits="userSpaceOnUse" x1="473.5409" y1="369.5071" x2="476.4865" y2="932.0656">
		<stop  offset="0" style="stop-color:#F19CA2"/>
		<stop  offset="0.67" style="stop-color:#F8D7D0"/>
		<stop  offset="1" style="stop-color:#FFE9CE"/>
	</linearGradient>
	<polygon id="mountain_2" class="st9" points="255,889.41 357.86,581.52 419.07,501.48 419.07,430.85 477.93,364.94 554.44,541.5 
		541.49,659.21 592.1,719.24 630.95,694.52 647.43,815.76 697.78,937 	"/>
	<linearGradient id="mountain_1_1_" gradientUnits="userSpaceOnUse" x1="253.1828" y1="510.6487" x2="255.4221" y2="938.3276">
		<stop  offset="0" style="stop-color:#F19CA2"/>
		<stop  offset="0.67" style="stop-color:#F8D7D0"/>
		<stop  offset="1" style="stop-color:#FFE9CE"/>
	</linearGradient>
	<polygon id="mountain_1" class="st10" points="31,892 101,716 164,757 225,547 290,507 336,556 381,577 405,746 466,811 
		510.82,941.62 0,930.36 	"/>
	<polygon id="land_2" class="st8" points="92,870 299,870 396,845 545,890 657,924 741,924 763,967 357.65,1007.16 0,964.36 
		0,881.02 	"/>
	<polygon id="land_1" class="st11" points="42,929 121,907 211,907 252,891 373,907 447,907 578,929 652,956 297,984 	"/>
	<polygon id="land" class="st12" points="111,974 207.91,955.5 314,947 414,956 501,947 555.08,947.08 600.13,974 641,992 111,992 	
		"/>
	<linearGradient id="water_3_" gradientUnits="userSpaceOnUse" x1="673.0933" y1="896.9694" x2="692.8524" y2="4670.6519">
		<stop  offset="0" style="stop-color:#78A0B0"/>
		<stop  offset="0.3568" style="stop-color:#244C71"/>
		<stop  offset="0.4502" style="stop-color:#173856"/>
		<stop  offset="0.5543" style="stop-color:#0D2841"/>
		<stop  offset="0.6695" style="stop-color:#061D32"/>
		<stop  offset="0.8034" style="stop-color:#011629"/>
		<stop  offset="0.9994" style="stop-color:#001426"/>
	</linearGradient>
	<polygon id="water_1_" class="st13" points="1366,4708 0,4708 0,870 281,990.86 1366,870 	"/>
	<linearGradient id="shelf_2_" gradientUnits="userSpaceOnUse" x1="256.5" y1="1980.9291" x2="256.5" y2="3460.5754">
		<stop  offset="0" style="stop-color:#78A0B0"/>
		<stop  offset="0.445" style="stop-color:#244C71"/>
		<stop  offset="0.66" style="stop-color:#234A6F"/>
		<stop  offset="0.7662" style="stop-color:#1F4567"/>
		<stop  offset="0.8486" style="stop-color:#193B5A"/>
		<stop  offset="0.9187" style="stop-color:#102D47"/>
		<stop  offset="0.9804" style="stop-color:#051B2F"/>
		<stop  offset="1" style="stop-color:#001426"/>
	</linearGradient>
	<polyline id="shelf" class="st14" points="0,1947.35 435,1995 513,3427 0,3427 0,1947.35 	"/>
	<g id="rocks">
		
			<linearGradient id="SVGID_3_" gradientUnits="userSpaceOnUse" x1="-105.1322" y1="1833.5334" x2="1.147" y2="1727.2542" gradientTransform="matrix(0.0782 -0.9969 -0.7858 -0.0617 1442.485 1920.918)">
			<stop  offset="0" style="stop-color:#234F72"/>
			<stop  offset="0.2699" style="stop-color:#305B7B"/>
			<stop  offset="0.7669" style="stop-color:#527B94"/>
			<stop  offset="1" style="stop-color:#648CA1"/>
		</linearGradient>
		<path class="st15" d="M99.73,1905.96c-9.68-70.82-9.39-102.98-47.45-131.53S1,1770.41,1,1770.41l-1.03,157.08l97.16,7.62
			L99.73,1905.96z"/>
		<g>
			<path class="st1" d="M25.8,1765.14c0,0,14.49,9.21,17.64,30.68c3.15,21.47,0,65.58,0,65.58l8.82,47.01
				c0,0,16.16,16.2,11.55,29.29C59.2,1950.79,5,1947.3,5,1947.3V1761L25.8,1765.14z"/>
		</g>
		<linearGradient id="SVGID_4_" gradientUnits="userSpaceOnUse" x1="14.2607" y1="1957.3286" x2="120.54" y2="1851.0493">
			<stop  offset="0" style="stop-color:#234F72"/>
			<stop  offset="0.2699" style="stop-color:#305B7B"/>
			<stop  offset="0.7669" style="stop-color:#527B94"/>
			<stop  offset="1" style="stop-color:#648CA1"/>
		</linearGradient>
		<path class="st16" d="M29.26,1823.61c69.84,19.27,101.93,22.1,127.42,73.07s0,65.26,0,65.26L0,1947.64V1824L29.26,1823.61z"/>
	</g>
	<g id="seaweed_1_" class="st17">
		<g id="seaweed">
			<g>
				<path class="st18" d="M158.68,1953.87c1.89-6.42,4.68-12.64,8.64-18.15l0.74-1.04c0.26-0.34,0.54-0.65,0.81-0.98l1.64-1.95
					c1.19-1.21,2.33-2.48,3.63-3.58c2.52-2.28,5.29-4.3,8.18-6.06c2.88-1.78,5.87-3.35,8.83-4.88c2.95-1.54,5.89-3.04,8.54-4.82
					c2.65-1.78,4.96-3.89,6.5-6.46c1.56-2.56,2.33-5.54,2.57-8.63c0.47-6.22-0.91-12.69-2.63-18.95c-1.76-6.3-3.98-12.45-6.8-18.3
					c-2.8-5.86-6.19-11.42-10.04-16.64c-3.84-5.24-8.17-10.12-12.7-14.94c-2.27-2.42-4.58-4.83-6.86-7.39
					c-2.26-2.57-4.5-5.28-6.43-8.41c-1.92-3.1-3.5-6.71-4.08-10.6c-0.61-3.88-0.23-7.83,0.68-11.44l0.8-2.66
					c0.28-0.88,0.65-1.7,0.97-2.55l0.5-1.27c0.18-0.41,0.38-0.81,0.57-1.21l1.17-2.41c0.86-1.54,1.71-3.08,2.62-4.57
					c0.95-1.44,1.85-2.96,2.85-4.34l3.01-4.12l1.51-2.06c0.5-0.69,1-1.38,1.56-2.02l3.26-3.92c1.1-1.29,2.14-2.65,3.31-3.88
					c4.59-5.01,9.32-9.87,14.35-14.4l3.79-3.37c1.28-1.11,2.6-2.16,3.89-3.24c1.31-1.06,2.57-2.18,3.93-3.19l4.04-3.05
					c1.33-1.03,2.73-1.98,4.1-2.96c1.38-0.96,2.73-1.97,4.15-2.88l4.23-2.76c1.42-0.9,2.86-1.77,4.29-2.65
					c5.79-3.41,11.66-6.68,17.85-9.31l0.37,0.71c-22.07,14.84-42.15,32.3-58.93,52.32c-1.1,1.21-2.06,2.53-3.08,3.8l-3.03,3.84
					c-1.97,2.59-3.83,5.26-5.75,7.89c-3.7,5.25-6.96,10.74-8.7,16.36c-0.82,2.8-1.2,5.6-0.89,8.32c0.3,2.72,1.27,5.4,2.75,8.01
					c2.99,5.22,7.55,10.08,11.92,15.11c2.22,2.5,4.41,5.08,6.56,7.7c2.11,2.66,4.21,5.34,6.13,8.17
					c3.88,5.61,7.28,11.59,10.04,17.83c2.78,6.24,4.89,12.73,6.52,19.31c1.58,6.58,2.9,13.4,2.16,20.51
					c-0.4,3.52-1.45,7.12-3.5,10.18c-2.02,3.08-4.86,5.43-7.8,7.24c-2.95,1.83-6.02,3.24-9.03,4.66c-3.01,1.42-5.98,2.84-8.83,4.45
					c-2.86,1.59-5.57,3.42-8.07,5.51c-1.29,1-2.42,2.18-3.61,3.3l-1.64,1.82c-0.27,0.31-0.55,0.6-0.81,0.92l-0.75,0.97
					c-4.06,5.14-7.08,11.11-9.23,17.37L158.68,1953.87z"/>
			</g>
			<g>
				<path class="st18" d="M158.23,1953.54c4.24-5.17,9.24-9.81,15.04-13.33l1.08-0.67c0.37-0.21,0.75-0.39,1.13-0.59l2.27-1.16
					c1.57-0.65,3.11-1.37,4.74-1.88c3.21-1.11,6.54-1.89,9.89-2.38c3.35-0.51,6.71-0.79,10.03-1.05c3.32-0.26,6.61-0.5,9.74-1.11
					c3.13-0.6,6.09-1.64,8.51-3.41c2.44-1.74,4.31-4.19,5.73-6.94c2.87-5.54,4.11-12.04,4.98-18.47c0.84-6.48,1.2-13.01,0.89-19.51
					c-0.29-6.49-1.24-12.93-2.74-19.24c-1.48-6.33-3.57-12.5-5.86-18.72c-1.14-3.12-2.33-6.24-3.42-9.48
					c-1.08-3.25-2.08-6.62-2.63-10.25c-0.56-3.6-0.6-7.54,0.38-11.35c0.95-3.81,2.85-7.29,5.1-10.27l1.77-2.14
					c0.6-0.7,1.26-1.31,1.89-1.97l0.96-0.97c0.33-0.31,0.67-0.59,1-0.89l2.02-1.76c1.39-1.08,2.78-2.16,4.2-3.18
					c1.44-0.96,2.86-2.01,4.32-2.88l4.39-2.62l2.19-1.31c0.73-0.44,1.46-0.88,2.22-1.25l4.53-2.34c1.52-0.76,3-1.6,4.56-2.28
					c6.18-2.82,12.43-5.45,18.83-7.65l4.81-1.62c1.61-0.52,3.24-0.97,4.85-1.46c1.62-0.46,3.22-1.01,4.86-1.4l4.91-1.23
					c1.63-0.43,3.28-0.76,4.93-1.13c1.65-0.34,3.28-0.75,4.94-1.03l4.97-0.89c1.66-0.28,3.32-0.52,4.98-0.77
					c6.67-0.88,13.34-1.6,20.07-1.6l0.06,0.8c-26.11,5.04-51.41,13.28-74.68,25.15c-1.48,0.68-2.88,1.53-4.32,2.3l-4.29,2.35
					c-2.82,1.62-5.58,3.35-8.38,5.01c-5.45,3.39-10.6,7.17-14.4,11.66c-1.85,2.26-3.29,4.69-4.07,7.31
					c-0.79,2.62-0.94,5.47-0.59,8.45c0.71,5.98,3.02,12.23,5.07,18.57c1.06,3.17,2.08,6.4,3.03,9.65c0.91,3.27,1.79,6.56,2.45,9.92
					c1.38,6.68,2.18,13.51,2.28,20.34c0.12,6.83-0.47,13.63-1.54,20.33c-1.12,6.68-2.57,13.47-6.02,19.72
					c-1.74,3.08-4.12,5.99-7.19,8.01c-3.06,2.05-6.6,3.1-10.01,3.62c-3.43,0.53-6.81,0.63-10.13,0.76
					c-3.33,0.13-6.61,0.27-9.87,0.65c-3.26,0.35-6.47,0.98-9.58,1.92c-1.58,0.42-3.08,1.06-4.61,1.62l-2.22,1.03
					c-0.37,0.18-0.74,0.34-1.11,0.53l-1.07,0.6c-5.74,3.15-10.86,7.46-15.28,12.39L158.23,1953.54z"/>
			</g>
			<g>
				<path class="st18" d="M203,1910.26c4.2-5.21,9.16-9.88,14.93-13.46l1.08-0.68c0.37-0.21,0.75-0.4,1.12-0.6l2.26-1.18
					c1.56-0.67,3.1-1.4,4.72-1.92c3.2-1.14,6.53-1.95,9.87-2.46c3.34-0.54,6.7-0.85,10.02-1.13c3.32-0.29,6.6-0.55,9.74-1.18
					c3.13-0.63,6.07-1.69,8.48-3.48c2.42-1.76,4.28-4.23,5.68-6.99c2.82-5.56,4.02-12.07,4.83-18.51c0.78-6.49,1.1-13.02,0.73-19.51
					c-0.34-6.49-1.34-12.92-2.9-19.22c-1.53-6.31-3.67-12.47-6.01-18.67c-1.17-3.11-2.38-6.22-3.5-9.46
					c-1.1-3.24-2.13-6.6-2.72-10.23c-0.59-3.6-0.66-7.54,0.29-11.36c0.92-3.82,2.79-7.32,5.01-10.31l1.76-2.15
					c0.6-0.7,1.25-1.32,1.88-1.98l0.95-0.98c0.33-0.31,0.66-0.6,0.99-0.9l2-1.78c1.38-1.09,2.76-2.19,4.17-3.21
					c1.43-0.97,2.84-2.03,4.3-2.91l4.36-2.66l2.18-1.33c0.73-0.45,1.45-0.89,2.21-1.27l4.51-2.38c1.51-0.77,2.99-1.63,4.54-2.31
					c6.16-2.87,12.39-5.55,18.77-7.8l4.79-1.66c1.6-0.53,3.23-1,4.84-1.5c1.62-0.48,3.21-1.03,4.85-1.44l4.9-1.27
					c1.62-0.44,3.28-0.79,4.92-1.17c1.65-0.36,3.27-0.78,4.94-1.07l4.96-0.93c1.66-0.29,3.32-0.54,4.98-0.81
					c6.66-0.94,13.33-1.71,20.06-1.76l0.07,0.8c-26.07,5.25-51.31,13.69-74.48,25.75c-1.48,0.69-2.87,1.55-4.3,2.33l-4.27,2.39
					c-2.81,1.64-5.55,3.39-8.33,5.08c-5.43,3.43-10.54,7.25-14.31,11.78c-1.83,2.27-3.25,4.71-4.01,7.34
					c-0.77,2.63-0.9,5.48-0.52,8.45c0.76,5.97,3.11,12.2,5.22,18.53c1.09,3.16,2.13,6.38,3.11,9.63c0.93,3.27,1.85,6.55,2.53,9.9
					c1.44,6.67,2.29,13.49,2.44,20.32c0.18,6.83-0.36,13.64-1.37,20.34c-1.06,6.68-2.46,13.49-5.86,19.77
					c-1.72,3.09-4.07,6.02-7.13,8.07c-3.04,2.07-6.57,3.15-9.98,3.7c-3.43,0.56-6.8,0.68-10.13,0.85c-3.33,0.15-6.61,0.33-9.86,0.73
					c-3.25,0.38-6.46,1.03-9.57,2c-1.57,0.43-3.07,1.08-4.6,1.66l-2.21,1.05c-0.37,0.18-0.74,0.34-1.1,0.53l-1.06,0.61
					c-5.72,3.19-10.8,7.55-15.18,12.51L203,1910.26z"/>
			</g>
			<g>
				<path class="st18" d="M159.11,1961.38c-0.01-6.69,0.91-13.45,3.15-19.85l0.41-1.2c0.15-0.4,0.33-0.78,0.5-1.17l1.02-2.34
					c0.79-1.5,1.53-3.04,2.47-4.46c1.78-2.9,3.85-5.62,6.13-8.12c2.26-2.52,4.68-4.87,7.08-7.18c2.4-2.31,4.79-4.58,6.82-7.04
					c2.04-2.45,3.66-5.14,4.41-8.04c0.78-2.9,0.67-5.98,0.02-9.01c-1.31-6.1-4.47-11.91-7.89-17.43
					c-3.47-5.54-7.34-10.82-11.7-15.63c-4.34-4.83-9.17-9.2-14.34-13.12c-5.16-3.94-10.7-7.39-16.41-10.74
					c-2.86-1.68-5.76-3.34-8.67-5.15c-2.9-1.83-5.81-3.79-8.54-6.24c-2.72-2.43-5.25-5.45-6.91-9.01
					c-1.69-3.55-2.43-7.44-2.58-11.17l0.01-2.78c0.02-0.92,0.14-1.81,0.21-2.72l0.12-1.36c0.06-0.45,0.14-0.88,0.21-1.32l0.44-2.64
					c0.39-1.72,0.77-3.44,1.22-5.12c0.5-1.65,0.93-3.36,1.51-4.97l1.72-4.81l0.86-2.4c0.28-0.8,0.57-1.61,0.92-2.38l2.01-4.69
					c0.69-1.55,1.3-3.14,2.08-4.65c2.99-6.1,6.14-12.11,9.69-17.87l2.68-4.31c0.91-1.42,1.88-2.81,2.82-4.21
					c0.96-1.39,1.85-2.82,2.87-4.17l3.01-4.07c0.98-1.37,2.05-2.67,3.09-4c1.05-1.31,2.06-2.67,3.17-3.93l3.27-3.84
					c1.1-1.27,2.24-2.51,3.36-3.76c4.59-4.91,9.29-9.71,14.49-13.98l0.55,0.58c-16.97,20.48-31.28,42.91-41.72,66.86
					c-0.71,1.47-1.26,3.01-1.88,4.52l-1.82,4.54c-1.15,3.04-2.18,6.13-3.29,9.19c-2.06,6.08-3.63,12.27-3.72,18.16
					c0,2.92,0.44,5.71,1.5,8.23c1.05,2.53,2.75,4.82,4.91,6.9c4.35,4.16,10.1,7.53,15.71,11.12c2.83,1.77,5.67,3.62,8.47,5.53
					c2.78,1.95,5.55,3.93,8.19,6.11c5.31,4.29,10.27,9.05,14.67,14.26c4.43,5.2,8.3,10.83,11.72,16.68
					c3.38,5.87,6.57,12.04,7.88,19.06c0.61,3.49,0.62,7.24-0.47,10.76c-1.06,3.52-3.13,6.58-5.43,9.15
					c-2.32,2.59-4.86,4.81-7.34,7.03c-2.49,2.21-4.94,4.41-7.21,6.77c-2.29,2.34-4.38,4.86-6.18,7.57
					c-0.95,1.33-1.71,2.77-2.53,4.18l-1.06,2.21c-0.17,0.37-0.36,0.73-0.52,1.11l-0.44,1.14c-2.44,6.08-3.65,12.66-3.94,19.27
					L159.11,1961.38z"/>
			</g>
		</g>
		<g>
			<path class="st18" d="M159.15,1958.55c3.23-2.93,6.62-5.77,10.45-8.03c3.8-2.28,7.92-4.16,12.27-5.4
				c4.36-1.23,8.91-1.8,13.42-1.9c4.51-0.07,8.96,0.31,13.24,0.61c2.12,0.12,4.24,0.25,6.24,0.15c1.02,0,1.97-0.14,2.94-0.21
				c0.47-0.07,0.92-0.16,1.38-0.24l0.69-0.12l0.64-0.18c3.48-0.84,6.19-2.52,8.85-5.07c2.64-2.54,4.95-5.92,7.13-9.48
				c2.25-3.55,4.2-7.4,6.58-11.2l0.77,0.22c-0.19,4.48-0.83,8.92-2.18,13.27c-1.34,4.33-3.19,8.7-6.4,12.58l-1.25,1.43
				c-0.42,0.47-0.95,0.87-1.43,1.31c-0.94,0.89-2.08,1.6-3.21,2.29c-2.33,1.26-4.91,2.18-7.45,2.44l-0.95,0.13l-0.93,0.04
				c-0.62,0.02-1.24,0.06-1.85,0.06c-1.2-0.05-2.42-0.06-3.56-0.19c-1.17-0.09-2.3-0.25-3.41-0.4c-1.13-0.13-2.2-0.32-3.31-0.48
				c-4.33-0.67-8.5-1.37-12.66-1.65c-4.15-0.33-8.31-0.23-12.4,0.48c-4.1,0.67-8.13,1.95-12,3.68l-2.87,1.4
				c-0.95,0.49-1.85,1.06-2.78,1.59l-1.4,0.8l-1.34,0.89l-2.7,1.79L159.15,1958.55z"/>
		</g>
		<g>
			<path class="st18" d="M160.56,1957.4c-2.67-3.45-5.24-7.05-7.19-11.04c-1.98-3.97-3.53-8.22-4.44-12.65
				c-0.89-4.44-1.11-9.02-0.86-13.52c0.27-4.5,1-8.91,1.63-13.15c0.28-2.11,0.58-4.21,0.64-6.21c0.08-1.02,0.01-1.97,0.01-2.95
				c-0.03-0.47-0.09-0.93-0.13-1.4l-0.06-0.69l-0.13-0.66c-0.57-3.54-2.04-6.37-4.38-9.22c-2.33-2.83-5.52-5.39-8.9-7.85
				c-3.36-2.52-7.06-4.76-10.66-7.42l0.28-0.75c4.45,0.54,8.83,1.51,13.06,3.2c4.22,1.67,8.42,3.86,12.05,7.35l1.32,1.36
				c0.44,0.46,0.8,1.02,1.2,1.53c0.82,1.01,1.43,2.2,2.04,3.38c1.08,2.42,1.79,5.07,1.86,7.61l0.05,0.96l-0.03,0.93
				c-0.03,0.62-0.04,1.24-0.08,1.85c-0.14,1.19-0.24,2.41-0.47,3.53c-0.18,1.16-0.42,2.27-0.66,3.37c-0.22,1.12-0.49,2.17-0.73,3.26
				c-1,4.27-2.03,8.36-2.62,12.5c-0.65,4.12-0.87,8.27-0.48,12.4c0.35,4.14,1.31,8.26,2.74,12.25l1.17,2.97
				c0.42,0.98,0.92,1.93,1.37,2.9l0.69,1.46l0.78,1.41l1.58,2.83L160.56,1957.4z"/>
		</g>
	</g>
	<g id="water_rays">
		<defs>
			<polygon id="water_2_" points="1366,4708 0,4708 0,870 281,990.86 1366,870 			"/>
		</defs>
		<clipPath id="water_4_">
			<use xlink:href="#water_2_"  style="overflow:visible;"/>
		</clipPath>
		<g id="rays" class="st19">
			
				<linearGradient id="SVGID_5_" gradientUnits="userSpaceOnUse" x1="71.0147" y1="453.1526" x2="-518.7131" y2="2382.0654" gradientTransform="matrix(0.9529 0.3033 -0.3033 0.9529 684.2466 -41.5857)">
				<stop  offset="0" style="stop-color:#78A0B0"/>
				<stop  offset="0" style="stop-color:#89ACBA"/>
				<stop  offset="0" style="stop-color:#A8C2CC"/>
				<stop  offset="0" style="stop-color:#C4D5DC"/>
				<stop  offset="0" style="stop-color:#DAE5E9"/>
				<stop  offset="0" style="stop-color:#EBF1F3"/>
				<stop  offset="0" style="stop-color:#F6F9FA"/>
				<stop  offset="0" style="stop-color:#FDFEFE"/>
				<stop  offset="0" style="stop-color:#FFFFFF"/>
				<stop  offset="1" style="stop-color:#000000;stop-opacity:0"/>
			</linearGradient>
			<polygon class="st20" points="-445.89,2693.33 -567.86,2654.51 187.39,281.81 309.36,320.63 			"/>
			
				<linearGradient id="SVGID_6_" gradientUnits="userSpaceOnUse" x1="149.8546" y1="466.7597" x2="-433.4573" y2="2374.687" gradientTransform="matrix(0.9529 0.3033 -0.3033 0.9529 684.2466 -41.5857)">
				<stop  offset="0" style="stop-color:#78A0B0"/>
				<stop  offset="0" style="stop-color:#89ACBA"/>
				<stop  offset="0" style="stop-color:#A8C2CC"/>
				<stop  offset="0" style="stop-color:#C4D5DC"/>
				<stop  offset="0" style="stop-color:#DAE5E9"/>
				<stop  offset="0" style="stop-color:#EBF1F3"/>
				<stop  offset="0" style="stop-color:#F6F9FA"/>
				<stop  offset="0" style="stop-color:#FDFEFE"/>
				<stop  offset="0" style="stop-color:#FFFFFF"/>
				<stop  offset="1" style="stop-color:#000000;stop-opacity:0"/>
			</linearGradient>
			<polygon class="st21" points="-409.68,2704.86 -445.89,2693.33 309.36,320.63 345.57,332.16 			"/>
			
				<linearGradient id="SVGID_7_" gradientUnits="userSpaceOnUse" x1="202.0564" y1="462.8288" x2="-383.1089" y2="2376.8186" gradientTransform="matrix(0.9529 0.3033 -0.3033 0.9529 684.2466 -41.5857)">
				<stop  offset="0" style="stop-color:#78A0B0"/>
				<stop  offset="0" style="stop-color:#89ACBA"/>
				<stop  offset="0" style="stop-color:#A8C2CC"/>
				<stop  offset="0" style="stop-color:#C4D5DC"/>
				<stop  offset="0" style="stop-color:#DAE5E9"/>
				<stop  offset="0" style="stop-color:#EBF1F3"/>
				<stop  offset="0" style="stop-color:#F6F9FA"/>
				<stop  offset="0" style="stop-color:#FDFEFE"/>
				<stop  offset="0" style="stop-color:#FFFFFF"/>
				<stop  offset="1" style="stop-color:#000000;stop-opacity:0"/>
			</linearGradient>
			<polygon class="st22" points="-348.69,2724.27 -409.68,2704.86 345.57,332.16 406.55,351.57 			"/>
			
				<linearGradient id="SVGID_8_" gradientUnits="userSpaceOnUse" x1="426.3839" y1="469.9347" x2="-155.4309" y2="2372.9653" gradientTransform="matrix(0.9529 0.3033 -0.3033 0.9529 684.2466 -41.5857)">
				<stop  offset="0" style="stop-color:#78A0B0"/>
				<stop  offset="0" style="stop-color:#89ACBA"/>
				<stop  offset="0" style="stop-color:#A8C2CC"/>
				<stop  offset="0" style="stop-color:#C4D5DC"/>
				<stop  offset="0" style="stop-color:#DAE5E9"/>
				<stop  offset="0" style="stop-color:#EBF1F3"/>
				<stop  offset="0" style="stop-color:#F6F9FA"/>
				<stop  offset="0" style="stop-color:#FDFEFE"/>
				<stop  offset="0" style="stop-color:#FFFFFF"/>
				<stop  offset="1" style="stop-color:#000000;stop-opacity:0"/>
			</linearGradient>
			<polygon class="st23" points="-155.25,2785.84 -171.45,2780.68 583.79,407.98 599.99,413.14 			"/>
			
				<linearGradient id="SVGID_9_" gradientUnits="userSpaceOnUse" x1="469.0564" y1="462.8288" x2="-116.109" y2="2376.8186" gradientTransform="matrix(0.9529 0.3033 -0.3033 0.9529 684.2466 -41.5857)">
				<stop  offset="0" style="stop-color:#78A0B0"/>
				<stop  offset="0" style="stop-color:#89ACBA"/>
				<stop  offset="0" style="stop-color:#A8C2CC"/>
				<stop  offset="0" style="stop-color:#C4D5DC"/>
				<stop  offset="0" style="stop-color:#DAE5E9"/>
				<stop  offset="0" style="stop-color:#EBF1F3"/>
				<stop  offset="0" style="stop-color:#F6F9FA"/>
				<stop  offset="0" style="stop-color:#FDFEFE"/>
				<stop  offset="0" style="stop-color:#FFFFFF"/>
				<stop  offset="1" style="stop-color:#000000;stop-opacity:0"/>
			</linearGradient>
			<polygon class="st24" points="-94.27,2805.25 -155.25,2785.84 599.99,413.14 660.97,432.55 			"/>
			
				<linearGradient id="SVGID_10_" gradientUnits="userSpaceOnUse" x1="589.3174" y1="447.2562" x2="-3.1907" y2="2385.2629" gradientTransform="matrix(0.9529 0.3033 -0.3033 0.9529 684.2466 -41.5857)">
				<stop  offset="0" style="stop-color:#78A0B0"/>
				<stop  offset="0" style="stop-color:#89ACBA"/>
				<stop  offset="0" style="stop-color:#A8C2CC"/>
				<stop  offset="0" style="stop-color:#C4D5DC"/>
				<stop  offset="0" style="stop-color:#DAE5E9"/>
				<stop  offset="0" style="stop-color:#EBF1F3"/>
				<stop  offset="0" style="stop-color:#F6F9FA"/>
				<stop  offset="0" style="stop-color:#FDFEFE"/>
				<stop  offset="0" style="stop-color:#FFFFFF"/>
				<stop  offset="1" style="stop-color:#000000;stop-opacity:0"/>
			</linearGradient>
			<polygon class="st25" points="64.86,2855.91 -94.27,2805.25 660.97,432.55 820.11,483.2 			"/>
			
				<linearGradient id="SVGID_11_" gradientUnits="userSpaceOnUse" x1="700.0564" y1="462.8288" x2="114.891" y2="2376.8186" gradientTransform="matrix(0.9529 0.3033 -0.3033 0.9529 684.2466 -41.5857)">
				<stop  offset="0" style="stop-color:#78A0B0"/>
				<stop  offset="0" style="stop-color:#89ACBA"/>
				<stop  offset="0" style="stop-color:#A8C2CC"/>
				<stop  offset="0" style="stop-color:#C4D5DC"/>
				<stop  offset="0" style="stop-color:#DAE5E9"/>
				<stop  offset="0" style="stop-color:#EBF1F3"/>
				<stop  offset="0" style="stop-color:#F6F9FA"/>
				<stop  offset="0" style="stop-color:#FDFEFE"/>
				<stop  offset="0" style="stop-color:#FFFFFF"/>
				<stop  offset="1" style="stop-color:#000000;stop-opacity:0"/>
			</linearGradient>
			<polygon class="st26" points="125.85,2875.32 64.86,2855.91 820.11,483.2 881.09,502.62 			"/>
			
				<linearGradient id="SVGID_12_" gradientUnits="userSpaceOnUse" x1="796.8044" y1="458.7466" x2="209.7143" y2="2379.032" gradientTransform="matrix(0.9529 0.3033 -0.3033 0.9529 684.2466 -41.5857)">
				<stop  offset="0" style="stop-color:#78A0B0"/>
				<stop  offset="0" style="stop-color:#89ACBA"/>
				<stop  offset="0" style="stop-color:#A8C2CC"/>
				<stop  offset="0" style="stop-color:#C4D5DC"/>
				<stop  offset="0" style="stop-color:#DAE5E9"/>
				<stop  offset="0" style="stop-color:#EBF1F3"/>
				<stop  offset="0" style="stop-color:#F6F9FA"/>
				<stop  offset="0" style="stop-color:#FDFEFE"/>
				<stop  offset="0" style="stop-color:#FFFFFF"/>
				<stop  offset="1" style="stop-color:#000000;stop-opacity:0"/>
			</linearGradient>
			<polygon class="st27" points="229.71,2908.38 143,2880.78 898.24,508.08 984.96,535.68 			"/>
			
				<linearGradient id="SVGID_13_" gradientUnits="userSpaceOnUse" x1="980.6624" y1="433.0443" x2="381.4532" y2="2392.9692" gradientTransform="matrix(0.9529 0.3033 -0.3033 0.9529 684.2466 -41.5857)">
				<stop  offset="0" style="stop-color:#78A0B0"/>
				<stop  offset="0" style="stop-color:#89ACBA"/>
				<stop  offset="0" style="stop-color:#A8C2CC"/>
				<stop  offset="0" style="stop-color:#C4D5DC"/>
				<stop  offset="0" style="stop-color:#DAE5E9"/>
				<stop  offset="0" style="stop-color:#EBF1F3"/>
				<stop  offset="0" style="stop-color:#F6F9FA"/>
				<stop  offset="0" style="stop-color:#FDFEFE"/>
				<stop  offset="0" style="stop-color:#FFFFFF"/>
				<stop  offset="1" style="stop-color:#000000;stop-opacity:0"/>
			</linearGradient>
			<polygon class="st28" points="478.42,2987.54 229.71,2908.38 984.96,535.68 1233.66,614.84 			"/>
			
				<linearGradient id="SVGID_14_" gradientUnits="userSpaceOnUse" x1="1184.9808" y1="459.805" x2="598.3898" y2="2378.4583" gradientTransform="matrix(0.9529 0.3033 -0.3033 0.9529 684.2466 -41.5857)">
				<stop  offset="0" style="stop-color:#78A0B0"/>
				<stop  offset="0" style="stop-color:#89ACBA"/>
				<stop  offset="0" style="stop-color:#A8C2CC"/>
				<stop  offset="0" style="stop-color:#C4D5DC"/>
				<stop  offset="0" style="stop-color:#DAE5E9"/>
				<stop  offset="0" style="stop-color:#EBF1F3"/>
				<stop  offset="0" style="stop-color:#F6F9FA"/>
				<stop  offset="0" style="stop-color:#FDFEFE"/>
				<stop  offset="0" style="stop-color:#FFFFFF"/>
				<stop  offset="1" style="stop-color:#000000;stop-opacity:0"/>
			</linearGradient>
			<polygon class="st29" points="596.58,3025.15 516.54,2999.67 1271.78,626.97 1351.82,652.45 			"/>
			
				<linearGradient id="SVGID_15_" gradientUnits="userSpaceOnUse" x1="1312.6787" y1="447.7098" x2="720.3845" y2="2385.0168" gradientTransform="matrix(0.9529 0.3033 -0.3033 0.9529 684.2466 -41.5857)">
				<stop  offset="0" style="stop-color:#78A0B0"/>
				<stop  offset="0" style="stop-color:#89ACBA"/>
				<stop  offset="0" style="stop-color:#A8C2CC"/>
				<stop  offset="0" style="stop-color:#C4D5DC"/>
				<stop  offset="0" style="stop-color:#DAE5E9"/>
				<stop  offset="0" style="stop-color:#EBF1F3"/>
				<stop  offset="0" style="stop-color:#F6F9FA"/>
				<stop  offset="0" style="stop-color:#FDFEFE"/>
				<stop  offset="0" style="stop-color:#FFFFFF"/>
				<stop  offset="1" style="stop-color:#000000;stop-opacity:0"/>
			</linearGradient>
			<polygon class="st30" points="752.85,3074.9 596.58,3025.15 1351.82,652.45 1508.1,702.19 			"/>
			
				<linearGradient id="SVGID_16_" gradientUnits="userSpaceOnUse" x1="1436.2582" y1="458.8978" x2="849.2394" y2="2378.95" gradientTransform="matrix(0.9529 0.3033 -0.3033 0.9529 684.2466 -41.5857)">
				<stop  offset="0" style="stop-color:#78A0B0"/>
				<stop  offset="0" style="stop-color:#89ACBA"/>
				<stop  offset="0" style="stop-color:#A8C2CC"/>
				<stop  offset="0" style="stop-color:#C4D5DC"/>
				<stop  offset="0" style="stop-color:#DAE5E9"/>
				<stop  offset="0" style="stop-color:#EBF1F3"/>
				<stop  offset="0" style="stop-color:#F6F9FA"/>
				<stop  offset="0" style="stop-color:#FDFEFE"/>
				<stop  offset="0" style="stop-color:#FFFFFF"/>
				<stop  offset="1" style="stop-color:#000000;stop-opacity:0"/>
			</linearGradient>
			<polygon class="st31" points="838.61,3102.19 752.85,3074.9 1508.1,702.19 1593.86,729.49 			"/>
			
				<linearGradient id="SVGID_17_" gradientUnits="userSpaceOnUse" x1="1570.8876" y1="530.2822" x2="978.5934" y2="2467.5894" gradientTransform="matrix(0.9529 0.3033 -0.3033 0.9529 684.2466 -41.5857)">
				<stop  offset="0" style="stop-color:#78A0B0"/>
				<stop  offset="0" style="stop-color:#89ACBA"/>
				<stop  offset="0" style="stop-color:#A8C2CC"/>
				<stop  offset="0" style="stop-color:#C4D5DC"/>
				<stop  offset="0" style="stop-color:#DAE5E9"/>
				<stop  offset="0" style="stop-color:#EBF1F3"/>
				<stop  offset="0" style="stop-color:#F6F9FA"/>
				<stop  offset="0" style="stop-color:#FDFEFE"/>
				<stop  offset="0" style="stop-color:#FFFFFF"/>
				<stop  offset="1" style="stop-color:#000000;stop-opacity:0"/>
			</linearGradient>
			<polygon class="st32" points="973.85,3231.9 817.58,3182.15 1572.82,809.45 1729.1,859.19 			"/>
			
				<linearGradient id="SVGID_18_" gradientUnits="userSpaceOnUse" x1="1734.2684" y1="120.4192" x2="1141.9742" y2="2057.7263" gradientTransform="matrix(0.9529 0.3033 -0.3033 0.9529 684.2466 -41.5857)">
				<stop  offset="0" style="stop-color:#78A0B0"/>
				<stop  offset="0" style="stop-color:#89ACBA"/>
				<stop  offset="0" style="stop-color:#A8C2CC"/>
				<stop  offset="0" style="stop-color:#C4D5DC"/>
				<stop  offset="0" style="stop-color:#DAE5E9"/>
				<stop  offset="0" style="stop-color:#EBF1F3"/>
				<stop  offset="0" style="stop-color:#F6F9FA"/>
				<stop  offset="0" style="stop-color:#FDFEFE"/>
				<stop  offset="0" style="stop-color:#FFFFFF"/>
				<stop  offset="1" style="stop-color:#000000;stop-opacity:0"/>
			</linearGradient>
			<polygon class="st33" points="1253.85,2890.9 1097.58,2841.15 1852.82,468.45 2009.1,518.19 			"/>
			
				<linearGradient id="SVGID_19_" gradientUnits="userSpaceOnUse" x1="332.6957" y1="444.3836" x2="-261.1669" y2="2386.8206" gradientTransform="matrix(0.9529 0.3033 -0.3033 0.9529 684.2466 -41.5857)">
				<stop  offset="0" style="stop-color:#78A0B0"/>
				<stop  offset="0" style="stop-color:#89ACBA"/>
				<stop  offset="0" style="stop-color:#A8C2CC"/>
				<stop  offset="0" style="stop-color:#C4D5DC"/>
				<stop  offset="0" style="stop-color:#DAE5E9"/>
				<stop  offset="0" style="stop-color:#EBF1F3"/>
				<stop  offset="0" style="stop-color:#F6F9FA"/>
				<stop  offset="0" style="stop-color:#FDFEFE"/>
				<stop  offset="0" style="stop-color:#FFFFFF"/>
				<stop  offset="1" style="stop-color:#000000;stop-opacity:0"/>
			</linearGradient>
			<polygon class="st34" points="-171.45,2780.68 -348.69,2724.27 406.55,351.57 583.79,407.98 			"/>
			
				<linearGradient id="SVGID_20_" gradientUnits="userSpaceOnUse" x1="738.9301" y1="469.7835" x2="157.044" y2="2373.0471" gradientTransform="matrix(0.9529 0.3033 -0.3033 0.9529 684.2466 -41.5857)">
				<stop  offset="0" style="stop-color:#78A0B0"/>
				<stop  offset="0" style="stop-color:#89ACBA"/>
				<stop  offset="0" style="stop-color:#A8C2CC"/>
				<stop  offset="0" style="stop-color:#C4D5DC"/>
				<stop  offset="0" style="stop-color:#DAE5E9"/>
				<stop  offset="0" style="stop-color:#EBF1F3"/>
				<stop  offset="0" style="stop-color:#F6F9FA"/>
				<stop  offset="0" style="stop-color:#FDFEFE"/>
				<stop  offset="0" style="stop-color:#FFFFFF"/>
				<stop  offset="1" style="stop-color:#000000;stop-opacity:0"/>
			</linearGradient>
			<polygon class="st35" points="143,2880.78 125.85,2875.32 881.09,502.62 898.24,508.08 			"/>
			
				<linearGradient id="SVGID_21_" gradientUnits="userSpaceOnUse" x1="1120.947" y1="466.4573" x2="537.4926" y2="2374.8508" gradientTransform="matrix(0.9529 0.3033 -0.3033 0.9529 684.2466 -41.5857)">
				<stop  offset="0" style="stop-color:#78A0B0"/>
				<stop  offset="0" style="stop-color:#89ACBA"/>
				<stop  offset="0" style="stop-color:#A8C2CC"/>
				<stop  offset="0" style="stop-color:#C4D5DC"/>
				<stop  offset="0" style="stop-color:#DAE5E9"/>
				<stop  offset="0" style="stop-color:#EBF1F3"/>
				<stop  offset="0" style="stop-color:#F6F9FA"/>
				<stop  offset="0" style="stop-color:#FDFEFE"/>
				<stop  offset="0" style="stop-color:#FFFFFF"/>
				<stop  offset="1" style="stop-color:#000000;stop-opacity:0"/>
			</linearGradient>
			<polygon class="st36" points="516.54,2999.67 478.42,2987.54 1233.66,614.84 1271.78,626.97 			"/>
		</g>
	</g>
	<line class="st37" x1="681" y1="946.3" x2="681" y2="4708"/>
	
		<linearGradient id="shelf_3_" gradientUnits="userSpaceOnUse" x1="758.0001" y1="2458.6531" x2="758.0001" y2="3397.2993" gradientTransform="matrix(-1 0 0 1 1951 0)">
		<stop  offset="0" style="stop-color:#78A0B0"/>
		<stop  offset="0.0306" style="stop-color:#5F879D"/>
		<stop  offset="0.0672" style="stop-color:#49718D"/>
		<stop  offset="0.1104" style="stop-color:#386080"/>
		<stop  offset="0.1639" style="stop-color:#2D5577"/>
		<stop  offset="0.2389" style="stop-color:#264E72"/>
		<stop  offset="0.4471" style="stop-color:#244C71"/>
		<stop  offset="0.6154" style="stop-color:#234A6E"/>
		<stop  offset="0.7306" style="stop-color:#1E4365"/>
		<stop  offset="0.8299" style="stop-color:#173856"/>
		<stop  offset="0.9197" style="stop-color:#0D2840"/>
		<stop  offset="1" style="stop-color:#001426"/>
	</linearGradient>
	<polyline id="shelf_1_" class="st38" points="1366,2437.35 1072.61,2467.58 1020,3376 1366,3376 1366,2437.35 	"/>
</g>
<g id="scuba_diver_1">
	<g id="scuba_diver">
		<g id="fins_1_">
			<path id="right_fin_1_" class="st39" d="M101.93,1482.78c16.38-6.74,32.46-12.53,47.81-15.94c10.65-1.96,20.77-5.56,30.17-11.38
				c8.52-5.61,15.12-6.01,19.35,0c0.52,0.85,0.76,1.78,0.57,2.85c-1.18,4.72-2.17,8.69-2.85,11.38c-4.63-0.76-8.8,0.01-12.52,2.28
				c-11.95,10.67-25.09,18.41-39.84,22.2c-11.18,4.57-20.41,8.35-25.04,10.25c-1.65,0.55-3.46,0.36-5.69-1.71l-11.38-13.66
				C99.19,1486.65,99.34,1484.6,101.93,1482.78z"/>
			<g id="stripes_1_">
				<path class="st40" d="M107.05,1494.17l2.28,2.85c5.36-3.66,18.06-7.77,31.87-11.95c8.79-2.35,16.78-5.74,23.91-10.25l15.37-8.54
					c-6.96,1.46-13.49,3.32-18.21,6.83c-6.72,4.17-14.85,7.27-23.91,9.68C124.6,1486.55,114.07,1490.34,107.05,1494.17z"/>
				<path class="st41" d="M110.47,1498.15l1.71,2.28c7.22-3.05,16.59-6.32,26.75-9.68c8.23-2.97,15.65-6.11,21.06-9.68
					c5.71-2.96,10.88-5.65,15.37-7.97c-10.33,3.59-19.53,7.31-26.18,11.38c-7.46,3.71-16.17,6.41-25.61,8.54
					C118.34,1494.27,113.63,1495.8,110.47,1498.15z"/>
			</g>
			<path id="fin_1_" class="st39" d="M140.64,1512.95c22.65-15.33,43.51-29.97,58.06-42.12c1.32-0.66,2.64-0.81,3.98,0l28.46,5.12
				c-3.59,1.04-6.26,2.54-7.97,4.55c-10.01-0.44-17.24,0.23-21.06,2.28l-29.03,17.08l-22.2,13.66
				C146.95,1513.71,143.44,1513.59,140.64,1512.95z"/>
		</g>
		<g id="right_leg_1_">
			<path class="st42" d="M199.83,1458.23c26.18-1.71,25.04-2.85,40.41,2.85l9.68-9.68c2.56-1.9,4.37-5.09,5.69-9.11
				c4.32-8.92,9.27-16.84,16.51-21.06c3.6-3.05,8.22-4.26,13.66-3.98l18.78,21.06c-12.4,5.93-23.87,14.36-34.72,24.47l-15.37,11.95
				c-1.48,1.39-4.93,1.5-9.11,1.14h-14.23c-13.72-2.6-31.08-5.99-34.15-6.26L199.83,1458.23z"/>
		</g>
		<g id="left_leg_1_">
			<path class="st43" d="M223.17,1480.43c1.57-1.89,4.17-3.43,7.97-4.55h14.23c3.83,0.42,6.72,0.19,8.61-0.77l15.87-12.32
				c5.56-5.12,11.16-9.85,16.84-13.85l7.44-4.93c2.71-1.76,6.21-3.67,10.43-5.69l4.55,5.12c-6.26,2.85-12.52,6.83-15.94,13.09
				l-9.68,12.52l-6.83,7.97c-13.66,13.66-15.37,15.37-29.6,10.25L223.17,1480.43z"/>
			<g id="stripe_1_">
				<path class="st44" d="M198.69,1462.89l1.14-4.59l39.27,4.55c3.3,0.92,6.27-1.68,9.11-5.69c5.9-5.9,11.78-13.75,17.64-22.2
					c1.27-3.93,6.15-7.92,13.09-11.95l5.69-2.85l6.83,9.68l-41.55,36.43c-1.77,2.71-5.61,3-10.81,1.71L198.69,1462.89z"/>
			</g>
		</g>
		<g id="Layer_13_1_">
			<path class="st45" d="M342.6,1376.23c7.39,5.03,12.61,5.98,16.03,3.53c4.52-7.58,8.58-15.34,4.55-26.18
				c-3.45-7.13-10.61-8.1-20.49-4.55c-5.56,2.74-8.86,5.93-9.06,9.71C331.94,1368.76,336.13,1373.52,342.6,1376.23z"/>
			<g id="Layer_14_1_">
				
					<linearGradient id="SVGID_22_" gradientUnits="userSpaceOnUse" x1="-33.0082" y1="9991.2148" x2="-30.3431" y2="9995.8311" gradientTransform="matrix(1 0 0 -1 377 11374)">
					<stop  offset="0.0687" style="stop-color:#D6B181"/>
					<stop  offset="0.2841" style="stop-color:#D3AC7D"/>
					<stop  offset="0.5362" style="stop-color:#C99E70"/>
					<stop  offset="0.7398" style="stop-color:#BE8D60"/>
				</linearGradient>
				<path class="st46" d="M346.78,1384.2c0.54-1.52,1.66-2.84,3.64-3.86c-2.33-0.76-4.94-2.18-7.72-4c0.4,1.39,0.59,2.72,0.57,3.98
					C344.33,1382.59,345.49,1384.05,346.78,1384.2z"/>
			</g>
		</g>
		<g id="Layer_15_1_">
			
				<linearGradient id="SVGID_23_" gradientUnits="userSpaceOnUse" x1="-28.2168" y1="10011.5459" x2="-40.9066" y2="10033.5254" gradientTransform="matrix(1 0 0 -1 377 11374)">
				<stop  offset="0.0976" style="stop-color:#754C24"/>
				<stop  offset="0.7116" style="stop-color:#BE8D60"/>
				<stop  offset="0.835" style="stop-color:#C09264"/>
				<stop  offset="0.9478" style="stop-color:#C69C6D"/>
			</linearGradient>
			<path class="st47" d="M333.48,1365.63c1.74,0.34,3.27,0.84,4.66,1.46c-1.55-1.18-1.72-3.63-1.71-6.26
				c1.22-3.87,3.28-6.03,6.26-6.26c4.07-0.11,7.79-1.76,11.38-3.98c4.01,1.85,8.62,4.17,9.31,3.42c2.65-2.15,3.81-4.95,3.21-8.54
				c-3.5-3.94-6.98-7.81-9.11-7.97c-1.9,0.07-3.8,0.45-5.69,1.14c-1.56,0.46-2.9,0.13-3.98-1.14c0.01,0.77,0.57,1.53,1.71,2.28
				c2.34-0.26,4.86-0.15,7.4,0c1.66,0.02,2.54,0.49,1.14,2.28c-0.4,1.54,1.5,2.48,3.42,3.42l-2.85,1.14c-1.21-0.54-1.18-1.3,0-2.28
				c-0.83-0.78-1.59-0.55-2.28,1.14c-0.02-2.07-0.43-3.74-1.71-4.55c-1,0.46-2,0.91-2.28,0c-0.38,0.67-0.28,1.28,1.71,1.71
				c1.28-0.1,0.92,1.38,0.57,2.85c-1.1-1.34-2.32-2.48-3.98-2.85c-1.55-0.16-2.48-0.93-2.85-2.28c0,0-0.91-3.31-1.71-3.42
				c-0.99-0.13-1.45-2.52-1.14-2.85c-0.93-0.36-1.24,0.76-1.14,2.85c0.5,1.46,1.04,2.74,1.71,3.42c0.79,0.66,1.64,1.3,1.14,2.28
				c-0.27,0.85,0.18,1.39,1.14,1.71l-1.71-0.57c-1.14-0.43-2.21-0.92-2.85-1.71c-0.43-0.52-0.59-1.31-0.57-2.28l-0.57,1.71
				c-0.25,0.74-0.22,1.5,0,2.28c0.2,0.48,0.88,0.84,1.71,1.14c0.42,0.17,0.54,0.61,0.57,1.14l-1.71,0.57
				c-1.47,0.54-2.5,0.46-2.85-0.57c-0.32-1.22-0.79-2.29-1.71-2.85l-2.85-1.14c-0.67,0.19-1.29,0.27-1.71,0
				c-0.63-0.52-1.73-0.83-2.85-1.14c0.32,0.93,0.65,1.86,1.14,2.28c0.84,0.55,2.07,0.88,3.42,1.14c1.18,0.39,1.78,1.02,2.28,1.71
				c0.38,0.55,0.34,1.33,0,2.28c0.54,0.6,1.76,0.73,3.42,0.57l-2.85,1.14c-1.66,0.51-3.12,0.6-3.98-0.57
				c-0.68-0.55-1.61-0.93-2.85-1.14h-2.85c-0.83,0.07-1.35,0.28-1.71,0.57c2.05-0.17,3.37,0.22,3.98,1.14l1.14,1.71
				c0.5,0.55,1.95,0.56,3.42,0.57c0,0-1.1-0.23-1.14,0.57c-0.05,1.04-2.38,0.98-2.85,0.57c-0.64-0.1-1.42,0.14-2.28,0.57
				c-3.12,1.67-2.23,1.83-0.57,1.71c1.79-0.81,3.15-1.04,3.98-0.57c0.88,0.43,1.86,0.23,2.85,0l-2.85,2.28l-2.85,1.71
				c-0.65,0.73-1.65,1.34-3.42,1.71c-8.4,1.45-5.24,2.25,0.57,1.14c0.75,0.18,1.54-0.14,2.28-0.57c0.96-1.31,1.69-1.38,2.29-0.78
				c-3.15,2.17-2.46,2.28,1.23,0.8c0.67,0.6,0.46,1.17-1.24,1.68c-0.94-0.09-2.04,0.05-3.42,0.57c-4.44,1.25-3.23,1.15,0,0.57
				C331.11,1363.26,332.46,1364.28,333.48,1365.63z"/>
		</g>
		<g id="BCD_Vest_1_">
			<g id="Layer_8_1_">
				
					<linearGradient id="SVGID_24_" gradientUnits="userSpaceOnUse" x1="-103.3423" y1="9931.4912" x2="-103.3423" y2="10015.126" gradientTransform="matrix(1 0 0 -1 377 11374)">
					<stop  offset="0.1164" style="stop-color:#333333"/>
					<stop  offset="0.2683" style="stop-color:#686868"/>
					<stop  offset="0.4127" style="stop-color:#939393"/>
					<stop  offset="0.542" style="stop-color:#B2B2B2"/>
					<stop  offset="0.6514" style="stop-color:#C5C5C5"/>
					<stop  offset="0.7278" style="stop-color:#CCCCCC"/>
					<stop  offset="0.8174" style="stop-color:#D0D0D0"/>
					<stop  offset="0.9021" style="stop-color:#DBDBDB"/>
					<stop  offset="0.9846" style="stop-color:#EEEEEE"/>
					<stop  offset="0.9979" style="stop-color:#F2F2F2"/>
				</linearGradient>
				<path class="st48" d="M229.43,1423.16c6.76,9.84,13.19,17.39,18.78,19.35l64.89-64.89c1.82-2.21,2.99-5.16,2.28-10.25
					c1.96-1.41,3.02-3.32,2.28-6.26h-2.28c-0.57-2.61-1.75-2.87-3.42-1.14l-3.98,2.28c-7.84-4.54-12.75-1.86-17.08,2.28
					L229.43,1423.16z"/>
				<path class="st49" d="M307.97,1362.25l7.4,5.12c1.96-1.41,3.02-3.32,2.28-6.26h-2.28c-0.51-1.84-1.25-2.98-2.76-1.74
					L307.97,1362.25"/>
			</g>
			
				<linearGradient id="SVGID_25_" gradientUnits="userSpaceOnUse" x1="-89.2298" y1="10009.6943" x2="-48.1908" y2="9960.7861" gradientTransform="matrix(1 0 0 -1 377 11374)">
				<stop  offset="0.2952" style="stop-color:#2D323D"/>
				<stop  offset="0.5386" style="stop-color:#000000"/>
				<stop  offset="0.6422" style="stop-color:#121318"/>
				<stop  offset="0.7638" style="stop-color:#21242C"/>
				<stop  offset="0.884" style="stop-color:#2A2F39"/>
				<stop  offset="1" style="stop-color:#2D323D"/>
			</linearGradient>
			<path class="st50" d="M285.78,1417.47c-0.95-1.9,0-3.8,2.85-5.69l-1.14-1.14c-0.62-0.19-1.2-0.08-1.71,0.57l-11.95,10.25
				l-9.11-14.23c-1.89-3.15-1.9-6.06,1.14-8.54l17.64-13.66l-5.12-5.69h-2.85l-0.57-2.85l-1.14-1.14l5.12-5.12l2.28,1.71l1.71-0.57
				l0.57,2.85l6.26,6.26c1.06,0.85,2.04,1.12,2.85,0c5.13-3.96,11.99-6.59,20.49-7.97c2.47,0.64,4.55,0.05,6.26-1.71l1.14-1.14
				l-16.51-12.52c-1.01-3.31-0.52-5.82,1.71-7.4c2.23-0.94,4.75-1.5,7.97-1.14c4.89,1.06,9.18,3.07,13.09,5.69l13.66,9.11l7.97,5.12
				c2.45,1.72,4.52,2.25,6.26,1.71l-1.14,2.85c-1.53,0.45-3.65-0.18-6.26-1.71c-13.37-9.02-26.22-17.55-31.87-19.35
				c-3.11-0.87-5.96-0.67-8.54,0.57c-0.46,1.72-0.4,3.2,1.14,3.98l3.98,3.42l10.81,8.54c4.52-3.56,9.71-3.61,15.37-1.14
				c2.89,3.94,4.83,8.21,5.12,13.09c-4.01-5.72-9.08-5.75-14.8-2.28c-7.46,4.55-12.94,9.45-15.94,14.8
				c-1.23,6.63-0.43,11.67,2.85,14.8l14.23,21.06c3.29,4.92,2.32,7.97-1.71,9.68l-10.25,9.11c-2.01,1.55-4.1,1.26-6.26-0.57
				l-2.36-3.51L285.78,1417.47z"/>
		</g>
		<g id="right_arm_1_">
			
				<linearGradient id="SVGID_26_" gradientUnits="userSpaceOnUse" x1="-33.7939" y1="9941.1855" x2="9.8395" y2="10016.7607" gradientTransform="matrix(1 0 0 -1 377 11374)">
				<stop  offset="0.0687" style="stop-color:#2D323D"/>
				<stop  offset="0.1418" style="stop-color:#343A49"/>
				<stop  offset="0.2761" style="stop-color:#3E4359"/>
				<stop  offset="0.4296" style="stop-color:#434962"/>
				<stop  offset="0.6429" style="stop-color:#454B65"/>
				<stop  offset="0.6743" style="stop-color:#4B506A"/>
				<stop  offset="0.792" style="stop-color:#5F607B"/>
				<stop  offset="0.8727" style="stop-color:#666681"/>
			</linearGradient>
			<path class="st51" d="M325.45,1422.56l-12.33-18.17c-0.81-3.55-1.61-7.09-0.72-10.73c1.92-4.28,5.57-8.34,10.95-12.19l4.21-2.85
				c6.35-4.21,11.69-4.08,15.71,1.71c1.04,2.46,2.45,4.05,4.55,3.98c3.51,2.27,20.49,1.71,34.15,4.55c2.31-0.53,4.8-1.11,7.4-1.71
				l29.6-11.38l5.12,9.68l-34.72,18.78c-4.35,3.03-8.71,3.97-13.09,3.42l-34.72-2.85c-2.54,0.68-4.37,2.08-5.12,4.55
				C333.29,1416.15,329.35,1419.28,325.45,1422.56z"/>
		</g>
		<g id="left_arm_1_">
			<path class="st43" d="M337.23,1407.65c1.63-1.92,3.27-2.85,4.91-2.79l35.24,2.79c1.59,0.15,3.49,0.03,5.81-0.46l-14.31,10.14
				c-4.42,1.31-8.44,1.43-11.95,0L337.23,1407.65z"/>
		</g>
		<g id="regulator_1_">
			<path class="st52" d="M353.67,1372.51l1.54,0.98c-0.89,0.08-1.34,0.83-1.71,1.71c3.85,0.92,6.7,0.48,7.4-2.85l-2.28-1.71
				c-1.26-0.64-1.96-0.36-2.28,0.57l-1.92-0.61L353.67,1372.51z"/>
			<path class="st53" d="M359.77,1368.95c2.62-0.1,4.55,0.61,5.69,2.28c0.57,3.69-0.03,5.35-1.71,5.12
				c2.05,1.91,1.66,3.81-0.57,5.69c-3.98,3.98-6.96,5.46-10.81,1.14c-3.28-3.86-3.73-6.79,1.14-7.97c3.74,1.01,6.49,0.51,7.4-2.85
				l-1.74-1.3L359.77,1368.95z"/>
		</g>
		<g id="mask_2_">
			<path id="mask_3_" class="st54" d="M346.68,1361.55c1.71,0,2.85-3.98,0.57-5.12l3.98-2.28c0.52-0.5,0.98-0.36,1.43,0l9.38,2.85
				l6.59,3.4l-4.34,9.64c-1.29-0.85-2.81-1.18-4.52-1.08l-0.57,2.28c-1.14-1.43-2.98-2.24-5.69-2.28c-1.25-0.43-1.45-1.57-0.57-3.42
				C350.89,1366.2,348.8,1364.81,346.68,1361.55z"/>
			<path id="right_lense_ceal_1_" d="M352.79,1364.3c-1.88-0.14-3.69-1.06-3.81-3.17c-0.85-2.15,0.67-4.47,3.17-6.98l7.61,2.54
				c0.68,0.72,0.85,1.53,0,2.54C357.39,1361.82,355.06,1363.46,352.79,1364.3z"/>
			<path id="right_lense_1_" class="st55" d="M352.94,1363.82c-1.69-0.13-3.32-0.96-3.42-2.85c-0.76-1.92,0.6-4.01,2.85-6.26
				l6.83,2.28c0.61,0.64,0.77,1.37,0,2.28C357.07,1361.6,354.98,1363.08,352.94,1363.82z"/>
			<path id="left_lense_ceal_1_" d="M362.05,1357.56v9.71c0.05,1.58,0.98,2.11,2.24,2.24c2.38,0.03,3.93-0.91,4.48-2.99
				c0.81-1.99,0.81-3.98,0-5.98L362.05,1357.56z"/>
			<path id="left_lense_1_" class="st56" d="M362.55,1358.34v8.62c0.05,1.4,0.87,1.87,1.99,1.99c2.11,0.02,3.48-0.81,3.98-2.65
				c0.72-1.76,0.72-3.53,0-5.3L362.55,1358.34z"/>
			<path class="st53" d="M344.4,1357.56l2.85-1.14c2.28,1.14,1.4,3.91-0.46,5.29l-2.39-0.74
				C343.22,1360.81,342.83,1359.99,344.4,1357.56z"/>
		</g>
		<g id="hand_1_">
			<path class="st57" d="M419.33,1376.46c0.52-2.43,1.66-5.09,3.62-8.09c0-2.82,0.67-5.26,2.85-6.83c3.34-3.37,4.55-3.11,3.42,1.14
				c-1.64,1.48-2.17,3-1.71,4.55c0.64,0.83,1.41,0.81,2.28,0c3.52-2.79,8.03-5.43,13.09-7.97c2.48-0.76,3.98,0,1.71,2.28
				l-10.81,6.83c-0.26,1.16,0.34,1.52,1.71,1.14c4.91-2.64,9.56-4.74,13.66-5.69c3.81-0.28,3.82,0.8,1.14,2.85
				c-4.14,1.56-8.32,3.28-12.52,5.12c0.09,1.19,0.66,1.57,1.71,1.14l9.11-3.42c4.55-2.28,5.12,1.14,1.14,2.28l-9.68,4.55
				c-0.18,1.01,0.22,1.37,1.14,1.14l6.83-1.14c2.59,0.04,2.47,0.89,0.57,2.28c-8.81,1.22-17.08,3.28-24.84,6.14L419.33,1376.46z"/>
		</g>
	</g>
</g>
<g id="scuba_diver_2">
	<g>
		<g id="head_1_">
			<path class="st58" d="M1051.47,2291.66c-3.25-2.19-5.05-8.71-5.86-18.23c-0.47-6,1.97-10.68,7.07-14.15
				c8.24-4.29,15.67-5.07,21.93-0.71c2.67,3.12,2.83,7.07,2.83,14.86c-0.23,5.36-0.89,9.72-1.75,13.67
				C1066.14,2288.61,1057.35,2290.13,1051.47,2291.66z"/>
		</g>
		<g id="left_arm_4_">
			<path id="left_arm_6_" class="st59" d="M1031.46,2295.47c-9.75-3.14-19.66-4.71-29.71-4.95c-1.87-5.19-4.94-8.96-9.2-11.32
				c-1.39,0.6-1.64,1.53-0.71,2.83l2.83,2.83c-0.13,0.98-0.51,1.43-1.41,0.71l-11.32-3.54c-2.12-0.71-4.24,1.41-2.12,2.12l7.78,2.83
				c0.76,1.13-0.06,1.56-2.12,1.42l-8.49-2.12c-2.12,0-2.83,2.12-0.71,2.83c3.39,0.31,6.51,0.95,9.2,2.12
				c0.64,0.71-0.04,0.86-1.41,0.71l-7.07-0.71c-2.12-0.71-2.12,2.12-1.41,2.12c3.3,0.51,6.58,1.01,9.2,1.41
				c2.15,1.3,1.71,1.96-0.71,2.12h-5.66c-1.47-0.06-1.91,0.54-2.12,1.41c0.04,0.8,0.86,0.94,2.12,0.71c7.24-0.64,14.3-0.59,21.22,0
				c14.07,4.58,26.76,9.64,36.79,15.56c11.11,0.46,22.47-0.23,33.96-1.42c4.46-4.15,7.87-4.54,9.9,0
				c7.47,8.77,16.19,16.32,26.17,22.64c5.93-7.65,10.75-16.92,14.15-28.3c-13.36-8.57-28.88-18.9-31.83-19.1
				c-3.54-2.12-13.44-2.12-23.35-0.71c-7.07,0.71-11.86,2.23-14.15,4.24l-12.03,3.54
				C1036.91,2297.05,1034.27,2296.78,1031.46,2295.47z"/>
			<path id="left_arm_5_" class="st59" d="M1120.6,2307.38c-9.61-5.97-18.7-12.55-28.3-17.69c-1.24-0.66-3.01-0.79-4.24-1.41"/>
		</g>
		<g id="right_arm_2_">
			<path class="st60" d="M1045.55,2280.28l2.89-13.92c-10.25-4.2-19.89-9.2-29-14.86c-2.33-1.2-4.16-3.16-5.66-5.66
				c-0.66-1.57-1.83-1.59-3.54,0l-2.12,3.54l-2.12,2.12c0.18,0.57,0.67,0.79,1.41,0.71c1.15-0.2,2.32-0.54,3.54-1.41
				c0.7-0.38,1.19-0.41,1.41,0c0.21,0.76,0.22,1.48,0,2.12l-4.95,2.83c-0.91,1.07-0.95,1.79,0,2.12c3.3-0.71,6.17-0.98,7.78,0
				C1021.53,2261.24,1033.8,2271.04,1045.55,2280.28z"/>
			<path class="st61" d="M1003.16,2255.74c-2.37,2.67-1.51,3.11,1.41,2.12l19.1-11.32l-4.24-4.24L1003.16,2255.74z"/>
		</g>
		<g id="torso_1_">
			<path id="belly_1_" class="st59" d="M1108.65,2344.88c7.45-7.35,13.95-18.86,19.81-33.25l10.61,7.07v35.37
				C1126.44,2352.11,1115.89,2349.23,1108.65,2344.88z"/>
			<path id="chest_1_" class="st59" d="M1102.2,2339.22c-1.97,4.12-5.05,2.91-8.49,0c-12.22-8.1-19.44-16.9-23.35-26.17l1.68-1.41
				C1081.14,2323.91,1090.88,2332.85,1102.2,2339.22z"/>
		</g>
		<g id="bandana_1_">
			
				<linearGradient id="SVGID_27_" gradientUnits="userSpaceOnUse" x1="681.3684" y1="9121.7354" x2="712.6754" y2="9090.4287" gradientTransform="matrix(1 0 0 -1 377 11374)">
				<stop  offset="0" style="stop-color:#A67C52"/>
				<stop  offset="0.1711" style="stop-color:#A0774E"/>
				<stop  offset="0.3914" style="stop-color:#906843"/>
				<stop  offset="0.6388" style="stop-color:#765030"/>
				<stop  offset="0.904" style="stop-color:#512F16"/>
				<stop  offset="1" style="stop-color:#42210B"/>
			</linearGradient>
			<path class="st62" d="M1046.47,2274.83c-2.99-1.25-3.28-4.4-0.86-9.44c5.66-7.07,11.32-9.9,17.69-10.61
				c7.07,0,12.03,2.83,13.44,6.37c1.39,3.44,1.51,6.03,0.71,7.78c1.66,2.98,2.2,5.39,1.55,6.18l2.93,2.31l2.6,0.01
				c1.97-5.83,4.51-10.46,8.49-12.03c-2.71,2.11-2.95,3.59,0,4.24c4.96-4.01,9.73-5.85,14.15-3.54
				c-7.92-0.79-15.06,6.55-21.51,14.74c-3.6-0.64-7.79,0.26-12.39,2.23c-2.82-0.4-4.75-3.99-6.41-8.47c-1.33,0.34-2.61,0.42-3.8,0
				C1054.93,2274.03,1047.51,2273.65,1046.47,2274.83z"/>
		</g>
		<g id="scuba_tank_1_">
			<circle class="st63" cx="1093.71" cy="2274.84" r="4.24"/>
			<path class="st64" d="M1126.26,2281.92l20.27,12.42l30.66,18.71c-2.86,11.3-7.58,17.21-13.44,19.81l-71.45-47.4
				c-2.31-10.53,2.92-14.97,15.56-13.44L1126.26,2281.92z"/>
		</g>
		<g id="BCD_vest_1_">
			<path class="st65" d="M1078.15,2310.21c-4.24-2.12-6.37,0.71-4.53,3.51c7.94,10.56,17.44,19.09,28.58,25.5
				c-0.56,1.3-1.42,2.18-2.64,2.57l9.01,3.08c8.28-9.27,14.99-20.23,19.81-33.25l10.61,7.07c1.09,0.21,1.69-0.45,2.12-1.41
				l14.15-19.1c-1.27-5.2-4.2-6.37-8.49-4.24l-9.2,14.86l-21.22-14.15l9.9-12.73c1.41-4.24-4.24-7.07-7.07-4.24l-9.9,14.15
				l-16.98-8.49c-8.23-4.32-15.56-2.83-26.88,4.24c15.04-2.26,23.56-1.19,31.13,4.95l24.05,14.86c-3.4,10.75-8.2,19.85-14.15,27.59
				C1095.63,2327.94,1086.08,2319.79,1078.15,2310.21z"/>
		</g>
		<g id="mask_4_">
			<path id="mask_5_" class="st66" d="M1046.32,2275.55c-1.41,8.49-2.83,14.86,4.5,16.41c1.61-1.12,3.57-2.07,6.2-2.65
				c10.02-6.59,20.94-10.92,32.45-13.75l1.41-3.54c-11.77,2.76-23.36,7.01-34.66,13.44c-0.86-1.02-1.17-3-0.71-6.37l7.07-1.41
				c-0.32-1.01-0.21-1.97,0.71-2.83C1054.81,2274.84,1046.23,2273.36,1046.32,2275.55z"/>
			<path id="strap_1_" class="st66" d="M1066.83,2274.84c0.29,2.42,0.89,3.75,2.12,2.83c3.47-1.62,6.52-3.52,9.2-5.66
				c1.08-1.57,0.66-2.53-1.41-2.83C1074.1,2271.16,1070.77,2273.05,1066.83,2274.84z"/>
			<path id="lense_1_" class="st67" d="M1047.73,2286.01c-0.76-3.13-0.94-6.45-0.71-9.9h7.07c0.45,6.13-0.23,9.05-1.41,10.61
				C1050.18,2286.93,1048.04,2286.95,1047.73,2286.01z"/>
		</g>
		<g id="right_fin_2_">
			
				<linearGradient id="SVGID_28_" gradientUnits="userSpaceOnUse" x1="920.0447" y1="9042.2979" x2="887.4194" y2="9098.8066" gradientTransform="matrix(1 0 0 -1 377 11374)">
				<stop  offset="0" style="stop-color:#13131B"/>
				<stop  offset="0.3441" style="stop-color:#171920"/>
				<stop  offset="0.7865" style="stop-color:#24292F"/>
				<stop  offset="1" style="stop-color:#2C3339"/>
			</linearGradient>
			<path class="st68" d="M1253.59,2282.62l5.66-4.24c3.31-2.65,6.61-3.34,9.9-1.41l29,27.59c-0.9,9.01,0.81,16.9,4.24,24.05
				l-4.24-1.42c-3.78-6.73-20.93-20.9-36.08-33.96c-0.98-1.32-2.39-1.58-4.24-0.71C1255.62,2289.54,1254.14,2286.27,1253.59,2282.62
				z"/>
		</g>
		<g id="left_leg_2_">
			
				<linearGradient id="SVGID_29_" gradientUnits="userSpaceOnUse" x1="762.0704" y1="9042.5635" x2="881.6256" y2="9042.5635" gradientTransform="matrix(1 0 0 -1 377 11374)">
				<stop  offset="0" style="stop-color:#13131B"/>
				<stop  offset="0.3441" style="stop-color:#171920"/>
				<stop  offset="0.7865" style="stop-color:#24292F"/>
				<stop  offset="1" style="stop-color:#2C3339"/>
			</linearGradient>
			<path class="st69" d="M1139.07,2354.07v-35.37c14.4-9.68,26.83-8.77,38.2-2.12c9.12,2.74,26.58,4.61,45.28,6.37l14.86-5.66
				c2.58-4,7.71-7.1,17.69-8.49c0.31,6.61,1.5,12.51,3.54,17.69l-35.37,16.27c-11.76,4-24.93,6.08-38.91,7.07L1139.07,2354.07z"/>
		</g>
		<g id="right_leg_2_">
			
				<linearGradient id="SVGID_30_" gradientUnits="userSpaceOnUse" x1="847.4894" y1="9051.0527" x2="847.4894" y2="9075.8125" gradientTransform="matrix(1 0 0 -1 377 11374)">
				<stop  offset="0" style="stop-color:#13131B"/>
				<stop  offset="0.3441" style="stop-color:#171920"/>
				<stop  offset="0.7865" style="stop-color:#24292F"/>
				<stop  offset="1" style="stop-color:#2C3339"/>
			</linearGradient>
			<path class="st70" d="M1229.54,2298.19l12.73,9.9c-4.34,3.32-8.75,7.59-13.2,12.34l-6.61,2.52l-15.76-1.57
				C1213.09,2312.31,1220.23,2304.08,1229.54,2298.19z"/>
			<path class="st71" d="M1229.54,2298.19c5.54-4.53,13.84-9.79,24.05-15.56c0.45,3.49,1.99,6.77,4.24,9.9
				c-5.68,4.4-10.83,9.65-15.56,15.56L1229.54,2298.19z"/>
			<path class="st71" d="M1255.01,2308.8c0.78,7.41,1.73,14.14,3.54,17.69l31.13-15.56c-2.84-2.6-4.82-5.84-5.66-9.9
				C1273.74,2304.81,1263.99,2307.55,1255.01,2308.8z"/>
		</g>
		<g id="left_fin_1_">
			
				<linearGradient id="SVGID_31_" gradientUnits="userSpaceOnUse" x1="913.4511" y1="9061.1377" x2="954.8018" y2="9090.0918" gradientTransform="matrix(1 0 0 -1 377 11374)">
				<stop  offset="0" style="stop-color:#2C3339"/>
				<stop  offset="0.1141" style="stop-color:#24292F;stop-opacity:0.9786"/>
				<stop  offset="0.3505" style="stop-color:#171920;stop-opacity:0.9344"/>
				<stop  offset="0.5344" style="stop-color:#13131B;stop-opacity:0.9"/>
				<stop  offset="0.7046" style="stop-color:#171820;stop-opacity:0.9378"/>
				<stop  offset="0.9091" style="stop-color:#24272F;stop-opacity:0.9833"/>
				<stop  offset="0.9843" style="stop-color:#2A2E36"/>
			</linearGradient>
			<path class="st72" d="M1284.01,2301.02c0.81,3.76,2.57,7.11,5.66,9.9c11.69,1.48,23.25,1.78,34.66,0.71
				c6.32-3.56,11.3-8.72,14.86-15.56c0.11-2.2-1.42-4.06-4.24-5.66c-4.3-3.13-8.26-4.53-12.03-4.95c-5.73-0.37-9.39,1.15-11.32,4.24
				c-2.13,3.03-4.5,5.36-7.07,7.07c-3.38,0.81-6.42-1.09-9.2-4.95c-0.71-4.24-6.37-2.12-6.37,0.71
				C1288.58,2295.73,1286.74,2298.5,1284.01,2301.02z"/>
		</g>
	</g>
</g>
<g id="free_diver" class="st73">
	<g class="st74">
		<g>
			
				<image style="display:none;overflow:visible;enable-background:new    ;" width="754" height="1040" xlink:href="../../Screen Shot 2018-10-24 at 8.27.05 PM.png"  transform="matrix(0.4809 0 0 0.4809 530.1391 3062)">
			</image>
		</g>
		<g id="Layer_4_1_">
			
				<linearGradient id="SVGID_32_" gradientUnits="userSpaceOnUse" x1="427.715" y1="7723.001" x2="427.715" y2="7858.3945" gradientTransform="matrix(1 0 0 -1 377 11374)">
				<stop  offset="0" style="stop-color:#333C53"/>
				<stop  offset="0.0466" style="stop-color:#2F384F"/>
				<stop  offset="0.2804" style="stop-color:#21283C"/>
				<stop  offset="0.4482" style="stop-color:#1C2236"/>
				<stop  offset="0.6475" style="stop-color:#20273B"/>
				<stop  offset="0.7852" style="stop-color:#2B3348"/>
				<stop  offset="0.9286" style="stop-color:#323B51"/>
			</linearGradient>
			<path class="st75" d="M776.51,3627.57l2.35-31.73l1.18-25.86c-1.83-3.3-2.76-10.13-3.53-17.63l-5.88-30.56
				c6.72-3.71,14.55-5.68,23.51-5.88h27.03c6.83-0.79,12.76-0.09,17.63,2.35l-2.35,27.03l1.18,18.8
				c-5.88,10.58-1.18,35.26,1.18,63.47c-4.1,5.65-12.2,12.67-21.16,19.98c-7.19,4.49-14.62,4.71-22.33,0
				C788.59,3641.78,782.35,3635.07,776.51,3627.57z"/>
		</g>
		<g id="left_arm_2_">
			<g id="right_arm_5_">
				
					<linearGradient id="SVGID_33_" gradientUnits="userSpaceOnUse" x1="376.7826" y1="7788.1958" x2="443.3817" y2="7788.1958" gradientTransform="matrix(1 0 0 -1 377 11374)">
					<stop  offset="0" style="stop-color:#333C53"/>
					<stop  offset="1" style="stop-color:#1C2236"/>
				</linearGradient>
				<path class="st76" d="M754.44,3575.08c-2.22,11.55,1.22,19.05,10.32,22.48c15.46-1.32,34.87-4.38,55.63-8.06l-20.31-6.76
					c-4.55-1.35-8.92-2.35-13-2.82l-30.56-5.88L754.44,3575.08z"/>
			</g>
			<path class="st77" d="M760.05,3538.8c-0.19-6.84,2.76-12.53,10.58-16.45c5.01-2.75,10.5-4.5,16.45-5.32l-11.05,33.43
				c1.42,5.58,2.2,10.54,1.65,14.21c-9.03,0.04-16.3,1.76-22.33,4.7C756.75,3557.06,758.22,3545.6,760.05,3538.8z"/>
			<g id="right_hand_1_">
				<path class="st78" d="M788.23,3565.14c-15.09-1.76-26.26,0.65-35.22,5.39c-2.35,2.35-0.28,5.02,3.53,4.7
					c-4.7,3.53-4.94,6.43,1.18,5.88c-4.7,2.35-4.6,5.22,0,4.7c-2.84,4.5-1.07,5.28,2.35,4.7c9.61-4.37,18.78-8.11,27.03-10.58
					L788.23,3565.14z"/>
			</g>
		</g>
		<g id="right_arm_4_">
			<path class="st77" d="M787.09,3579.93c10.25,0.96,30.32,8.29,51.71,16.45c9.24,3.11,15.49,0.68,17.63-9.4
				c1.36-11.29,1.39-22.94-1.18-35.26c-1.72-3.2-2.2-9.43-2.35-16.45c-1.28-11.47-9.11-18.3-25.86-18.8l9.4,29.38
				c0.82,9.98,1.47,17.18,2.35,19.98c-13.77-1.21-31.13-1.46-50.54-1.18L787.09,3579.93z"/>
		</g>
		<g id="neck_2_">
			
				<radialGradient id="neck_1_" cx="430.0656" cy="7855.9873" r="12.3965" gradientTransform="matrix(1 0 0 -1 377 11374)" gradientUnits="userSpaceOnUse">
				<stop  offset="0" style="stop-color:#20273B"/>
				<stop  offset="0.4123" style="stop-color:#232A3F"/>
				<stop  offset="0.8042" style="stop-color:#2C344A"/>
				<stop  offset="1" style="stop-color:#333C53"/>
			</radialGradient>
			<path id="neck_3_" class="st79" d="M791.79,3516.47c3.13-1.18,4.07-3.67,3.53-7.05c6.72,7.43,14.56,7.43,23.51,0
				c-0.52,2.71,0.69,5.05,3.53,7.05C812.94,3529.4,800.01,3530.57,791.79,3516.47z"/>
		</g>
		<g id="legs_1_">
			
				<linearGradient id="SVGID_34_" gradientUnits="userSpaceOnUse" x1="429.7303" y1="7582.7632" x2="429.7303" y2="7779.751" gradientTransform="matrix(1 0 0 -1 377 11374)">
				<stop  offset="0" style="stop-color:#333C53"/>
				<stop  offset="0.0589" style="stop-color:#2F384F"/>
				<stop  offset="0.3549" style="stop-color:#21283C"/>
				<stop  offset="0.5672" style="stop-color:#1C2236"/>
				<stop  offset="0.7564" style="stop-color:#323B51"/>
				<stop  offset="0.8639" style="stop-color:#20273B"/>
			</linearGradient>
			<path class="st80" d="M775.76,3626.97c-5.49,29.35-5.19,63.92-0.02,102.91l5.9,61.36h16.52l-1.18-55.46l1.18-11.8l4.72-47.2
				c2.62,1.37,5.39,1.25,8.26,0l4.72,62.54v51.92h15.34l5.9-50.74l1.18-18.88c1.18-24.78,7.08-51.92,0-94.4L775.76,3626.97z"/>
		</g>
		<g id="post_1_">
			<path class="st81" d="M804.14,3791.24H810v-111.65c-1.96-2.02-3.9-2.02-5.86,0V3791.24z"/>
		</g>
		<g id="bottom_bell_1_">
			<path class="st82" d="M790.61,3651.63l-17.63-21.16c-0.39-2.59,1.01-3.13,3.53-2.35c26.88,31.76,32.77,31.76,62.29,0
				c4.8-0.01,6.26,1.6,4.7,4.7l-23.51,18.8C824.69,3682.18,794.14,3697.46,790.61,3651.63z"/>
			<path class="st83" d="M819.99,3651.63c-6.1,12.34-17.88,5.71-29.38,0"/>
			<path class="st84" d="M776.81,3805.59v-10.03c-0.33-5.58,3.62-8,10.54-8.23h39.83c5.38-0.19,8.94,1.1,8.2,5.88v11.7h3.91v48.82
				h-5.19l-8.23,149.32c-0.08,6.7-3.23,9.28-8.23,8.85h-21.16c-5.56,0.72-8.38-1.96-8.23-7.67l-8.23-149.26
				c-5.16,0.94-7.62-0.91-7.13-5.88v-38.78C772.48,3807.71,776.81,3805.59,776.81,3805.59z"/>
		</g>
		<g id="head_2_">
			
				<linearGradient id="SVGID_35_" gradientUnits="userSpaceOnUse" x1="409.5703" y1="7892.3628" x2="451.3287" y2="7892.3628" gradientTransform="matrix(1 0 0 -1 377 11374)">
				<stop  offset="0" style="stop-color:#333C53"/>
				<stop  offset="0.0466" style="stop-color:#2F384F"/>
				<stop  offset="0.2804" style="stop-color:#21283C"/>
				<stop  offset="0.4482" style="stop-color:#1C2236"/>
				<stop  offset="0.6475" style="stop-color:#20273B"/>
				<stop  offset="0.7852" style="stop-color:#2B3348"/>
				<stop  offset="0.9286" style="stop-color:#323B51"/>
			</linearGradient>
			<path class="st85" d="M796.02,3509.78c-5.19-3.83-8.94-9.19-9.45-17.99v-25.86c7.05-24.68,35.26-22.33,41.14,0
				c0.99,7.99,0.66,17.35,0,27.03c-1.63,7.4-4.41,12.99-8.29,16.82C810.99,3516.33,803.12,3517.1,796.02,3509.78"/>
		</g>
		<g id="face_1_">
			<path class="st86" d="M806.48,3508.83c7.51-3.13,13.22-7.12,15.28-12.93c2.43-5.51,2.12-12.68,0.59-20.57
				c-1.72-5.03-4.65-9.04-10.58-10.58c-4.14-0.54-8.36-0.81-12.93,0c-5.42,0.6-8.74,4.43-10.58,10.58
				c-0.38,7.04-0.25,13.56,1.18,18.8C790.68,3501.13,796.22,3506.09,806.48,3508.83z"/>
		</g>
		<g id="goggles_1_">
			<g id="goggle_1_">
				<path class="st87" d="M784.62,3488.34c13.93,2.6,28.11,2.35,42.96-4.77v-8.35c-15.11,11.89-29.57,10.32-42.96,7.16v6.2"/>
			</g>
			<g id="lens_1_">
				<circle class="st18" cx="797.66" cy="3487.09" r="3.53"/>
				<circle class="st18" cx="812.94" cy="3485.91" r="3.53"/>
			</g>
		</g>
		<g id="nose_plug_1_">
			<path class="st88" d="M800.01,3492.96c-2.35,16.02,15.28,13.7,11.75,0c0-2.35-3.53-3.53-3.72,0v5.88c0.19,2.35-4.51,3.53-3.91,0
				v-5.88C803.54,3490.61,800.01,3490.61,800.01,3492.96z"/>
		</g>
		<g id="top_bell_1_">
			<path class="st89" d="M856.87,3533.49h-29.29l-0.55-61.68c-0.62-29.99-42.93-32.34-41.76,0.88l1.18,60.8h-27.21v-223.31
				c5.88-62.29,84.69-69.34,97.63-1.18V3533.49z"/>
		</g>
	</g>
</g>
</svg>
