<svg xmlns="http://www.w3.org/2000/svg" xmlns:xlink="http://www.w3.org/1999/xlink" viewBox="0 0 2576.95 7167"><defs><style>.cls-1{fill:none;}.cls-2{isolation:isolate;}.cls-3{fill:url(#linear-gradient);}.cls-4{fill:#feffe6;}.cls-15,.cls-35,.cls-5{opacity:0.5;}.cls-5,.cls-6{mix-blend-mode:darken;}.cls-5{fill:url(#linear-gradient-2);}.cls-6{fill:url(#linear-gradient-3);}.cls-7{fill:#ddddd7;}.cls-8{fill:#e8e7da;}.cls-9{fill:url(#linear-gradient-4);}.cls-10{fill:url(#linear-gradient-5);}.cls-11{fill:url(#linear-gradient-6);}.cls-12{mix-blend-mode:screen;}.cls-13{fill:#204a66;}.cls-14{fill:url(#linear-gradient-7);}.cls-16,.cls-35{fill:#fff;}.cls-17{clip-path:url(#clip-path);}.cls-18{opacity:0.78;fill:url(#linear-gradient-8);}.cls-19,.cls-20,.cls-25,.cls-33,.cls-34{opacity:0.9;}.cls-19{fill:url(#linear-gradient-9);}.cls-20{fill:url(#linear-gradient-10);}.cls-21{opacity:0.8;fill:url(#linear-gradient-11);}.cls-22,.cls-26{opacity:0.89;}.cls-22{fill:url(#linear-gradient-12);}.cls-23{fill:url(#linear-gradient-13);}.cls-24{fill:url(#linear-gradient-14);}.cls-25{fill:url(#linear-gradient-15);}.cls-26{fill:url(#linear-gradient-16);}.cls-27{fill:url(#linear-gradient-17);}.cls-28{fill:url(#linear-gradient-18);}.cls-29{opacity:0.85;fill:url(#linear-gradient-19);}.cls-30{fill:url(#linear-gradient-20);}.cls-31{fill:url(#linear-gradient-21);}.cls-32{fill:url(#linear-gradient-22);}.cls-33{fill:url(#linear-gradient-23);}.cls-34{fill:url(#linear-gradient-24);}.cls-35{stroke:#fff;stroke-miterlimit:10;stroke-width:5px;}.cls-36{fill:url(#linear-gradient-25);}</style><linearGradient id="linear-gradient" x1="1248.34" y1="4.18" x2="1253.36" y2="962.19" gradientUnits="userSpaceOnUse"><stop offset="0" stop-color="#f19ca2"/><stop offset="0.67" stop-color="#f8d7d0"/><stop offset="1" stop-color="#ffe9ce"/></linearGradient><linearGradient id="linear-gradient-2" x1="1041.4" y1="369.51" x2="1044.34" y2="932.07" xlink:href="#linear-gradient"/><linearGradient id="linear-gradient-3" x1="821.04" y1="510.65" x2="823.28" y2="938.33" xlink:href="#linear-gradient"/><linearGradient id="linear-gradient-4" x1="1234.61" y1="916.5" x2="1267.01" y2="7103.48" gradientUnits="userSpaceOnUse"><stop offset="0" stop-color="#78a0b0"/><stop offset="0.36" stop-color="#244c71"/><stop offset="0.45" stop-color="#173856"/><stop offset="0.55" stop-color="#0d2841"/><stop offset="0.67" stop-color="#061d32"/><stop offset="0.8" stop-color="#011629"/><stop offset="1" stop-color="#001426"/></linearGradient><linearGradient id="linear-gradient-5" x1="824.36" y1="1980.93" x2="824.36" y2="3460.58" gradientUnits="userSpaceOnUse"><stop offset="0" stop-color="#78a0b0"/><stop offset="0.44" stop-color="#244c71"/><stop offset="0.66" stop-color="#234a6f"/><stop offset="0.77" stop-color="#1f4567"/><stop offset="0.85" stop-color="#193b5a"/><stop offset="0.92" stop-color="#102d47"/><stop offset="0.98" stop-color="#051b2f"/><stop offset="1" stop-color="#001426"/></linearGradient><linearGradient id="linear-gradient-6" x1="-105.13" y1="1833.53" x2="1.15" y2="1727.25" gradientTransform="matrix(0.08, -1, -0.79, -0.06, 1442.48, 1920.92)" gradientUnits="userSpaceOnUse"><stop offset="0" stop-color="#234f72"/><stop offset="0.27" stop-color="#305b7b"/><stop offset="0.77" stop-color="#527b94"/><stop offset="1" stop-color="#648ca1"/></linearGradient><linearGradient id="linear-gradient-7" x1="14.26" y1="1957.33" x2="120.54" y2="1851.05" gradientTransform="matrix(1, 0, 0, 1, 0, 0)" xlink:href="#linear-gradient-6"/><clipPath id="clip-path" transform="translate(567.86)"><polygon id="water" class="cls-1" points="1366 4708 0 4708 0 870 281 990.86 1366 870 1366 4708"/></clipPath><linearGradient id="linear-gradient-8" x1="71.01" y1="453.15" x2="-518.71" y2="2382.07" gradientTransform="translate(182.12 -216.29)" gradientUnits="userSpaceOnUse"><stop offset="0" stop-color="#78a0b0"/><stop offset="0" stop-color="#89acba"/><stop offset="0" stop-color="#a8c2cc"/><stop offset="0" stop-color="#c4d5dc"/><stop offset="0" stop-color="#dae5e9"/><stop offset="0" stop-color="#ebf1f3"/><stop offset="0" stop-color="#f6f9fa"/><stop offset="0" stop-color="#fdfefe"/><stop offset="0" stop-color="#fff"/><stop offset="1" stop-opacity="0"/></linearGradient><linearGradient id="linear-gradient-9" x1="149.85" y1="466.76" x2="-433.46" y2="2374.69" gradientTransform="translate(178.21 -191.12)" xlink:href="#linear-gradient-8"/><linearGradient id="linear-gradient-10" x1="202.06" y1="462.83" x2="-383.11" y2="2376.82" gradientTransform="translate(175.8 -175.65)" xlink:href="#linear-gradient-8"/><linearGradient id="linear-gradient-11" x1="426.38" y1="469.93" x2="-155.43" y2="2372.97" gradientTransform="translate(165.13 -106.95)" xlink:href="#linear-gradient-8"/><linearGradient id="linear-gradient-12" x1="469.06" y1="462.83" x2="-116.11" y2="2376.82" gradientTransform="translate(163.23 -94.66)" xlink:href="#linear-gradient-8"/><linearGradient id="linear-gradient-13" x1="589.32" y1="447.26" x2="-3.19" y2="2385.26" gradientTransform="translate(157.78 -59.63)" xlink:href="#linear-gradient-8"/><linearGradient id="linear-gradient-14" x1="700.06" y1="462.83" x2="114.89" y2="2376.82" gradientTransform="translate(152.34 -24.6)" xlink:href="#linear-gradient-8"/><linearGradient id="linear-gradient-15" x1="796.8" y1="458.75" x2="209.71" y2="2379.03" gradientTransform="translate(147.84 4.37)" xlink:href="#linear-gradient-8"/><linearGradient id="linear-gradient-16" x1="980.66" y1="433.04" x2="381.45" y2="2392.97" gradientTransform="translate(139.55 57.75)" xlink:href="#linear-gradient-8"/><linearGradient id="linear-gradient-17" x1="1184.98" y1="459.8" x2="598.39" y2="2378.46" gradientTransform="translate(129.54 122.2)" xlink:href="#linear-gradient-8"/><linearGradient id="linear-gradient-18" x1="1312.68" y1="447.71" x2="720.38" y2="2385.02" gradientTransform="translate(123.7 159.81)" xlink:href="#linear-gradient-8"/><linearGradient id="linear-gradient-19" x1="1436.26" y1="458.9" x2="849.24" y2="2378.95" gradientTransform="translate(117.72 198.33)" xlink:href="#linear-gradient-8"/><linearGradient id="linear-gradient-20" x1="1570.89" y1="530.28" x2="978.59" y2="2467.59" gradientTransform="translate(86.49 234.24)" xlink:href="#linear-gradient-8"/><linearGradient id="linear-gradient-21" x1="1734.27" y1="120.42" x2="1141.97" y2="2057.73" gradientTransform="translate(203.11 303.1)" xlink:href="#linear-gradient-8"/><linearGradient id="linear-gradient-22" x1="332.7" y1="444.38" x2="-261.17" y2="2386.82" gradientTransform="translate(169.91 -137.73)" xlink:href="#linear-gradient-8"/><linearGradient id="linear-gradient-23" x1="738.93" y1="469.78" x2="157.04" y2="2373.05" gradientTransform="translate(150.41 -12.16)" xlink:href="#linear-gradient-8"/><linearGradient id="linear-gradient-24" x1="1120.95" y1="466.46" x2="537.49" y2="2374.85" gradientTransform="translate(132.46 103.4)" xlink:href="#linear-gradient-8"/><linearGradient id="linear-gradient-25" x1="758" y1="2458.65" x2="758" y2="3397.3" gradientTransform="matrix(-1, 0, 0, 1, 2518.86, 0)" gradientUnits="userSpaceOnUse"><stop offset="0" stop-color="#78a0b0"/><stop offset="0.03" stop-color="#5f879d"/><stop offset="0.07" stop-color="#49718d"/><stop offset="0.11" stop-color="#386080"/><stop offset="0.16" stop-color="#2d5577"/><stop offset="0.24" stop-color="#264e72"/><stop offset="0.45" stop-color="#244c71"/><stop offset="0.62" stop-color="#234a6e"/><stop offset="0.73" stop-color="#1e4365"/><stop offset="0.83" stop-color="#173856"/><stop offset="0.92" stop-color="#0d2840"/><stop offset="1" stop-color="#001426"/></linearGradient></defs><title>svg_poster_bg</title><g class="cls-2"><g id="sky"><rect class="cls-3" x="567.86" width="1366" height="969"/><circle class="cls-4" cx="1682.36" cy="870.5" r="139.5"/></g><g id="water-2" data-name="water"><polygon id="mountain_2" data-name="mountain 2" class="cls-5" points="822.86 889.41 925.72 581.52 986.93 501.48 986.93 430.86 1045.78 364.94 1122.29 541.5 1109.34 659.21 1159.96 719.24 1198.8 694.52 1215.28 815.76 1265.63 937 822.86 889.41"/><polygon id="mountain_1" data-name="mountain 1" class="cls-6" points="598.86 892 668.86 716 731.86 757 792.86 547 857.86 507 903.86 556 948.86 577 972.86 746 1033.86 811 1078.67 941.62 567.86 930.36 598.86 892"/><polygon id="land_2" data-name="land 2" class="cls-4" points="659.86 870 866.86 870 963.86 845 1112.86 890 1224.86 924 1308.86 924 1330.86 967 925.51 1007.16 567.86 964.36 567.86 881.02 659.86 870"/><polygon id="land_1" data-name="land 1" class="cls-7" points="609.86 929 688.86 907 778.86 907 819.86 891 940.86 907 1014.86 907 1145.86 929 1219.86 956 864.86 984 609.86 929"/><polygon id="land" class="cls-8" points="678.86 974 775.76 955.5 881.86 947 981.86 956 1068.86 947 1122.94 947.08 1167.99 974 1208.86 992 678.86 992 678.86 974"/><polygon id="water-3" data-name="water" class="cls-9" points="1933.86 7167 567.86 7167 567.86 870 848.86 1068.3 1933.86 870 1933.86 7167"/><polyline id="shelf" class="cls-10" points="567.86 1947.35 1002.86 1995 1080.86 3427 567.86 3427 567.86 1947.35"/><g id="rocks"><path class="cls-11" d="M99.73,1906c-9.68-70.81-9.4-103-47.45-131.53s-51.28-4-51.28-4L0,1927.48l97.16,7.63Z" transform="translate(567.86)"/><g class="cls-12"><path class="cls-13" d="M25.8,1765.14s14.49,9.21,17.64,30.68,0,65.59,0,65.59l8.82,47s16.17,16.2,11.55,29.28S5,1947.3,5,1947.3V1761Z" transform="translate(567.86)"/></g><path class="cls-14" d="M29.26,1823.61c69.84,19.27,101.93,22.1,127.41,73.06s0,65.26,0,65.26L0,1947.64V1824Z" transform="translate(567.86)"/></g><g id="seaweed" class="cls-15"><g id="seaweed-2" data-name="seaweed"><path class="cls-16" d="M158.68,1953.87a59.78,59.78,0,0,1,8.64-18.15l.73-1c.26-.34.54-.65.81-1l1.64-2c1.18-1.21,2.33-2.48,3.63-3.57a54.17,54.17,0,0,1,8.17-6.06c2.88-1.78,5.87-3.35,8.83-4.88a87.9,87.9,0,0,0,8.54-4.83,21.09,21.09,0,0,0,6.5-6.46,19.35,19.35,0,0,0,2.57-8.63c.47-6.22-.92-12.69-2.64-19a110.2,110.2,0,0,0-6.8-18.31,102.28,102.28,0,0,0-10-16.64,160.69,160.69,0,0,0-12.71-14.94c-2.26-2.43-4.58-4.84-6.85-7.4a62.64,62.64,0,0,1-6.43-8.4,28.48,28.48,0,0,1-4.08-10.6,29.08,29.08,0,0,1,.68-11.45l.8-2.66c.29-.88.65-1.7,1-2.55l.5-1.27c.18-.41.38-.8.57-1.21l1.17-2.4c.86-1.54,1.72-3.08,2.63-4.57s1.84-3,2.85-4.34l3-4.12,1.51-2.06c.5-.69,1-1.38,1.56-2l3.26-3.93c1.1-1.29,2.14-2.65,3.31-3.87,4.59-5,9.32-9.88,14.35-14.4l3.79-3.37c1.28-1.11,2.6-2.16,3.89-3.25s2.58-2.18,3.94-3.18l4-3.05c1.33-1,2.73-2,4.1-3s2.73-2,4.15-2.88l4.23-2.75c1.42-.91,2.86-1.78,4.29-2.66a154.29,154.29,0,0,1,17.85-9.31l.37.72a281.91,281.91,0,0,0-58.94,52.31c-1.1,1.21-2.05,2.54-3.08,3.8l-3,3.84c-2,2.59-3.83,5.26-5.76,7.89-3.69,5.25-6.95,10.74-8.7,16.36a21.11,21.11,0,0,0-.89,8.32,20.81,20.81,0,0,0,2.76,8c3,5.22,7.55,10.08,11.92,15.11,2.21,2.5,4.41,5.08,6.56,7.7s4.21,5.34,6.12,8.18a107.72,107.72,0,0,1,10,17.83,115.77,115.77,0,0,1,6.52,19.31c1.58,6.58,2.9,13.41,2.17,20.51a23,23,0,0,1-3.5,10.18,24.54,24.54,0,0,1-7.8,7.24,89.94,89.94,0,0,1-9,4.66c-3,1.42-6,2.84-8.83,4.45a51.79,51.79,0,0,0-8.07,5.51c-1.29,1-2.43,2.18-3.61,3.3l-1.65,1.81c-.27.31-.55.6-.81.92l-.75,1a58.71,58.71,0,0,0-9.23,17.37Z" transform="translate(567.86)"/><path class="cls-16" d="M158.23,1953.54a59.78,59.78,0,0,1,15-13.34l1.08-.67c.37-.21.76-.39,1.13-.59l2.27-1.16c1.57-.65,3.11-1.37,4.74-1.87a53.6,53.6,0,0,1,9.89-2.39c3.35-.51,6.71-.79,10-1a87.26,87.26,0,0,0,9.75-1.11,21.05,21.05,0,0,0,8.51-3.41,19.15,19.15,0,0,0,5.73-6.94c2.87-5.54,4.11-12,5-18.47a111.86,111.86,0,0,0,.89-19.51,103.14,103.14,0,0,0-2.74-19.24,161.21,161.21,0,0,0-5.86-18.72c-1.14-3.12-2.33-6.24-3.42-9.49a61.65,61.65,0,0,1-2.64-10.24,26.9,26.9,0,0,1,5.48-21.62l1.78-2.14c.6-.7,1.26-1.31,1.89-2l1-1c.33-.31.66-.59,1-.89l2-1.76c1.39-1.08,2.78-2.16,4.2-3.18s2.86-2,4.32-2.88l4.39-2.62,2.19-1.31c.73-.44,1.46-.87,2.23-1.25l4.53-2.34c1.52-.76,3-1.6,4.56-2.27,6.18-2.82,12.44-5.45,18.83-7.65l4.81-1.63c1.61-.52,3.24-1,4.85-1.46s3.22-1,4.87-1.4l4.9-1.23c1.63-.43,3.29-.76,4.93-1.12s3.28-.76,5-1l5-.89c1.66-.28,3.33-.51,5-.76a153.23,153.23,0,0,1,20.07-1.6l.06.8c-26.11,5-51.42,13.27-74.69,25.14-1.48.69-2.88,1.53-4.32,2.3l-4.28,2.35c-2.83,1.62-5.58,3.35-8.38,5-5.45,3.39-10.6,7.17-14.4,11.67a21,21,0,0,0-4.07,7.31,20.78,20.78,0,0,0-.59,8.45c.72,6,3,12.22,5.07,18.56,1.07,3.17,2.08,6.41,3,9.66s1.79,6.56,2.45,9.91a107.94,107.94,0,0,1,2.27,20.34,115,115,0,0,1-1.53,20.33c-1.12,6.67-2.57,13.47-6,19.72a23.06,23.06,0,0,1-7.19,8,24.53,24.53,0,0,1-10,3.62,90.42,90.42,0,0,1-10.13.76c-3.33.13-6.62.28-9.87.65a51.89,51.89,0,0,0-9.59,1.92c-1.57.42-3.08,1.06-4.61,1.62l-2.22,1c-.36.18-.74.34-1.1.53l-1.07.6a58.52,58.52,0,0,0-15.28,12.39Z" transform="translate(567.86)"/><path class="cls-16" d="M203,1910.26a59.93,59.93,0,0,1,14.93-13.45l1.08-.68c.37-.21.75-.4,1.12-.6l2.26-1.18c1.56-.66,3.1-1.39,4.72-1.91A53.68,53.68,0,0,1,237,1890c3.34-.54,6.7-.85,10-1.13a86.8,86.8,0,0,0,9.73-1.19,21,21,0,0,0,8.49-3.48,19.17,19.17,0,0,0,5.67-7c2.82-5.56,4-12.06,4.83-18.51a110.78,110.78,0,0,0,.73-19.51,102.23,102.23,0,0,0-2.9-19.22,157.63,157.63,0,0,0-6-18.67c-1.16-3.11-2.38-6.22-3.5-9.46a62.2,62.2,0,0,1-2.71-10.22,28.34,28.34,0,0,1,.29-11.36,29,29,0,0,1,5-10.31l1.76-2.15c.6-.7,1.25-1.32,1.88-2l1-1c.32-.31.66-.6,1-.9l2-1.77c1.38-1.1,2.76-2.19,4.17-3.22s2.84-2,4.3-2.91l4.37-2.66,2.18-1.32c.73-.45,1.45-.89,2.21-1.27l4.52-2.38c1.51-.77,3-1.63,4.54-2.31,6.16-2.87,12.39-5.55,18.77-7.81l4.79-1.66c1.61-.53,3.23-1,4.84-1.5s3.22-1,4.85-1.44l4.9-1.27c1.63-.44,3.28-.79,4.92-1.16s3.27-.78,4.94-1.07l5-.93c1.65-.29,3.32-.54,5-.8a151.58,151.58,0,0,1,20.06-1.76l.07.79a281.76,281.76,0,0,0-74.48,25.76c-1.48.69-2.87,1.55-4.3,2.33l-4.27,2.38c-2.81,1.64-5.55,3.39-8.33,5.08-5.43,3.44-10.54,7.26-14.31,11.78a21.13,21.13,0,0,0-4,7.35,20.8,20.8,0,0,0-.52,8.45c.76,6,3.12,12.2,5.22,18.53,1.09,3.15,2.13,6.38,3.11,9.62s1.85,6.55,2.53,9.9a108.58,108.58,0,0,1,2.44,20.32,116.11,116.11,0,0,1-1.37,20.34c-1.07,6.68-2.46,13.49-5.86,19.77a23.15,23.15,0,0,1-7.13,8.07,24.43,24.43,0,0,1-10,3.69,88.16,88.16,0,0,1-10.12.85c-3.33.16-6.61.33-9.87.73a50.93,50.93,0,0,0-9.56,2c-1.58.43-3.08,1.08-4.6,1.66l-2.21,1.05c-.37.17-.75.34-1.11.53l-1.06.61a58.56,58.56,0,0,0-15.18,12.51Z" transform="translate(567.86)"/><path class="cls-16" d="M159.11,1961.38a59.9,59.9,0,0,1,3.15-19.86l.41-1.2c.15-.4.33-.78.5-1.17l1-2.34c.8-1.5,1.53-3,2.47-4.46a53.36,53.36,0,0,1,6.13-8.12c2.26-2.52,4.68-4.87,7.08-7.18a88.45,88.45,0,0,0,6.83-7,21.23,21.23,0,0,0,4.4-8,19.19,19.19,0,0,0,0-9c-1.31-6.1-4.47-11.91-7.89-17.43a110.52,110.52,0,0,0-11.7-15.63,102.47,102.47,0,0,0-14.34-13.12A158.69,158.69,0,0,0,140.77,1836c-2.86-1.68-5.76-3.34-8.67-5.15a62.15,62.15,0,0,1-8.54-6.24,28.39,28.39,0,0,1-6.91-9,28.77,28.77,0,0,1-2.59-11.17v-2.78c0-.93.14-1.82.21-2.73l.13-1.35c.06-.45.14-.88.21-1.33l.44-2.64c.38-1.71.77-3.43,1.22-5.12s.93-3.36,1.51-5l1.72-4.81.87-2.41c.28-.8.57-1.6.92-2.38l2-4.68c.68-1.56,1.29-3.15,2.07-4.66,3-6.1,6.15-12.1,9.69-17.87l2.68-4.3c.91-1.43,1.88-2.81,2.82-4.22s1.85-2.82,2.87-4.17l3-4.06c1-1.37,2-2.68,3.09-4s2-2.67,3.17-3.94l3.27-3.84c1.1-1.26,2.24-2.51,3.36-3.75a151.78,151.78,0,0,1,14.49-14l.55.57c-17,20.48-31.28,42.91-41.71,66.86-.71,1.47-1.26,3-1.88,4.52L129,1777c-1.15,3-2.18,6.13-3.28,9.19-2.06,6.08-3.64,12.27-3.72,18.15a21.13,21.13,0,0,0,1.5,8.23,20.9,20.9,0,0,0,4.91,6.91c4.35,4.16,10.1,7.53,15.71,11.12q4.26,2.65,8.47,5.53c2.78,2,5.56,3.93,8.19,6.1a108.21,108.21,0,0,1,14.68,14.27,116.35,116.35,0,0,1,11.72,16.67c3.38,5.87,6.57,12,7.88,19.06a23.1,23.1,0,0,1-.47,10.76,24.49,24.49,0,0,1-5.43,9.14,91.18,91.18,0,0,1-7.34,7c-2.49,2.21-4.94,4.41-7.22,6.77a52.66,52.66,0,0,0-6.18,7.57c-1,1.33-1.71,2.77-2.53,4.18l-1.06,2.21c-.17.37-.36.73-.52,1.11l-.45,1.14a58.94,58.94,0,0,0-3.93,19.27Z" transform="translate(567.86)"/></g><path class="cls-16" d="M159.15,1958.55a64.72,64.72,0,0,1,10.45-8,51.74,51.74,0,0,1,12.28-5.4,53.86,53.86,0,0,1,13.41-1.9c4.51-.08,9,.31,13.24.61a59.86,59.86,0,0,0,6.24.15c1,0,2-.14,2.94-.21.47-.07.92-.16,1.38-.24l.69-.11.64-.19a18.69,18.69,0,0,0,8.85-5.07,48.25,48.25,0,0,0,7.13-9.48c2.26-3.55,4.2-7.41,6.58-11.2l.77.22a51.93,51.93,0,0,1-2.18,13.27,35.72,35.72,0,0,1-6.39,12.58l-1.25,1.43c-.43.47-1,.87-1.43,1.31a19.6,19.6,0,0,1-3.21,2.29,20.42,20.42,0,0,1-7.45,2.44l-1,.13-.93,0c-.62,0-1.25.07-1.86.07-1.19,0-2.41-.06-3.56-.2s-2.29-.24-3.41-.39-2.2-.32-3.31-.48c-4.33-.67-8.49-1.38-12.66-1.65a49.48,49.48,0,0,0-12.4.48,48.79,48.79,0,0,0-12,3.68l-2.87,1.4c-.95.49-1.85,1.06-2.79,1.59l-1.4.8-1.34.89-2.7,1.79Z" transform="translate(567.86)"/><path class="cls-16" d="M160.56,1957.4a64.6,64.6,0,0,1-7.19-11,51.71,51.71,0,0,1-4.44-12.66,53.81,53.81,0,0,1-.86-13.52c.28-4.5,1-8.91,1.63-13.15a59.75,59.75,0,0,0,.64-6.21c.08-1,0-2,0-3,0-.47-.09-.93-.12-1.39l-.07-.7-.13-.65a18.68,18.68,0,0,0-4.38-9.22,48.27,48.27,0,0,0-8.89-7.84c-3.37-2.52-7.06-4.76-10.66-7.43l.28-.75a52.19,52.19,0,0,1,13.06,3.2,36,36,0,0,1,12.05,7.35l1.32,1.36c.44.46.8,1,1.2,1.52a19.46,19.46,0,0,1,2,3.38,20.65,20.65,0,0,1,1.86,7.62l.05,1,0,.94c0,.61,0,1.24-.08,1.85-.14,1.19-.24,2.4-.47,3.53s-.42,2.27-.66,3.38-.49,2.17-.73,3.25c-1,4.27-2,8.37-2.63,12.5a49.57,49.57,0,0,0-.47,12.4,48.18,48.18,0,0,0,2.74,12.26l1.17,3c.42,1,.92,1.93,1.37,2.9l.69,1.46.78,1.41,1.58,2.83Z" transform="translate(567.86)"/></g><g id="water_rays" data-name="water rays"><g class="cls-17"><g id="rays"><rect class="cls-18" x="-193.25" y="242.57" width="128" height="2490" transform="translate(1012.96 109.28) rotate(17.66)"/><rect class="cls-19" x="-69.16" y="267.74" width="38" height="2490" transform="translate(1024.32 86.48) rotate(17.66)"/><rect class="cls-20" x="-33.56" y="283.21" width="64" height="2490" transform="translate(1031.3 72.46) rotate(17.66)"/><rect class="cls-21" x="205.77" y="351.91" width="17" height="2490" transform="translate(1062.31 10.24) rotate(17.66)"/><rect class="cls-22" x="220.86" y="364.2" width="64" height="2490" transform="translate(1067.85 -0.89) rotate(17.66)"/><rect class="cls-23" x="279.42" y="399.23" width="167" height="2490" transform="translate(1083.66 -32.62) rotate(17.66)"/><rect class="cls-24" x="440.98" y="434.26" width="64" height="2490" transform="translate(1099.47 -64.35) rotate(17.66)"/><rect class="cls-25" x="518.48" y="463.23" width="91" height="2490" transform="translate(1112.55 -90.59) rotate(17.66)"/><rect class="cls-26" x="601.19" y="516.61" width="261" height="2490" transform="translate(1136.64 -138.94) rotate(17.66)"/><rect class="cls-27" x="892.18" y="581.06" width="84" height="2490" transform="translate(1165.73 -197.32) rotate(17.66)"/><rect class="cls-28" x="970.34" y="618.67" width="164" height="2490" transform="translate(1182.7 -231.39) rotate(17.66)"/><rect class="cls-29" x="1128.35" y="657.19" width="90" height="2490" transform="translate(1200.09 -266.28) rotate(17.66)"/><rect class="cls-30" x="1191.34" y="775.67" width="164" height="2490" transform="translate(1240.73 -291.03) rotate(17.66)"/><rect class="cls-31" x="1471.34" y="434.67" width="164" height="2490" transform="translate(1150.49 -392.02) rotate(17.66)"/><rect class="cls-32" x="24.55" y="321.13" width="186" height="2490" transform="translate(1048.42 38.12) rotate(17.66)"/><rect class="cls-33" x="503.05" y="446.7" width="18" height="2490" transform="translate(1105.09 -75.62) rotate(17.66)"/><rect class="cls-34" x="855.1" y="562.26" width="40" height="2490" transform="translate(1157.24 -180.29) rotate(17.66)"/></g></g></g><line class="cls-35" x1="1249.4" y1="963.96" x2="1249.4" y2="7167"/><polyline id="shelf-2" data-name="shelf" class="cls-36" points="1933.86 2437.35 1640.46 2467.58 1587.86 3376 1933.86 3376 1933.86 2437.35"/></g></g></svg>